<svg width="43" height="21" viewBox="0 0 43 21" fill="none" xmlns="http://www.w3.org/2000/svg">
<path d="M18.6787 14.8128C18.9722 14.7022 19.2484 14.5298 19.4848 14.2924C20.3824 13.3959 20.3813 11.9359 19.4838 11.0383L14.0354 5.59065L15.7809 4.98997C17.0011 4.56972 17.702 3.68602 17.7009 2.56798C17.7006 1.29918 16.6685 0.267386 15.399 0.266782C15.3933 0.266444 8.31155 -0.0006808 8.30715 1.30409e-06C6.08616 1.30409e-06 4.00082 0.864461 2.43146 2.43347C-0.810432 5.67537 -0.810432 10.95 2.43113 14.1924L8.03699 19.7983C8.93383 20.6951 10.3946 20.6948 11.2911 19.7986C11.5245 19.5652 11.6961 19.2934 11.8084 19.0033L11.9319 19.1268C12.8287 20.0236 14.2891 20.0233 15.1856 19.1268C15.4379 18.8745 15.6183 18.5767 15.7279 18.259C16.6123 18.7932 17.7809 18.6816 18.5435 17.919C19.3934 17.0707 19.4373 15.7169 18.6787 14.813L18.6787 14.8128ZM16.2615 16.9484L9.49883 10.185C9.23103 9.91724 8.79528 9.91656 8.52851 10.185C8.2597 10.4528 8.25903 10.8866 8.52818 11.1554L14.2167 16.8445C14.5779 17.2058 14.5789 17.7943 14.2167 18.1562C13.8551 18.5167 13.2666 18.5167 12.9053 18.1551L7.21612 12.4673C6.94764 12.1985 6.51358 12.1989 6.24511 12.4673C5.97664 12.7362 5.97664 13.1702 6.24511 13.4384L10.3211 17.5154C10.6833 17.8776 10.6836 18.4658 10.3214 18.8277C9.95985 19.1889 9.3713 19.1889 9.00909 18.8267L3.40496 13.2201C0.698645 10.5138 0.697695 6.11102 3.40496 3.40385C4.71227 2.09654 6.4512 1.37584 8.30048 1.37307L15.4328 1.63952C15.9299 1.65739 16.3282 2.06752 16.3279 2.56839C16.3293 3.21326 15.7873 3.53439 15.3346 3.69118L12.9551 4.50975L12.2748 3.82947C12.007 3.56167 11.5726 3.561 11.3049 3.82947C11.0364 4.09794 11.0371 4.53201 11.3049 4.80082L12.2617 5.75663C12.2607 5.75764 12.2617 5.75764 12.2617 5.75764L18.5127 12.0087C18.876 12.3699 18.8753 12.9598 18.5137 13.3203C18.1522 13.6818 17.5636 13.6825 17.2014 13.3203L11.7817 7.90092C11.5139 7.63245 11.0792 7.63245 10.8114 7.90092C10.5436 8.16939 10.5429 8.60447 10.8111 8.87192L17.5734 15.6349C17.9349 15.9962 17.936 16.5847 17.5734 16.9466C17.2108 17.3088 16.6222 17.3091 16.2614 16.9479L16.2615 16.9484ZM33.9841 0.128055C33.9821 0.127718 26.9425 0.267352 26.9425 0.267352C26.328 0.267015 25.7502 0.507487 25.3158 0.941902C24.8817 1.37597 24.6409 1.95444 24.6412 2.56859C24.6409 3.68698 25.3391 4.56932 26.5947 5.00206L28.3819 5.51405L22.8594 11.0382C21.9626 11.9351 21.9609 13.3955 22.8584 14.2929C23.0948 14.529 23.371 14.7007 23.6645 14.8126C22.9059 15.7159 22.9495 17.0697 23.799 17.9192C24.5606 18.6811 25.7283 18.7935 26.6133 18.2595C26.7239 18.5752 26.903 18.8741 27.1556 19.1263C28.0521 20.0232 29.5122 20.0228 30.4087 19.1263L30.5334 19.0026C30.6451 19.2926 30.8167 19.5638 31.0495 19.7985C31.947 20.6961 33.4071 20.6943 34.3041 19.7975L39.91 14.192C43.1526 10.9494 43.1526 5.67545 39.9104 2.43304C38.424 0.947348 36.319 0.127786 33.9841 0.127786L33.9841 0.128055ZM38.9387 13.221L33.3335 18.8265C32.972 19.1888 32.3834 19.1888 32.0222 18.8275C31.661 18.466 31.6599 17.8771 32.0218 17.5152L36.0988 13.4386C36.3673 13.1698 36.3676 12.7347 36.0992 12.4662C35.8314 12.1977 35.3966 12.1987 35.1282 12.4675L29.439 18.1571C29.0774 18.5169 28.4889 18.5169 28.1276 18.155C27.7654 17.7928 27.7651 17.2063 28.1266 16.8447L33.8158 11.1555C34.0836 10.887 34.0856 10.4526 33.8171 10.1845C33.5477 9.91671 33.1136 9.91671 32.8444 10.1845L26.0824 16.9493C25.7209 17.3085 25.1327 17.3098 24.7717 16.9489C24.4095 16.5867 24.4092 15.9968 24.7704 15.6373L31.5334 8.87393C31.8019 8.60546 31.8029 8.17038 31.5344 7.90258C31.2666 7.63478 30.8315 7.63512 30.5624 7.90359L25.141 13.3205C24.7798 13.6818 24.1913 13.6828 23.8294 13.3205C23.4682 12.96 23.4679 12.3718 23.8304 12.0089L29.8923 5.94569L31.2785 6.343C31.6434 6.44756 32.0225 6.23676 32.1281 5.87217C32.2326 5.50791 32.0225 5.12713 31.6572 5.02325L27.0079 3.69203C26.5549 3.53452 26.0156 3.21377 26.0163 2.5682C26.016 2.05655 26.4322 1.64071 26.9567 1.63967L33.9885 1.50004C35.9558 1.50206 37.7134 2.17729 38.9407 3.40432C41.6459 6.11029 41.6456 10.5144 38.9386 13.2214L38.9387 13.221Z" fill="#172F5D"/>
</svg>
