<svg width="29" height="31" viewBox="0 0 29 31" fill="none" xmlns="http://www.w3.org/2000/svg">
<path d="M28.9107 27.1696L27.0329 19.2353C26.8729 18.5496 26.4842 17.9386 25.9299 17.5022C25.3758 17.0655 24.6892 16.8294 23.9827 16.8322H19.8971C21.5044 14.3659 22.4776 11.5439 22.7309 8.61422C22.8376 6.41762 22.0556 4.27037 20.5602 2.65236C19.0649 1.03442 16.9808 0.080811 14.774 0.00490086C12.5675 -0.0710028 10.4222 0.737381 8.81848 2.24885C7.21478 3.76031 6.28605 5.84888 6.24027 8.04749C6.37719 11.1774 7.36032 14.2123 9.08543 16.8316H4.99984C4.29671 16.8318 3.61432 17.0696 3.06434 17.5061C2.51462 17.9425 2.1295 18.552 1.97251 19.2346L0.0832523 27.1689C-0.134964 28.0924 0.0809658 29.0649 0.67032 29.8106C1.25968 30.5564 2.15768 30.9941 3.11053 30.9999H25.8719C26.8298 31.0065 27.7373 30.5723 28.3309 29.8237C28.9248 29.075 29.1388 28.096 28.9107 27.1696ZM10.2009 3.11734C11.3895 2.08582 12.9149 1.52161 14.4915 1.53049C14.819 1.53049 15.1459 1.55326 15.4703 1.59855C17.0995 1.85509 18.5736 2.70902 19.6032 3.99224C20.6328 5.27572 21.1437 6.896 21.0354 8.53525C20.8192 13.1825 17.5303 17.603 15.5841 19.87C15.308 20.171 14.9178 20.3423 14.5086 20.3423C14.0993 20.3423 13.7091 20.171 13.4332 19.87C11.3847 17.5235 7.95907 12.8761 7.95907 8.0592C7.95298 6.16617 8.77087 4.3639 10.2009 3.11734ZM27.0105 28.7674C26.7348 29.1115 26.3142 29.3084 25.8724 29.3003H3.11103C2.66927 29.3084 2.24857 29.1115 1.97297 28.7674C1.70521 28.4239 1.60513 27.9793 1.69988 27.5548L3.58914 19.6205C3.65239 19.3004 3.82564 19.0122 4.07891 18.8055C4.33218 18.5986 4.64997 18.486 4.9774 18.487H10.1785C10.7795 19.3328 11.4253 20.1465 12.1132 20.924C12.7033 21.6116 13.5663 22.0074 14.4747 22.0074C15.383 22.0074 16.2458 21.6117 16.8361 20.924C17.4052 20.2778 18.0766 19.4505 18.7594 18.4984H23.9605C24.288 18.4974 24.6055 18.61 24.859 18.8167C25.1123 19.0236 25.2855 19.3118 25.3488 19.6319L27.238 27.5662C27.3419 27.9803 27.2589 28.4193 27.0105 28.7674ZM22.1737 25.6165C22.1676 26.0836 21.7891 26.4605 21.3201 26.4666H7.66331C7.19182 26.4666 6.80975 26.0861 6.80975 25.6165C6.80975 25.1469 7.19182 24.7664 7.66331 24.7664H21.3201C21.7891 24.7725 22.1676 25.1495 22.1737 25.6165ZM17.6214 8.04774C17.6214 7.22115 17.2917 6.42824 16.7048 5.84357C16.1178 5.25912 15.3216 4.9307 14.4917 4.9307C13.6618 4.9307 12.8656 5.2591 12.2786 5.84357C11.6918 6.42826 11.362 7.22122 11.362 8.04774C11.362 8.87427 11.6918 9.66725 12.2786 10.2519C12.8657 10.8364 13.6618 11.1648 14.4917 11.1648C15.3216 11.1648 16.1178 10.8364 16.7048 10.2519C17.2916 9.66723 17.6214 8.87427 17.6214 8.04774ZM13.0691 8.04774C13.0691 7.67203 13.219 7.31151 13.4857 7.04582C13.7525 6.78014 14.1145 6.63089 14.4917 6.63089C14.869 6.63089 15.231 6.78017 15.4977 7.04582C15.7645 7.31148 15.9143 7.67202 15.9143 8.04774C15.9143 8.42347 15.7644 8.78398 15.4977 9.04967C15.231 9.31535 14.869 9.46459 14.4917 9.46459C14.1145 9.46459 13.7525 9.31532 13.4857 9.04967C13.219 8.78401 13.0691 8.42347 13.0691 8.04774Z" fill="#172F5D"/>
</svg>
