<svg width="23" height="28" viewBox="0 0 23 28" fill="none" xmlns="http://www.w3.org/2000/svg">
<path d="M11.4973 15.6791C7.12251 15.6791 3.56126 12.1612 3.56126 7.83957C3.56126 3.51796 7.12251 0 11.4973 0C15.8721 0 19.4334 3.51796 19.4334 7.83957C19.4334 12.1612 15.8721 15.6791 11.4973 15.6791ZM11.4973 1.59665C8.01148 1.59665 5.17756 4.39612 5.17756 7.83957C5.17756 11.283 8.01148 14.0825 11.4973 14.0825C14.9831 14.0825 17.8171 11.283 17.8171 7.83957C17.8171 4.39612 14.9831 1.59665 11.4973 1.59665ZM20.0529 28H2.94706C1.31998 28 0 26.6961 0 25.0888V21.8103C0 20.4744 0.915905 19.3089 2.2305 18.9842L7.48349 17.6856C7.71516 17.6271 7.9576 17.6005 8.20005 17.6005H14.8C15.0424 17.6005 15.2848 17.6324 15.5165 17.6856L20.7695 18.9842C22.0841 19.3089 23 20.4691 23 21.8103V25.0888C23 26.6961 21.68 28 20.0529 28ZM8.20005 19.1971C8.09229 19.1971 7.98454 19.2078 7.87679 19.2344L2.6238 20.533C2.03115 20.682 1.6163 21.2036 1.6163 21.8103V25.0888C1.6163 25.8126 2.21434 26.4033 2.94706 26.4033H20.0529C20.7857 26.4033 21.3837 25.8126 21.3837 25.0888V21.8103C21.3837 21.2036 20.9688 20.682 20.3762 20.533L15.1232 19.2344C15.0155 19.2078 14.9077 19.1971 14.8 19.1971H8.20005Z" fill="#172F5D"/>
</svg>
