<svg width="36" height="32" viewBox="0 0 36 32" fill="none" xmlns="http://www.w3.org/2000/svg">
<path d="M19.4622 13.147C15.9834 13.147 13.1533 10.3169 13.1533 6.83814C13.1533 3.35941 15.9834 0.529297 19.4622 0.529297C22.9409 0.529297 25.771 3.35941 25.771 6.83814C25.771 10.3169 22.9411 13.147 19.4622 13.147ZM19.4622 2.20506C16.9081 2.20506 14.8294 4.28318 14.8294 6.83784C14.8294 9.3925 16.9081 11.4706 19.4622 11.4706C22.0162 11.4706 24.0949 9.3925 24.0949 6.83784C24.0949 4.28318 22.0165 2.20506 19.4622 2.20506Z" fill="#172F5D"/>
<path d="M35.9152 27.1972C35.8801 27.037 35.8399 26.8241 35.7914 26.5696C35.2158 23.5408 33.465 14.3238 26.478 14.3238H12.0277C10.1152 14.3238 8.40651 11.7348 7.45791 7.40097C7.08633 5.6761 5.53825 4.4248 3.77524 4.4248C3.5086 4.4248 3.23901 4.45348 2.97565 4.51053C0.94361 4.94951 -0.352561 6.96053 0.0849194 8.9934C0.466846 10.7594 2.35988 18.3023 7.17269 20.9426C7.16264 20.9659 7.14727 20.9863 7.13929 21.0112C7.04085 21.3144 7.12274 21.6473 7.35124 21.8705L9.8281 24.2844L9.2428 27.6927C9.189 28.0072 9.31818 28.325 9.57595 28.5124C9.72168 28.6182 9.89521 28.6721 10.0687 28.6721C10.2023 28.6721 10.3362 28.6401 10.4589 28.576L11.226 28.1725C11.4823 31.2991 13.1815 31.5734 15.3551 31.5734L22.8375 31.5705C25.4235 31.5705 27.8657 31.5705 27.8657 27.3075V25.0842C28.0082 25.6553 28.1073 26.2817 28.2119 26.9421C28.3068 27.547 28.4061 28.1686 28.5415 28.7903C28.914 30.5143 30.463 31.7655 32.2251 31.7655C32.492 31.7655 32.7604 31.7369 33.0238 31.6798C35.0567 31.2408 36.353 29.2298 35.9149 27.197L35.9152 27.1972ZM11.3146 23.3909L9.73845 21.8546L11.9162 21.5386C12.1896 21.4987 12.4252 21.3276 12.5473 21.0801L13.521 19.1067L14.4956 21.0807C14.6177 21.3279 14.8533 21.4993 15.1267 21.5389L17.3045 21.8549L15.7283 23.3915C15.5311 23.584 15.441 23.861 15.4877 24.1332L15.8593 26.3021L13.9115 25.2778C13.7885 25.2134 13.6555 25.1817 13.5213 25.1817C13.3871 25.1817 13.2535 25.2137 13.1311 25.2778L11.1834 26.3021L11.5558 24.1332C11.602 23.8607 11.5118 23.5837 11.3146 23.3909ZM32.6718 30.0415C31.5529 30.2851 30.4198 29.539 30.1807 28.4331C30.0515 27.8425 29.959 27.2527 29.8688 26.6799C29.5587 24.7191 29.2386 22.6912 27.5273 21.4266C27.3798 21.3178 27.2048 21.2625 27.029 21.2625C26.9007 21.2625 26.7712 21.2921 26.6518 21.3524C26.3695 21.4949 26.1912 21.7843 26.1912 22.1003V27.3065C26.1912 29.8934 25.548 29.8934 22.839 29.8934L15.3566 29.8964C13.3949 29.8964 12.867 29.8961 12.8664 27.3101L13.5212 26.966L16.5816 28.575C16.7045 28.6395 16.8384 28.6711 16.9718 28.6711C16.9777 28.672 16.9842 28.6714 16.9883 28.6711C17.4515 28.6711 17.8267 28.296 17.8267 27.8334C17.8267 27.7267 17.8071 27.6244 17.7702 27.5304L17.2133 24.2837L19.6896 21.8695C19.9181 21.6469 19.9997 21.3141 19.9016 21.0105C19.8025 20.7075 19.5406 20.4858 19.2249 20.4399L15.8032 19.9427L14.272 16.8416C13.9906 16.2687 13.0511 16.2696 12.7697 16.8416L11.2393 19.9427L9.95018 20.1302C4.33422 19.3577 2.12306 10.483 1.72425 8.63958C1.48096 7.51004 2.20136 6.39269 3.3291 6.14909C4.45122 5.91172 5.58279 6.65044 5.82109 7.7575C6.9666 12.9963 9.22945 16.0008 12.0282 16.0008H26.4785C31.4965 16.0008 33.2567 22.2118 34.1444 26.8837C34.1961 27.1554 34.2393 27.3815 34.2763 27.5521C34.5192 28.681 33.7989 29.7982 32.6708 30.042L32.6718 30.0415Z" fill="#172F5D"/>
</svg>
