<svg width="191" height="224" viewBox="0 0 191 224" fill="none" xmlns="http://www.w3.org/2000/svg">
<path d="M174 78.9992C174 122.63 138.63 158 95.0002 158C51.3696 158 16 122.63 16 78.9992C16 35.3684 51.3696 -3.8965e-06 95.0002 -3.8965e-06C138.63 -3.8965e-06 174 35.3684 174 78.9992Z" fill="#04AADE" fill-opacity="0.13"/>
<path d="M161 78.9992C161 115.45 131.45 145 95.0005 145C58.5491 145 29 115.45 29 78.9992C29 42.548 58.5491 13 95.0005 13C131.45 13 161 42.548 161 78.9992Z" fill="white"/>
<path d="M187.509 91.999C185.947 141.719 145.178 181.551 95.0781 181.551C44.9787 181.551 4.20904 141.719 2.64669 91.999H0C1.5645 143.18 43.5174 184.199 95.0781 184.199C146.639 184.199 188.591 143.18 190.155 91.999H187.509Z" fill="#CEE0E6"/>
<path d="M96.405 181.737V223.633H93.6875V181.737H96.405Z" fill="#CEE0E6"/>
<path fill-rule="evenodd" clip-rule="evenodd" d="M86.2986 98.684C74.4176 97.9145 65 87.7606 65 75.3654C65 62.4695 75.1933 52 87.7481 52C93.9984 52 99.6626 54.594 103.777 58.7909L108.476 52.713C108.705 52.4159 109.054 52.2429 109.423 52.2429H124.791C125.279 52.2429 125.719 52.5439 125.907 53.0063C126.095 53.4687 125.994 54.002 125.651 54.3585L111.358 69.2069L123.133 69.0528C123.644 69.0456 124.104 69.3699 124.282 69.8616C124.46 70.3528 124.318 70.9067 123.928 71.2443L84.0691 105.708C83.5968 106.116 82.9016 106.094 82.4547 105.656C82.0088 105.218 81.9554 104.505 82.3305 104.003L86.2986 98.684ZM121.896 54.7264H110.005L92.9213 76.8258H103.205C103.665 76.8258 104.086 77.0947 104.29 77.5177C104.493 77.9418 104.444 78.448 104.165 78.8233L90.9954 96.4734L119.785 71.5808L108.442 71.7294C107.95 71.7361 107.505 71.4372 107.314 70.9738C107.121 70.5097 107.221 69.9725 107.566 69.6144L121.896 54.7264ZM102.262 60.7495C98.5724 56.8837 93.4313 54.4837 87.7481 54.4837C76.5277 54.4837 67.4181 63.8404 67.4181 75.3654C67.4181 86.8903 76.5275 96.2471 87.7481 96.2471C87.8636 96.2471 87.9753 96.2637 88.0805 96.2948L100.755 79.309H90.4167C89.9525 79.309 89.5293 79.0362 89.328 78.6071C89.1261 78.178 89.1812 77.6685 89.4694 77.2948L102.262 60.7495ZM87.7481 89.7409C86.803 89.7409 85.8789 89.6444 84.9856 89.4604C84.3314 89.3256 83.6935 89.7619 83.5623 90.4344C83.4311 91.1058 83.8564 91.7611 84.5106 91.8959C85.5572 92.1115 86.6399 92.2246 87.7481 92.2246C88.4158 92.2246 88.9571 91.668 88.9571 90.9828C88.9571 90.297 88.4157 89.7409 87.7481 89.7409ZM81.8308 88.3942C81.141 88.0627 80.4819 87.6752 79.859 87.2378C79.3084 86.8502 78.5549 86.9955 78.1782 87.561C77.8015 88.1265 77.9423 88.8999 78.4929 89.2874C79.2237 89.8008 79.9961 90.2554 80.8051 90.644C81.4097 90.9345 82.1302 90.6662 82.4125 90.0452C82.6954 89.4243 82.4342 88.6853 81.8308 88.3942ZM77.1814 84.7862C76.5553 84.0466 76.0026 83.241 75.5324 82.3807C75.2064 81.783 74.4685 81.5696 73.8867 81.905C73.3043 82.2404 73.0971 82.9977 73.4236 83.5959C73.9741 84.6044 74.6224 85.5485 75.3559 86.4156C75.7936 86.9328 76.5579 86.9883 77.0615 86.5386C77.5651 86.089 77.6191 85.304 77.1814 84.7862ZM74.3321 79.4672C74.0638 78.5413 73.8841 77.5762 73.8031 76.5827C73.747 75.8996 73.1619 75.3913 72.4974 75.4484C71.8325 75.506 71.3375 76.107 71.3936 76.79C71.4886 77.9559 71.6991 79.0891 72.0144 80.1757C72.2049 80.8326 72.879 81.2074 73.5187 81.0123C74.1583 80.8166 74.5226 80.1242 74.3321 79.4672ZM85.3825 58.682L84.7137 57.9945C84.2414 57.5105 84.2414 56.7239 84.7137 56.2388C85.1849 55.7542 85.9519 55.7542 86.4231 56.2388L89.1623 59.0523C89.4014 59.2979 89.5196 59.6222 89.5159 59.9449C89.5196 60.2676 89.4014 60.5914 89.1623 60.8381L86.4231 63.6505C85.9519 64.1356 85.1849 64.1356 84.7137 63.6505C84.2414 63.1665 84.2414 62.3798 84.7137 61.8947L85.396 61.1939C79.5008 62.2201 74.8546 67.0391 73.9236 73.1186C73.8199 73.7956 73.2014 74.259 72.5418 74.1526C71.8828 74.0456 71.4315 73.4103 71.5351 72.7333C72.647 65.468 78.2826 59.7365 85.3818 58.682H85.3825Z" fill="#172F5D"/>
</svg>
