<svg width="191" height="224" viewBox="0 0 191 224" fill="none" xmlns="http://www.w3.org/2000/svg">
<path d="M174 78.9992C174 122.63 138.63 158 95.0002 158C51.3696 158 16 122.63 16 78.9992C16 35.3684 51.3696 -3.8965e-06 95.0002 -3.8965e-06C138.63 -3.8965e-06 174 35.3684 174 78.9992Z" fill="#04AADE" fill-opacity="0.13"/>
<path d="M161 78.9992C161 115.45 131.45 145 95.0005 145C58.5491 145 29 115.45 29 78.9992C29 42.548 58.5491 13 95.0005 13C131.45 13 161 42.548 161 78.9992Z" fill="white"/>
<path d="M187.509 91.999C185.947 141.719 145.178 181.551 95.0781 181.551C44.9787 181.551 4.20904 141.719 2.64669 91.999H0C1.5645 143.18 43.5174 184.199 95.0781 184.199C146.639 184.199 188.591 143.18 190.155 91.999H187.509Z" fill="#CEE0E6"/>
<path d="M96.405 181.737V223.633H93.6875V181.737H96.405Z" fill="#CEE0E6"/>
<path d="M95.4992 56.2019C83.2036 56.2019 73.2003 66.2054 73.2003 78.5014C73.2003 90.7961 83.2035 100.797 95.4992 100.797C107.795 100.797 117.798 90.7952 117.798 78.5014C117.798 66.2055 107.795 56.2019 95.4992 56.2019ZM91.2913 58.6094C92.1227 60.1915 93.6521 61.26 95.0254 62.2163C96.2239 63.0504 97.3559 63.8387 97.4941 64.6421C97.5651 65.0518 97.3897 65.543 96.958 66.1463C96.1757 67.2409 93.9647 67.7505 91.8259 68.2416C88.7639 68.9466 85.5966 69.6749 85.2583 72.4368C85.0234 74.3439 85.4849 76.1874 86.4919 77.3694C87.2514 78.2598 88.2933 78.7534 89.5069 78.7978L90.0109 78.8147C91.8191 78.8765 92.7264 78.9072 93.3966 79.1654C94.059 79.4208 94.7059 79.9862 95.9954 81.1137L96.0645 81.1742C96.1035 81.2089 96.2509 81.4493 96.2715 81.9872C96.3003 82.7489 96.0554 83.5615 95.6764 83.9634C95.2557 84.4084 95.019 84.8584 94.8093 85.2557C94.5553 85.7373 94.336 86.1534 93.7757 86.6254C92.4724 87.7246 92.13 89.5452 91.8279 91.1511C91.6745 91.9687 91.4415 93.2038 91.1261 93.391C91.0767 93.4198 91.0364 93.4409 91.0034 93.456C90.7617 93.044 90.552 91.7713 90.4097 90.9039C89.9304 87.9978 89.2749 84.0174 85.7134 83.2181C85.6608 83.2062 85.6333 83.1943 85.6223 83.1893C85.5285 83.0368 85.5253 82.4253 85.5225 82.0183C85.5166 81.0249 85.5092 79.6643 84.7883 78.3043C83.8933 76.6165 79.7166 74.0909 75.7632 73.6125C77.6259 66.098 83.68 60.2185 91.2909 58.6095L91.2913 58.6094ZM75.1695 78.5018C75.1695 77.4988 75.2437 76.514 75.3847 75.5491C77.3128 75.7455 79.0807 76.5104 80.0297 76.9897C81.8539 77.9113 82.851 78.8511 83.0505 79.2279C83.5449 80.1604 83.5504 81.1543 83.555 82.0309C83.5614 83.1822 83.5706 84.7583 85.2845 85.1411C87.3824 85.6121 87.9479 88.0663 88.4678 91.2255C88.7938 93.2063 89.052 94.7706 90.1918 95.303C90.3777 95.3895 90.6185 95.4605 90.911 95.4605C91.2502 95.4605 91.659 95.3648 92.1305 95.0865C93.2131 94.4447 93.4805 93.0224 93.7639 91.5162C94.0056 90.2326 94.2789 88.7782 95.0457 88.1318C95.8994 87.4126 96.2615 86.7259 96.5518 86.1748C96.7308 85.8342 96.8727 85.5659 97.1075 85.3169C97.8555 84.5254 98.2991 83.1709 98.2369 81.8661C98.1916 80.919 97.8807 80.1472 97.3607 79.693L97.2916 79.6326C94.3549 77.0644 94.1526 76.9866 90.0779 76.8479L89.5767 76.8309C88.912 76.8067 88.3928 76.565 87.99 76.0925C87.3441 75.3354 87.0457 74.0265 87.2123 72.6779C87.383 71.2853 89.8661 70.7135 92.268 70.1609C94.7638 69.5869 97.3447 68.9926 98.56 67.2916C99.3135 66.2391 99.5987 65.2623 99.4348 64.3073C99.1565 62.6935 97.6962 61.6769 96.1508 60.6006C95.1318 59.891 94.0894 59.1626 93.4115 58.2769C94.0982 58.2068 94.7945 58.1707 95.4989 58.1707C99.8532 58.1707 103.892 59.5477 107.203 61.887C105.673 62.4683 104.202 63.3144 103.479 64.6662C102.961 65.6362 102.897 66.7341 103.29 67.9298C103.902 69.7897 106.591 69.6602 108.864 69.3393C109.472 69.2541 109.945 69.3095 109.991 69.4711C110.187 70.1811 109.103 71.923 108.542 72.2275C107.264 72.2137 106.335 71.9189 105.585 71.6813C104.299 71.2739 102.841 70.8115 101.711 73.0996C101.272 73.9854 101.59 74.6785 101.78 75.0919C101.957 75.4778 102.039 75.6545 101.417 76.3952C101.037 76.8475 100.535 77.8024 101.435 79.1139C101.872 79.7525 102.546 80.3555 103.26 80.9941C103.631 81.326 104.015 81.6693 104.35 82.0071C106.485 84.1624 108.185 88.9 107.093 91.5514C106.584 92.7897 107.082 94.0775 107.459 94.9272C104.101 97.3805 99.9673 98.8298 95.4995 98.8298C84.2891 98.8298 75.1694 89.7108 75.1694 78.5015L75.1695 78.5018ZM109.055 93.6372C108.878 93.1653 108.763 92.6704 108.914 92.3018C110.444 88.5891 108.101 82.9977 105.749 80.6233C105.373 80.2438 104.967 79.8803 104.574 79.5292C104 79.0151 102.937 78.0638 102.902 77.6957C102.907 77.6884 102.914 77.6779 102.926 77.6628C104.24 76.098 103.948 75.0922 103.571 74.2724C103.53 74.1826 103.474 74.0609 103.462 74.0087C103.465 74.0023 103.469 73.9908 103.477 73.9743C103.78 73.3614 103.946 73.3202 103.953 73.3188C104.121 73.2835 104.564 73.4236 104.993 73.5596C105.843 73.8292 107.007 74.1982 108.64 74.1982C110.079 74.1982 111.258 71.9972 111.388 71.7463C112.107 70.3551 112.175 69.126 111.579 68.285C111.017 67.4921 110.013 67.1918 108.593 67.3905C105.778 67.7874 105.215 67.3552 105.159 67.303C104.941 66.6342 104.961 66.0752 105.218 65.5941C105.682 64.7253 106.935 63.9882 109.038 63.3468C113.204 67.0728 115.831 72.4856 115.831 78.5011C115.83 84.5081 113.211 89.9132 109.055 93.6377L109.055 93.6372ZM73.9203 95.57C73.1631 95.57 72.4352 95.7558 71.7875 96.1047C67.9779 90.9898 65.9683 84.9233 65.9683 78.4976C65.9683 62.2148 79.2167 48.9685 95.5002 48.9685C100.645 48.9685 105.709 50.3107 110.145 52.8496C110.617 53.1192 111.218 52.9558 111.489 52.4838C111.76 52.0118 111.595 51.4108 111.123 51.1402C106.39 48.432 100.987 47 95.5007 47C87.0868 47 79.1761 50.2768 73.2264 56.2262C67.2766 62.1752 64 70.0843 64 78.4976C64 85.401 66.1749 91.9173 70.2963 97.3985C69.7241 98.1689 69.4151 99.0996 69.4151 100.078C69.4151 101.282 69.8838 102.413 70.7344 103.264C71.5849 104.115 72.7161 104.583 73.9205 104.583C75.1249 104.583 76.2561 104.115 77.1062 103.265C77.9595 102.414 78.4287 101.282 78.4287 100.077C78.4287 98.8726 77.9591 97.7405 77.1085 96.8917C76.2575 96.0398 75.1254 95.5697 73.921 95.5697L73.9203 95.57ZM75.7143 101.873C74.7246 102.863 73.1151 102.863 72.1259 101.873C71.1361 100.883 71.1361 99.2739 72.1263 98.2832C72.6047 97.8035 73.2419 97.5389 73.9199 97.5389C74.5979 97.5389 75.2351 97.8035 75.7153 98.285C76.195 98.7634 76.4596 99.4007 76.4596 100.079C76.4596 100.757 76.195 101.394 75.7143 101.873ZM120.701 59.6005C121.275 58.8301 121.585 57.8994 121.585 56.9212C121.585 55.7163 121.115 54.5842 120.262 53.7336C119.412 52.8835 118.281 52.4152 117.077 52.4152C115.872 52.4152 114.741 52.884 113.89 53.7346C113.04 54.5851 112.571 55.7163 112.571 56.9208C112.571 58.1253 113.04 59.2565 113.889 60.1066C114.74 60.9599 115.872 61.4291 117.076 61.4291C117.834 61.4291 118.562 61.2432 119.21 60.8944C123.021 66.0069 125.032 72.0731 125.032 78.498C125.032 94.7819 111.783 108.031 95.4998 108.031C90.3554 108.031 85.291 106.688 80.8545 104.149C80.3826 103.879 79.7815 104.043 79.5109 104.515C79.2404 104.987 79.4047 105.588 79.8767 105.859C84.6106 108.568 90.0127 110 95.4993 110C103.913 110 111.824 106.723 117.774 100.773C123.723 94.8235 127 86.913 127 78.4985C127 71.5965 124.824 65.0811 120.701 59.6012L120.701 59.6005ZM115.282 58.7152C114.804 58.2359 114.54 57.5986 114.54 56.9211C114.54 56.2426 114.804 55.6053 115.282 55.127C115.761 54.6477 116.399 54.3849 117.076 54.3849C117.755 54.3849 118.392 54.6486 118.87 55.127L118.871 55.1274C119.35 55.6058 119.615 56.243 119.615 56.9211C119.615 57.5991 119.35 58.2363 118.869 58.7165C118.391 59.1962 117.753 59.4608 117.075 59.4608C116.399 59.4599 115.761 59.1954 115.282 58.7152Z" fill="#172F5D"/>
</svg>
