<svg width="191" height="224" viewBox="0 0 191 224" fill="none" xmlns="http://www.w3.org/2000/svg">
<path d="M174 78.9992C174 122.63 138.63 158 95.0002 158C51.3696 158 16 122.63 16 78.9992C16 35.3684 51.3696 -3.8965e-06 95.0002 -3.8965e-06C138.63 -3.8965e-06 174 35.3684 174 78.9992Z" fill="#04AADE" fill-opacity="0.13"/>
<path d="M161 78.9992C161 115.45 131.45 145 95.0005 145C58.5491 145 29 115.45 29 78.9992C29 42.548 58.5491 13 95.0005 13C131.45 13 161 42.548 161 78.9992Z" fill="white"/>
<path d="M187.509 91.999C185.947 141.719 145.178 181.551 95.0781 181.551C44.9787 181.551 4.20904 141.719 2.64669 91.999H0C1.5645 143.18 43.5174 184.199 95.0781 184.199C146.639 184.199 188.591 143.18 190.155 91.999H187.509Z" fill="#CEE0E6"/>
<path d="M96.405 181.737V223.633H93.6875V181.737H96.405Z" fill="#CEE0E6"/>
<path d="M95.5161 100C88.7574 99.9768 82.1401 98.0576 76.4188 94.4598C70.6967 90.8626 66.0988 85.7318 63.1483 79.6506C62.9506 79.2394 62.9506 78.7611 63.1483 78.3499C67.0775 70.1806 73.9511 63.7993 82.3886 60.4853C90.8261 57.1713 100.205 57.1719 108.644 60.4853C117.083 63.7986 123.955 70.18 127.884 78.3499C128.082 78.7611 128.082 79.2394 127.884 79.6506C124.934 85.7319 120.336 90.8628 114.614 94.4598C108.892 98.0576 102.275 99.9767 95.5164 100H95.5161ZM66.1735 78.9999C69.863 86.257 76.1112 91.89 83.7103 94.8098C91.3101 97.7296 99.7224 97.7296 107.322 94.8098C114.921 91.89 121.169 86.257 124.859 78.9999C121.169 71.7429 114.921 66.1098 107.322 63.19C99.7221 60.2702 91.3098 60.2702 83.7103 63.19C76.1111 66.1098 69.8628 71.7429 66.1735 78.9999Z" fill="#172F5D"/>
<path d="M95.514 94.4258C94.681 94.4277 94.0017 93.7585 93.9923 92.9254C93.9873 92.5306 94.1405 92.1495 94.4186 91.8676C94.696 91.5864 95.0746 91.4276 95.4701 91.4269V92.9267L95.4732 91.4269C95.9076 91.4276 96.3414 91.4062 96.774 91.3629C97.597 91.2813 98.3309 91.8814 98.4144 92.7051C98.4979 93.5281 97.8983 94.2632 97.0753 94.348C96.5612 94.3995 96.0407 94.4252 95.514 94.4258Z" fill="#172F5D"/>
<path d="M89.8136 93.2085C89.6008 93.2085 89.3905 93.1627 89.1965 93.0748C88.7081 92.8538 88.231 92.6083 87.7671 92.3397C87.4218 92.1406 87.1695 91.8123 87.0665 91.4269C86.9635 91.042 87.0182 90.6315 87.2184 90.2868C87.4181 89.9415 87.7476 89.6904 88.1331 89.5887C88.5185 89.487 88.9285 89.5429 89.2731 89.7438C89.6492 89.9629 90.0365 90.1625 90.4333 90.3414C91.0774 90.6327 91.4302 91.3346 91.2808 92.0252C91.132 92.7164 90.5205 93.2091 89.8136 93.2085Z" fill="#172F5D"/>
<path d="M102.438 92.5868C101.759 92.5874 101.165 92.1317 100.989 91.4756C100.813 90.819 101.1 90.1272 101.689 89.7875C102.065 89.5709 102.43 89.3355 102.781 89.0819C103.452 88.596 104.389 88.7467 104.875 89.4171C105.36 90.0876 105.21 91.0249 104.539 91.5101C104.104 91.8258 103.652 92.1184 103.185 92.3864C102.959 92.5176 102.701 92.5868 102.438 92.5868Z" fill="#172F5D"/>
<path d="M84.2263 88.6579C83.7448 88.6586 83.2921 88.4275 83.0109 88.0371C82.6945 87.6014 82.402 87.1494 82.1333 86.6836C81.9324 86.3389 81.8778 85.9284 81.9801 85.5429C82.0831 85.1575 82.3354 84.8291 82.6807 84.6301C83.0266 84.4305 83.4372 84.3777 83.822 84.482C84.2068 84.5862 84.5345 84.8398 84.7317 85.1863C84.9489 85.5623 85.1849 85.9271 85.4392 86.2793C85.7687 86.7357 85.8152 87.3377 85.5597 87.8393C85.3042 88.3409 84.7894 88.6567 84.2263 88.6579Z" fill="#172F5D"/>
<path d="M107.552 87.5099C107.016 87.5086 106.52 87.2211 106.253 86.7559C105.987 86.2901 105.988 85.7176 106.259 85.2536C106.478 84.8789 106.677 84.4928 106.855 84.0966C107.019 83.7344 107.32 83.4519 107.692 83.3113C108.065 83.1707 108.478 83.1845 108.84 83.3483C109.594 83.6892 109.93 84.5781 109.588 85.3328C109.367 85.8231 109.12 86.3014 108.849 86.7654C108.58 87.2268 108.086 87.5105 107.552 87.5099Z" fill="#172F5D"/>
<path d="M81.6573 81.9261C80.8876 81.9249 80.2429 81.3416 80.1663 80.5751C80.1167 80.071 80.0884 79.5569 80.0872 79.0383C80.0859 79.0151 80.0859 78.9913 80.0859 78.9712C80.0859 78.5738 80.2441 78.1921 80.5254 77.9115C80.8066 77.6302 81.1883 77.4727 81.5857 77.4727C82.388 77.4739 83.0478 78.1055 83.0842 78.9071C83.0855 78.9391 83.0873 78.9699 83.0873 79.0007C83.0873 79.4269 83.1087 79.8526 83.1514 80.2763C83.2336 81.1006 82.6328 81.8357 81.8086 81.9186C81.7571 81.923 81.7075 81.9261 81.6573 81.9261Z" fill="#172F5D"/>
<path d="M109.441 80.5297C109.046 80.5366 108.665 80.3847 108.384 80.1085C108.102 79.8316 107.942 79.4544 107.941 79.0595C107.941 79.0243 107.944 78.9277 107.947 78.8925C107.942 78.5617 107.92 78.1279 107.875 77.7003V77.6997C107.791 76.8767 108.39 76.141 109.213 76.055C110.036 75.9696 110.773 76.5666 110.86 77.3897C110.915 77.9245 110.942 78.4619 110.942 78.9993C110.944 79.8343 110.276 80.5159 109.441 80.5297Z" fill="#172F5D"/>
<path d="M82.7959 74.809C82.2874 74.8083 81.8141 74.5509 81.5379 74.1241C81.2616 73.6978 81.2202 73.1604 81.4274 72.6965C81.6477 72.205 81.8938 71.7253 82.1644 71.2595C82.5812 70.5457 83.4978 70.3034 84.2128 70.7184C84.9278 71.1333 85.1727 72.0486 84.7602 72.7655C84.5417 73.1397 84.344 73.5258 84.167 73.9212C83.9253 74.4618 83.3879 74.8096 82.7959 74.809Z" fill="#172F5D"/>
<path d="M107.584 73.5376C107.047 73.5382 106.551 73.2519 106.283 72.7861C106.066 72.4113 105.83 72.0478 105.575 71.6982C105.089 71.0283 105.237 70.0904 105.907 69.6033C106.577 69.1162 107.515 69.2643 108.001 69.9342C108.319 70.3698 108.613 70.8225 108.882 71.2895C109.149 71.7528 109.148 72.3241 108.881 72.7874C108.613 73.2507 108.119 73.5369 107.584 73.5376Z" fill="#172F5D"/>
<path d="M87.3447 69.2171C86.6949 69.2177 86.1186 68.7996 85.9177 68.1819C85.7162 67.5641 85.9359 66.8868 86.4614 66.5044C86.897 66.1873 87.3497 65.8942 87.8161 65.6255C88.1608 65.4246 88.5713 65.37 88.9568 65.4723C89.3422 65.5752 89.6706 65.8276 89.8696 66.1729C90.0692 66.5188 90.1219 66.9294 90.0177 67.3142C89.9135 67.699 89.6599 68.0267 89.3134 68.2238C88.9386 68.4404 88.5751 68.6758 88.2248 68.9301C87.9693 69.1165 87.6611 69.2171 87.3447 69.2171Z" fill="#172F5D"/>
<path d="M102.488 68.4401C102.224 68.4401 101.965 68.3704 101.737 68.238C101.362 68.0207 100.976 67.823 100.581 67.646C99.8263 67.307 99.4886 66.4212 99.8263 65.6654C100.164 64.9102 101.049 64.5711 101.805 64.907C102.297 65.1267 102.776 65.3722 103.242 65.6421C103.83 65.983 104.115 66.6754 103.938 67.3309C103.761 67.9863 103.167 68.4407 102.488 68.4401Z" fill="#172F5D"/>
<path d="M94.0773 66.6478C93.2788 66.6472 92.6209 66.0207 92.5801 65.2228C92.5399 64.4255 93.1319 63.7362 93.9266 63.6552C94.4552 63.6012 94.987 63.5749 95.5187 63.5742C96.3473 63.5705 97.0222 64.2384 97.026 65.0671C97.0297 65.8957 96.3618 66.5706 95.5331 66.5744H95.5187C95.0886 66.5744 94.6586 66.5964 94.2311 66.6403C94.1796 66.6447 94.1288 66.6478 94.0773 66.6478Z" fill="#172F5D"/>
<path d="M95.516 86.0709C92.9898 86.0709 90.6558 84.7231 89.3926 82.536C88.1295 80.3482 88.1295 77.6524 89.3926 75.4647C90.6557 73.2776 92.9898 71.9297 95.516 71.9297C96.3447 71.9297 97.0158 72.6014 97.0158 73.4294C97.0158 74.2581 96.3447 74.9298 95.516 74.9298C94.4362 74.9298 93.4011 75.3586 92.6377 76.122C91.8743 76.8853 91.4455 77.9205 91.4455 79.0003C91.4455 80.0801 91.8743 81.1153 92.6377 81.8786C93.4011 82.642 94.4362 83.0708 95.516 83.0708C96.5958 83.0708 97.631 82.642 98.3944 81.8786C99.1577 81.1153 99.5865 80.0801 99.5865 79.0003C99.5865 78.1716 100.258 77.5006 101.087 77.5006C101.915 77.5006 102.587 78.1716 102.587 79.0003C102.585 80.8748 101.839 82.6722 100.514 83.9981C99.1879 85.3233 97.3906 86.0692 95.516 86.0709Z" fill="#172F5D"/>
</svg>
