<svg width="191" height="224" viewBox="0 0 191 224" fill="none" xmlns="http://www.w3.org/2000/svg">
<path d="M174 78.9992C174 122.63 138.63 158 95.0002 158C51.3696 158 16 122.63 16 78.9992C16 35.3684 51.3696 -3.8965e-06 95.0002 -3.8965e-06C138.63 -3.8965e-06 174 35.3684 174 78.9992Z" fill="#04AADE" fill-opacity="0.13"/>
<path d="M161 78.9992C161 115.45 131.45 145 95.0005 145C58.5491 145 29 115.45 29 78.9992C29 42.548 58.5491 13 95.0005 13C131.45 13 161 42.548 161 78.9992Z" fill="white"/>
<path d="M187.509 91.999C185.947 141.719 145.178 181.551 95.0781 181.551C44.9787 181.551 4.20904 141.719 2.64669 91.999H0C1.5645 143.18 43.5174 184.199 95.0781 184.199C146.639 184.199 188.591 143.18 190.155 91.999H187.509Z" fill="#CEE0E6"/>
<path d="M96.405 181.737V223.633H93.6875V181.737H96.405Z" fill="#CEE0E6"/>
<path d="M68.04 67.8032C68.3062 67.937 68.5881 68 68.8663 68C69.5382 68 70.1849 67.6294 70.5083 66.9901C72.6543 62.738 75.9908 59.116 80.0344 56.6073L79.636 58.8897C79.4627 59.8891 80.1315 60.8404 81.131 61.0151C81.2381 61.034 81.3441 61.0429 81.4486 61.0429C82.3247 61.0429 83.1006 60.414 83.2564 59.5201L84.3457 53.2717C84.4297 52.7909 84.3194 52.2985 84.0386 51.899C83.7578 51.5006 83.3315 51.2302 82.8512 51.1462L76.6029 50.0586C75.6034 49.8853 74.6522 50.5541 74.4775 51.5536C74.3042 52.5531 74.973 53.5043 75.9725 53.679L77.4039 53.9289C73.1031 56.7672 69.5519 60.7268 67.2285 65.3347C66.7713 66.2402 67.1361 67.3452 68.0411 67.8024L68.04 67.8032Z" fill="#172F5D" stroke="white"/>
<path d="M81.9868 101.741C77.7138 99.5864 74.0791 96.2279 71.5699 92.1612L74.0172 92.5874C75.0182 92.7622 75.9679 92.0919 76.1426 91.0924C76.3158 90.0929 75.647 89.1407 74.6476 88.967L67.9982 87.809C66.9972 87.6342 66.0466 88.3045 65.8728 89.304L64.7148 95.9533C64.5416 96.9528 65.2104 97.905 66.2098 98.0787C66.3169 98.0976 66.423 98.1065 66.5274 98.1065C67.4035 98.1065 68.1794 97.4777 68.3353 96.5837L68.6985 94.4981C71.5515 98.9559 75.5994 102.635 80.3322 105.022C80.5983 105.156 80.8802 105.219 81.1584 105.219C81.8303 105.219 82.4771 104.85 82.8005 104.209C83.2577 103.303 82.8928 102.198 81.9879 101.741L81.9868 101.741Z" fill="#172F5D" stroke="white"/>
<path d="M119.208 89.4473C118.302 88.9901 117.197 89.3549 116.74 90.2599C114.576 94.5475 111.202 98.1954 107.115 100.705L107.489 98.5555C107.663 97.5561 106.994 96.6039 105.994 96.4301C104.995 96.2553 104.044 96.9257 103.869 97.9251L102.816 103.964C102.643 104.964 103.312 105.916 104.311 106.09L110.351 107.142C110.458 107.161 110.564 107.17 110.668 107.17C111.544 107.17 112.32 106.541 112.476 105.647C112.649 104.648 111.981 103.696 110.981 103.522L109.839 103.324C114.142 100.485 117.695 96.524 120.021 91.9146C120.478 91.0091 120.113 89.9041 119.208 89.4469L119.208 89.4473Z" fill="#172F5D" stroke="white"/>
<path d="M105.26 55.5122C109.488 57.645 113.091 60.9548 115.597 64.9648L113.11 64.5312C112.111 64.358 111.159 65.0267 110.985 66.0262C110.812 67.0257 111.48 67.9769 112.48 68.1516L119.248 69.3306C119.355 69.3495 119.461 69.3585 119.566 69.3585C120.442 69.3585 121.218 68.7296 121.374 67.8356L122.553 61.0671C122.726 60.0676 122.057 59.1154 121.058 58.9417C120.058 58.7684 119.107 59.4372 118.932 60.4367L118.532 62.7328C115.681 58.2849 111.639 54.6152 106.915 52.2324C106.009 51.7752 104.904 52.14 104.447 53.045C103.99 53.9506 104.355 55.0556 105.26 55.5127L105.26 55.5122Z" fill="#172F5D" stroke="white"/>
<path d="M72.8311 78.6265C72.8311 74.8139 69.7298 71.7109 65.9155 71.7109C62.1013 71.7109 59 74.8123 59 78.6265C59 82.4407 62.1013 85.542 65.9155 85.542C69.7298 85.542 72.8311 82.4407 72.8311 78.6265ZM62.6762 78.6265C62.6762 76.839 64.1297 75.3855 65.9171 75.3855C67.7046 75.3855 69.1581 76.839 69.1581 78.6265C69.1581 80.4139 67.7046 81.8674 65.9171 81.8674C64.1297 81.8674 62.6762 80.4139 62.6762 78.6265Z" fill="#172F5D" stroke="white"/>
<path d="M93.6265 99.418C89.8139 99.418 86.7109 102.519 86.7109 106.334C86.7109 110.148 89.8123 113.249 93.6265 113.249C97.4407 113.249 100.542 110.148 100.542 106.334C100.542 102.519 97.4407 99.418 93.6265 99.418ZM93.6265 109.573C91.839 109.573 90.3855 108.119 90.3855 106.332C90.3855 104.544 91.839 103.091 93.6265 103.091C95.4139 103.091 96.8674 104.544 96.8674 106.332C96.8674 108.119 95.4139 109.573 93.6265 109.573Z" fill="#172F5D" stroke="white"/>
<path d="M93.6265 57.8311C97.4391 57.8311 100.542 54.7298 100.542 50.9155C100.542 47.1013 97.4407 44 93.6265 44C89.8123 44 86.7109 47.1013 86.7109 50.9155C86.7109 54.7298 89.8123 57.8311 93.6265 57.8311ZM93.6265 47.6762C95.4139 47.6762 96.8674 49.1297 96.8674 50.9171C96.8674 52.7046 95.4139 54.1581 93.6265 54.1581C91.839 54.1581 90.3855 52.7046 90.3855 50.9171C90.3855 49.1297 91.839 47.6762 93.6265 47.6762Z" fill="#172F5D" stroke="white"/>
<path d="M121.337 71.7109C117.525 71.7109 114.422 74.8123 114.422 78.6265C114.422 82.4407 117.523 85.542 121.337 85.542C125.152 85.542 128.253 82.4407 128.253 78.6265C128.253 74.8123 125.152 71.7109 121.337 71.7109ZM121.337 81.8658C119.55 81.8658 118.096 80.4123 118.096 78.6249C118.096 76.8374 119.55 75.3839 121.337 75.3839C123.125 75.3839 124.578 76.8374 124.578 78.6249C124.578 80.4123 123.125 81.8658 121.337 81.8658Z" fill="#172F5D" stroke="white"/>
</svg>
