<svg width="191" height="224" viewBox="0 0 191 224" fill="none" xmlns="http://www.w3.org/2000/svg">
<path d="M174 78.9992C174 122.63 138.63 158 95.0002 158C51.3696 158 16 122.63 16 78.9992C16 35.3684 51.3696 -3.8965e-06 95.0002 -3.8965e-06C138.63 -3.8965e-06 174 35.3684 174 78.9992Z" fill="#04AADE" fill-opacity="0.13"/>
<path d="M161 78.9992C161 115.45 131.45 145 95.0005 145C58.5491 145 29 115.45 29 78.9992C29 42.548 58.5491 13 95.0005 13C131.45 13 161 42.548 161 78.9992Z" fill="white"/>
<path d="M187.509 91.999C185.947 141.719 145.178 181.551 95.0781 181.551C44.9787 181.551 4.20904 141.719 2.64669 91.999H0C1.5645 143.18 43.5174 184.199 95.0781 184.199C146.639 184.199 188.591 143.18 190.155 91.999H187.509Z" fill="#CEE0E6"/>
<path d="M96.405 181.737V223.633H93.6875V181.737H96.405Z" fill="#CEE0E6"/>
<path fill-rule="evenodd" clip-rule="evenodd" d="M94.4997 49C81.2711 49 70.5312 59.7406 70.5312 72.9685C70.5312 86.1964 81.2718 96.937 94.4997 96.937C107.728 96.937 118.468 86.1964 118.468 72.9685C118.468 59.7406 107.728 49 94.4997 49ZM94.4997 51.4584C106.372 51.4584 116.01 61.0965 116.01 72.9685C116.01 84.8405 106.372 94.4786 94.4997 94.4786C82.6277 94.4786 72.9896 84.8405 72.9896 72.9685C72.9896 61.0965 82.6277 51.4584 94.4997 51.4584Z" fill="#172F5D"/>
<path fill-rule="evenodd" clip-rule="evenodd" d="M73.8244 83.7862L65.1893 97.5152C64.9336 97.9196 64.9374 98.436 65.1981 98.8377C65.4587 99.2394 65.9284 99.4534 66.4026 99.3859L74.1585 98.2818L78.6489 107.32C78.8728 107.769 79.3458 108.038 79.8463 107.998C80.3467 107.959 80.7731 107.62 80.9229 107.142L85.1992 93.5247C85.4023 92.8771 85.0417 92.1863 84.3942 91.9832C83.7478 91.7802 83.0569 92.1407 82.8539 92.7871L79.4922 103.491L75.9655 96.3924C75.7295 95.9177 75.217 95.6477 74.6919 95.7223L68.6809 96.5778L75.9046 85.0948C76.2662 84.5208 76.0928 83.7614 75.5188 83.3998C74.9449 83.0382 74.1854 83.2116 73.8238 83.7856L73.8244 83.7862Z" fill="#172F5D"/>
<path fill-rule="evenodd" clip-rule="evenodd" d="M113.093 85.0903L120.317 96.5733L114.306 95.7178C113.782 95.6426 113.268 95.9132 113.033 96.3878L109.506 103.486L106.144 92.7826C105.941 92.1361 105.251 91.7756 104.604 91.9786C103.956 92.1817 103.596 92.872 103.799 93.5201L108.075 107.137C108.225 107.615 108.652 107.955 109.152 107.994C109.652 108.033 110.125 107.764 110.349 107.316L114.839 98.2772L122.595 99.3813C123.07 99.4488 123.539 99.2348 123.8 98.8331C124.061 98.4314 124.064 97.9151 123.809 97.5106L115.174 83.7817C114.812 83.2077 114.053 83.0343 113.479 83.3959C112.905 83.7575 112.731 84.517 113.093 85.0909L113.093 85.0903Z" fill="#172F5D"/>
<path fill-rule="evenodd" clip-rule="evenodd" d="M95.6331 58.354C95.4399 57.9001 94.9938 57.6055 94.501 57.6055C94.0083 57.6055 93.5621 57.9007 93.369 58.354L89.8718 66.5984L80.9502 67.3776C80.4586 67.4204 80.0404 67.7535 79.8884 68.2221C79.7359 68.6918 79.8785 69.2065 80.2511 69.5298L87.0106 75.404L84.9944 84.1301C84.8836 84.6108 85.0707 85.1113 85.4702 85.401C85.8685 85.6913 86.403 85.7144 86.8261 85.4603L94.5014 80.847L102.177 85.4603C102.6 85.7149 103.134 85.6913 103.533 85.401C103.932 85.1107 104.119 84.6108 104.008 84.1301L101.992 75.404L108.752 69.5298C109.124 69.2065 109.267 68.6913 109.114 68.2221C108.962 67.754 108.544 67.4209 108.053 67.3776L99.1311 66.5984L95.6339 58.354H95.6331ZM94.501 61.9811L97.1558 68.239C97.3341 68.6572 97.7276 68.9436 98.1809 68.9826L104.951 69.5736L99.8215 74.0332C99.4775 74.3306 99.3277 74.7943 99.4292 75.2377L100.96 81.8606L95.133 78.3584C94.7434 78.1236 94.2567 78.1236 93.8671 78.3584L88.0405 81.8606L89.571 75.2377C89.673 74.7938 89.5232 74.3306 89.1786 74.0332L84.0489 69.5736L90.8193 68.9826C91.2731 68.9431 91.666 68.6566 91.8443 68.239L94.4991 61.9811H94.501Z" fill="#172F5D"/>
</svg>
