<svg width="32" height="32" viewBox="0 0 32 32" fill="none" xmlns="http://www.w3.org/2000/svg">
<path d="M26.0735 19.4945L24.7007 18.1217C26.2687 16.3681 27.2255 14.0545 27.2255 11.5201C27.2255 8.5761 25.9295 5.8017 23.6671 3.9105C23.6635 3.90654 23.6591 3.90329 23.6543 3.9009C23.6511 3.8977 23.6479 3.8977 23.6447 3.8945C21.8641 2.41351 19.6216 1.60187 17.3055 1.6001C15.6127 1.6001 13.9391 2.0353 12.4639 2.8609C12.4568 2.86403 12.4503 2.86836 12.4447 2.8737C12.4415 2.8737 12.4383 2.8769 12.4383 2.8769C11.8182 3.22838 11.2378 3.64573 10.7071 4.1217L9.33432 2.7489C9.08472 2.4993 8.67832 2.4993 8.42872 2.7489C3.56152 7.6161 3.56152 15.5329 8.42872 20.3969C10.7135 22.6817 13.6703 23.8945 16.6687 24.0321V29.1201H13.1487C12.7967 29.1201 12.5087 29.4081 12.5087 29.7601C12.5087 30.1121 12.7967 30.4001 13.1487 30.4001H21.4687C21.8207 30.4001 22.1087 30.1121 22.1087 29.7601C22.1087 29.4081 21.8207 29.1201 21.4687 29.1201H17.9487V24.0289C20.9087 23.8657 23.8207 22.6561 26.0799 20.4001C26.2047 20.2753 26.2687 20.1121 26.2687 19.9489C26.2623 19.7825 26.1983 19.6193 26.0735 19.4945ZM25.9455 11.5201C25.9455 16.2849 22.0703 20.1601 17.3055 20.1601C12.5407 20.1601 8.66552 16.2849 8.66552 11.5201C8.66552 8.6977 10.0543 6.0705 12.3359 4.4609C12.3679 4.5921 12.3967 4.7233 12.4319 4.8513C12.9567 6.6977 14.1951 8.0897 15.8271 8.6625C16.0767 8.7489 16.3519 8.7841 16.6431 8.8193C17.0975 8.8737 17.5071 8.9345 17.5295 9.0945C17.5455 9.2065 17.5135 9.3665 17.4815 9.5361L17.4751 9.5745C17.4527 9.6865 17.4079 9.9233 17.5071 10.1761C17.6607 10.5665 17.9711 10.7297 18.2495 10.8001C18.2431 10.8161 18.2335 10.8289 18.2271 10.8417C18.0927 11.0305 17.9455 11.2097 17.8047 11.3857C17.3951 11.8881 16.9727 12.4097 16.7615 13.1969C16.6911 13.4593 16.6239 13.8049 16.7391 14.1697C16.8383 14.4833 17.0303 14.6945 17.1871 14.8673C17.2319 14.9153 17.2767 14.9633 17.3151 15.0145C17.5807 15.3601 17.5039 16.0449 17.2799 16.4833C17.2447 16.5505 17.1679 16.6145 17.0463 16.7137C16.8799 16.8481 16.6687 17.0177 16.5151 17.2929C16.2399 17.7857 16.3423 18.4001 16.7583 18.7233C16.9887 18.9025 17.2479 18.9473 17.4623 18.9473C17.6159 18.9473 17.7439 18.9249 17.8303 18.9089C18.8191 18.7393 19.8463 18.5089 20.6111 17.7473C20.9663 17.3953 21.2351 17.0017 21.4975 16.6209L21.6191 16.4481C22.0479 15.8337 22.5247 15.2769 23.0303 14.6881C23.2479 14.4321 23.4687 14.1793 23.6831 13.9169C24.0031 13.5297 24.1695 13.1297 24.1791 12.7297C24.1887 12.2785 23.9871 11.8209 23.6287 11.4689C23.4143 11.2577 23.1679 11.1553 22.9695 11.0721C22.8895 11.0369 22.7551 10.9825 22.7263 10.9537C22.6847 10.8897 22.6463 10.7777 22.6047 10.6625L22.2687 9.6641C22.2335 9.5553 22.1855 9.4209 22.1151 9.2865C21.9231 8.9185 21.6191 8.6913 21.3727 8.5121C21.3151 8.4705 21.2575 8.4289 21.2031 8.3841L21.1583 8.3489C20.9087 8.1473 20.6527 7.9393 20.2783 7.7857C20.2303 7.7665 20.1791 7.7473 20.1279 7.7249C19.9743 7.6673 19.8015 7.6001 19.7599 7.5361C19.7407 7.5073 19.7151 7.4401 19.6895 7.3793C19.6255 7.2225 19.5391 7.0081 19.3567 6.8161C19.2319 6.6849 19.0847 6.5825 18.9407 6.4961C19.0623 6.4193 19.1903 6.3521 19.2607 6.3297C19.4655 6.2785 19.6991 6.3425 19.7951 6.4769C19.8367 6.5313 19.8783 6.6241 19.9231 6.7201C20.0575 7.0017 20.2399 7.3889 20.6847 7.5841C21.0815 7.7537 21.5519 7.6929 21.9135 7.4177C22.1823 7.2129 22.3807 6.8993 22.4671 6.5345C22.5087 6.3553 22.5215 6.1857 22.5343 6.0385C22.5407 5.9521 22.5471 5.8689 22.5599 5.7825C22.5887 5.6289 22.8255 5.3473 23.1391 5.1585C24.9279 6.7905 25.9455 9.0881 25.9455 11.5201ZM22.0959 4.3393C21.7055 4.6657 21.3887 5.0849 21.3055 5.5521C21.2831 5.6801 21.2703 5.8113 21.2607 5.9425C21.2511 6.0513 21.2447 6.1569 21.2255 6.2369C21.2127 6.2881 21.1967 6.3265 21.1775 6.3553C21.1487 6.3009 21.1135 6.2273 21.0847 6.1729C21.0207 6.0353 20.9439 5.8785 20.8351 5.7249C20.4287 5.1617 19.6735 4.9057 18.9535 5.0849C18.6463 5.1617 17.7567 5.6033 17.4847 6.1889C17.3631 6.4513 17.3631 6.7297 17.4847 6.9729C17.5903 7.1873 17.7631 7.2929 17.8367 7.3377C17.9135 7.3857 17.9967 7.4305 18.0831 7.4753C18.2111 7.5457 18.3711 7.6321 18.4319 7.6961C18.4479 7.7185 18.4831 7.7985 18.5023 7.8529C18.5471 7.9649 18.6015 8.1025 18.6943 8.2401C18.9631 8.6433 19.3727 8.8001 19.6703 8.9153L19.7951 8.9633C19.9967 9.0465 20.1407 9.1617 20.3551 9.3377L20.3999 9.3761C20.4671 9.4305 20.5375 9.4849 20.6111 9.5361C20.7711 9.6545 20.9247 9.7697 20.9823 9.8753C21.0079 9.9233 21.0335 9.9969 21.0591 10.0705L21.3951 11.0689C21.4559 11.2481 21.5295 11.4689 21.6767 11.6769C21.9071 12.0129 22.2367 12.1505 22.4799 12.2497C22.5823 12.2913 22.6943 12.3393 22.7327 12.3777C22.8383 12.4801 22.9023 12.6049 22.8991 12.7009C22.8959 12.8033 22.8255 12.9441 22.6975 13.0977C22.4863 13.3537 22.2719 13.6001 22.0607 13.8497C21.5551 14.4353 21.0367 15.0433 20.5695 15.7121L20.4447 15.8913C20.2047 16.2401 19.9807 16.5665 19.7119 16.8353C19.2959 17.2481 18.6655 17.4401 18.0095 17.5713C18.1503 17.4465 18.3039 17.2865 18.4191 17.0625C18.8223 16.2753 18.9631 15.0561 18.3263 14.2273C18.2655 14.1473 18.1983 14.0737 18.1311 14.0001C18.0639 13.9265 17.9711 13.8241 17.9583 13.7825C17.9551 13.7729 17.9423 13.7185 17.9967 13.5265C18.1375 12.9985 18.4287 12.6401 18.7999 12.1889C18.9535 11.9969 19.1135 11.8017 19.2735 11.5777C19.5903 11.1329 19.6159 10.5729 19.5839 10.1825C19.5583 9.8913 19.3407 9.6545 19.0527 9.6033C18.9605 9.58927 18.8675 9.58073 18.7743 9.5777C18.8063 9.3793 18.8319 9.1553 18.7999 8.9153C18.6431 7.7633 17.4879 7.6257 16.7967 7.5425C16.5855 7.5169 16.3679 7.4913 16.2527 7.4497C14.9983 7.0081 14.0799 5.9585 13.6639 4.4961C13.5967 4.2625 13.5423 4.0161 13.4911 3.7665C14.6719 3.1873 15.9807 2.8801 17.3055 2.8801C19.0143 2.8801 20.6847 3.3953 22.0959 4.3393ZM8.89272 4.1217L9.80792 5.0369C8.27192 6.8129 7.38552 9.1041 7.38552 11.5201C7.38552 16.9889 11.8367 21.4401 17.3055 21.4401C19.7823 21.4401 22.0479 20.5249 23.7887 19.0177L24.7039 19.9329C20.3103 23.8561 13.5455 23.7089 9.33112 19.4945C5.11352 15.2801 4.96952 8.5153 8.89272 4.1217Z" fill="#172F5D"/>
</svg>
