<svg width="29" height="29" viewBox="0 0 29 29" fill="none" xmlns="http://www.w3.org/2000/svg">
<g clip-path="url(#clip0_2763_9872)">
<path d="M8.83203 18.4104C8.96385 18.3665 11.2926 17.5756 13.182 16.9165" stroke="#172F5D" stroke-width="1.5" stroke-miterlimit="10" stroke-linecap="round" stroke-linejoin="round"/>
<path d="M8.87598 18.4104C9.05173 18.1907 12.1714 14.5437 13.3139 13.4452M16.1699 14.5877C16.1699 15.5104 14.5002 23.9028 14.5002 23.9028C14.5002 23.9028 12.8305 15.5104 12.8305 14.5877C12.8305 13.6649 13.5775 12.918 14.5002 12.918C15.4229 12.918 16.1699 13.6649 16.1699 14.5877Z" stroke="#172F5D" stroke-width="1.2" stroke-miterlimit="10" stroke-linecap="round" stroke-linejoin="round"/>
<path d="M14.5001 28.1213C22.0229 28.1213 28.1213 22.0229 28.1213 14.5001C28.1213 6.97733 22.0229 0.878906 14.5001 0.878906C6.97733 0.878906 0.878906 6.97733 0.878906 14.5001C0.878906 22.0229 6.97733 28.1213 14.5001 28.1213Z" stroke="#172F5D" stroke-width="1.2" stroke-miterlimit="10" stroke-linecap="round" stroke-linejoin="round"/>
<path d="M21.9697 14.5001C21.9697 6.98648 18.6303 0.878906 14.5 0.878906C10.3697 0.878906 7.03027 6.98648 7.03027 14.5001" stroke="#172F5D" stroke-width="1.2" stroke-miterlimit="10" stroke-linecap="round" stroke-linejoin="round"/>
<path d="M28.1214 14.5H16.1699" stroke="#172F5D" stroke-width="1.2" stroke-miterlimit="10" stroke-linecap="round" stroke-linejoin="round"/>
<path d="M12.8304 14.5H0.878906" stroke="#172F5D" stroke-width="1.2" stroke-miterlimit="10" stroke-linecap="round" stroke-linejoin="round"/>
<path d="M2.85596 7.42578H26.1438" stroke="#172F5D" stroke-width="1.2" stroke-miterlimit="10" stroke-linecap="round" stroke-linejoin="round"/>
<path d="M24.2544 20.124L25.1771 20.6513" stroke="#172F5D" stroke-width="1.2" stroke-miterlimit="10" stroke-linecap="round" stroke-linejoin="round"/>
<path d="M20.124 24.2549L20.6513 25.1776" stroke="#172F5D" stroke-width="1.2" stroke-miterlimit="10" stroke-linecap="round" stroke-linejoin="round"/>
<path d="M8.83197 24.2549L8.34863 25.1776" stroke="#172F5D" stroke-width="1.2" stroke-miterlimit="10" stroke-linecap="round" stroke-linejoin="round"/>
<path d="M4.70154 20.124L3.82275 20.6513" stroke="#172F5D" stroke-width="1.2" stroke-miterlimit="10" stroke-linecap="round" stroke-linejoin="round"/>
<path d="M14.5 26.8026V25.792" stroke="#172F5D" stroke-width="1.2" stroke-miterlimit="10" stroke-linecap="round" stroke-linejoin="round"/>
</g>
<defs>
<clipPath id="clip0_2763_9872">
<rect width="29" height="29" fill="white"/>
</clipPath>
</defs>
</svg>
