<svg width="29" height="29" viewBox="0 0 29 29" fill="none" xmlns="http://www.w3.org/2000/svg">
<path d="M10.875 25.3751V16.4335C10.875 15.7567 10.875 15.4184 11.0067 15.1599C11.1225 14.9325 11.3074 14.7477 11.5348 14.6318C11.7932 14.5001 12.1316 14.5001 12.8083 14.5001H16.1917C16.8684 14.5001 17.2068 14.5001 17.4652 14.6318C17.6926 14.7477 17.8775 14.9325 17.9933 15.1599C18.125 15.4184 18.125 15.7567 18.125 16.4335V25.3751M13.313 3.33998L5.11776 9.71409C4.56994 10.1402 4.29603 10.3532 4.0987 10.62C3.9239 10.8564 3.79369 11.1226 3.71445 11.4057C3.625 11.7252 3.625 12.0722 3.625 12.7663V21.5085C3.625 22.8619 3.625 23.5387 3.8884 24.0556C4.12009 24.5103 4.4898 24.88 4.94452 25.1117C5.46148 25.3751 6.13821 25.3751 7.49167 25.3751H21.5083C22.8618 25.3751 23.5385 25.3751 24.0555 25.1117C24.5102 24.88 24.8799 24.5103 25.1116 24.0556C25.375 23.5387 25.375 22.8619 25.375 21.5085V12.7663C25.375 12.0722 25.375 11.7252 25.2856 11.4057C25.2063 11.1226 25.0761 10.8564 24.9013 10.62C24.704 10.3532 24.4301 10.1402 23.8822 9.7141L15.687 3.33998C15.2624 3.0098 15.0502 2.84471 14.8158 2.78125C14.609 2.72526 14.391 2.72526 14.1842 2.78125C13.9498 2.84471 13.7376 3.0098 13.313 3.33998Z" stroke="#172F5D" stroke-width="1.5" stroke-linecap="round" stroke-linejoin="round"/>
</svg>
