<svg width="30" height="30" viewBox="0 0 30 30" fill="none" xmlns="http://www.w3.org/2000/svg">
<path fill-rule="evenodd" clip-rule="evenodd" d="M15 1C7.27307 1 1 7.27307 1 15C1 22.7269 7.27307 29 15 29C22.7269 29 29 22.7269 29 15C29 7.27307 22.7269 1 15 1ZM15 1.93333C18.1108 1.93333 20.9648 3.01979 23.2075 4.83168C21.1685 5.34585 20.1977 7.04459 20.1331 8.46667C20.1331 9.2344 20.7653 9.86667 21.5331 9.86667H27.02C27.1502 10.1715 27.2665 10.4837 27.3735 10.8H21.9991C19.9429 10.8 18.2658 12.4771 18.2658 14.5333C18.2658 15.8165 19.316 16.8667 20.5991 16.8667H21.9281C22.581 16.8667 23.1452 17.3069 23.3035 17.9404L24.7446 23.7063C22.3527 26.3823 18.8747 28.0667 14.999 28.0667C7.77711 28.0667 1.93231 22.2219 1.93231 15.0001C1.93231 13.7786 2.10356 12.5982 2.41627 11.4773L5.74587 14.8069C6.0615 15.1226 6.52731 15.1826 6.88609 15.0338C7.24505 14.8853 7.53233 14.5132 7.53233 14.0667V12.859C7.53233 12.7471 7.61295 12.6667 7.72462 12.6667H9.2067C9.7523 12.6667 10.2757 12.45 10.6615 12.0642L14.5325 8.19314C14.8313 7.89439 14.9992 7.48898 14.9992 7.06647C14.9992 5.78333 13.949 4.73314 12.6658 4.73314H6.91651C9.14003 2.98087 11.9461 1.93333 15 1.93333ZM24.1371 5.65936C25.111 6.61205 25.9354 7.71584 26.5743 8.93333H21.5329C21.2739 8.93333 21.0773 8.73458 21.0708 8.47771C21.1898 6.86251 22.535 5.63792 24.1371 5.65936ZM5.85493 5.66665H12.6661C13.4449 5.66665 14.0661 6.28788 14.0661 7.06665C14.0661 7.24186 13.9968 7.40936 13.873 7.53332L10.002 11.4044C9.79093 11.6154 9.50551 11.7333 9.2072 11.7333H7.72511C7.10885 11.7333 6.59951 12.2427 6.59951 12.8589V14.0667C6.59951 14.1369 6.5741 14.1529 6.52931 14.1714C6.48452 14.19 6.45597 14.1964 6.40618 14.1469L2.73578 10.4765C3.41119 8.64376 4.48725 7.00729 5.85493 5.66665ZM21.9995 11.7333H27.6549C27.9231 12.7773 28.066 13.8719 28.066 15C28.066 17.9279 27.1055 20.6293 25.482 22.8069L24.2087 17.7147C23.9477 16.6703 23.0047 15.9336 21.9283 15.9336H20.5993C19.8205 15.9336 19.1993 15.3124 19.1993 14.5336C19.1993 12.9817 20.4476 11.7333 21.9995 11.7333ZM9.53333 15C8.77312 15.0089 8.04272 15.4681 7.7496 16.2304L7.15712 17.7708C6.95983 18.2839 7.08795 18.8689 7.48149 19.2529L8.26443 20.0158C8.60172 20.3448 8.7913 20.7952 8.7913 21.2664V23.5342C8.7913 23.9438 8.93339 24.3404 9.19318 24.6571L10.1165 25.7827C10.6325 26.4115 11.6588 26.3135 12.0469 25.5985L15.2836 19.6385C15.6788 18.9106 15.4102 17.9873 14.6865 17.5841L10.4811 15.2408C10.2061 15.0881 9.90416 15.0037 9.53333 15ZM10.0273 16.0565L14.2327 18.399C14.519 18.5583 14.6196 18.905 14.4634 19.1929L11.2267 25.154C11.1392 25.3151 10.9546 25.3321 10.8383 25.1905L9.91502 24.0657C9.79211 23.9159 9.72461 23.7282 9.72461 23.5342V21.2665C9.72461 20.544 9.43252 19.8513 8.91522 19.3469L8.13314 18.584C8.00481 18.4588 7.96397 18.2727 8.02835 18.1054L8.62083 16.5661C8.73042 16.2811 8.94854 16.0788 9.20606 15.9854C9.50231 15.8763 9.78025 15.9286 10.0273 16.0565Z" fill="#172F5D" stroke="#172F5D" stroke-width="0.5"/>
</svg>
