<svg width="34" height="34" viewBox="0 0 34 34" fill="none" xmlns="http://www.w3.org/2000/svg">
<path d="M26.4 16C26.4 21.7438 21.7438 26.4 16 26.4M26.4 16C26.4 10.2562 21.7438 5.6 16 5.6M26.4 16H5.6M16 26.4C10.2562 26.4 5.6 21.7438 5.6 16M16 26.4C18.6013 23.5521 20.0804 19.8563 20.1607 16C20.0804 12.1437 18.6013 8.44789 16 5.6M16 26.4C13.3987 23.5521 11.9211 19.8563 11.8407 16C11.9211 12.1437 13.3987 8.44789 16 5.6M5.6 16C5.6 10.2562 10.2562 5.6 16 5.6M8.2 26.4C8.2 27.8359 7.03594 29 5.6 29C4.16406 29 3 27.8359 3 26.4C3 24.9641 4.16406 23.8 5.6 23.8C7.03594 23.8 8.2 24.9641 8.2 26.4ZM29 26.4C29 27.8359 27.8359 29 26.4 29C24.9641 29 23.8 27.8359 23.8 26.4C23.8 24.9641 24.9641 23.8 26.4 23.8C27.8359 23.8 29 24.9641 29 26.4ZM8.2 5.6C8.2 7.03594 7.03594 8.2 5.6 8.2C4.16406 8.2 3 7.03594 3 5.6C3 4.16406 4.16406 3 5.6 3C7.03594 3 8.2 4.16406 8.2 5.6ZM29 5.6C29 7.03594 27.8359 8.2 26.4 8.2C24.9641 8.2 23.8 7.03594 23.8 5.6C23.8 4.16406 24.9641 3 26.4 3C27.8359 3 29 4.16406 29 5.6Z" stroke="#172F5D" stroke-width="1.3" stroke-linecap="round" stroke-linejoin="round"/>
</svg>
