<svg width="31" height="31" viewBox="0 0 31 31" fill="none" xmlns="http://www.w3.org/2000/svg">
<g clip-path="url(#clip0_2763_9870)">
<path d="M29.9755 29.5306H23.5118V24.2925C23.5118 23.6636 23.3815 23.066 23.1479 22.5179V22.5134L24.1812 21.9204C24.5586 22.2843 25.0753 22.5089 25.6414 22.5089C26.805 22.5089 27.753 21.5609 27.753 20.3973C27.7529 19.915 27.5881 19.4471 27.2858 19.0712C26.9834 18.6954 26.5618 18.4341 26.0906 18.3307V10.967C27.0386 10.7604 27.753 9.91573 27.753 8.90486C27.753 7.73674 26.805 6.78877 25.6414 6.78877C25.1067 6.78877 24.617 6.99095 24.2441 7.31892L24.2432 7.31982L17.3374 3.3325L17.3388 3.32935C17.4391 3.01208 17.4632 2.67565 17.4094 2.34729C17.3555 2.01893 17.2251 1.70787 17.0287 1.43927C16.8322 1.17068 16.5753 0.952098 16.2788 0.801221C15.9822 0.650343 15.6543 0.571407 15.3215 0.570801C14.9884 0.571761 14.6603 0.651098 14.3636 0.802393C14.0668 0.953688 13.8099 1.17269 13.6135 1.4417C13.4171 1.71071 13.2868 2.02216 13.233 2.35087C13.1793 2.67957 13.2037 3.01631 13.3043 3.33384L6.39981 7.32026L6.39891 7.31892C6.0146 6.97867 5.51944 6.79018 5.00615 6.78877C3.83804 6.78877 2.89007 7.73674 2.89007 8.90486C2.89007 9.91528 3.60352 10.7595 4.55508 10.967V18.6775C4.04524 18.7886 3.59446 19.0843 3.28942 19.5077C2.98437 19.931 2.84659 20.4522 2.90255 20.971C2.95851 21.4898 3.20427 21.9696 3.59258 22.3182C3.98089 22.6668 4.48434 22.8595 5.00615 22.8594C5.32775 22.8595 5.64508 22.7857 5.93363 22.6437C6.22217 22.5017 6.47421 22.2952 6.67027 22.0403L7.78178 22.6819C7.58533 23.1961 7.48512 23.7421 7.48615 24.2925V29.5311H1.02423C0.905071 29.5311 0.790796 29.5784 0.706541 29.6627C0.622285 29.7469 0.574951 29.8612 0.574951 29.9804C0.574951 30.0995 0.622285 30.2138 0.706541 30.2981C0.790796 30.3823 0.905071 30.4296 1.02423 30.4296C9.4414 30.4296 4.05818 30.4305 29.9755 30.4296C30.0947 30.4296 30.209 30.3823 30.2932 30.2981C30.3775 30.2138 30.4248 30.0995 30.4248 29.9804C30.4248 29.8612 30.3775 29.7469 30.2932 29.6627C30.209 29.5784 30.0947 29.5311 29.9755 29.5311V29.5306ZM26.8544 20.3973C26.8544 21.0667 26.3108 21.6104 25.6414 21.6104C25.3192 21.6104 25.0102 21.4827 24.782 21.2553C24.5538 21.028 24.425 20.7195 24.4238 20.3973C24.4247 20.0747 24.5532 19.7655 24.7814 19.5373C25.0095 19.3092 25.3187 19.1806 25.6414 19.1798C26.3175 19.1798 26.8544 19.7288 26.8544 20.3973ZM24.4238 8.89138C24.4276 8.57089 24.5575 8.26479 24.7854 8.03941C25.0133 7.81404 25.3209 7.68754 25.6414 7.68732C26.3108 7.68732 26.8544 8.23095 26.8544 8.90486C26.8544 9.57428 26.3108 10.1179 25.6414 10.1179C25.3193 10.1177 25.0104 9.98993 24.7823 9.76262C24.5541 9.53531 24.4253 9.22692 24.4238 8.90486V8.89138ZM25.1921 10.967V18.3307C24.7877 18.416 24.4283 18.6182 24.1498 18.8967L19.657 15.5766C19.8053 15.1678 19.8862 14.7365 19.9086 14.2917C19.9491 13.4246 19.7379 12.5844 19.3066 11.8566L23.8802 10.073C24.1767 10.5223 24.644 10.8502 25.1921 10.967ZM16.8836 4.10795L23.7086 8.04854C23.5879 8.31791 23.5255 8.6097 23.5253 8.90486C23.5253 9.01718 23.5343 9.125 23.5522 9.23283L18.754 11.1063C17.9767 10.2572 16.9209 9.75848 15.7708 9.6866V4.75355C16.201 4.66239 16.5909 4.4362 16.8836 4.10795ZM19.0146 14.2512C18.9112 16.2433 17.2318 17.6936 15.3395 17.6028C14.8783 17.5821 14.4258 17.4706 14.0078 17.2749C13.5897 17.0791 13.2143 16.8029 12.9031 16.4621C12.5918 16.1212 12.3508 15.7223 12.1937 15.2882C12.0367 14.8541 11.9668 14.3934 11.9879 13.9323C12.0701 12.079 13.5918 10.5762 15.4967 10.5762C18.1048 11.0407 19.0878 12.5206 19.0146 14.2512ZM15.3215 1.46935C15.9909 1.46935 16.5391 2.01747 16.5391 2.68689C16.5391 3.37024 15.9757 3.90442 15.3215 3.90442C14.6642 3.90442 14.104 3.36215 14.104 2.68689C14.104 2.01747 14.6521 1.46935 15.3215 1.46935ZM6.93355 8.04989L13.7567 4.11019L13.7576 4.11109C14.0496 4.43008 14.436 4.65921 14.8718 4.75355V9.72254C13.8432 9.86717 12.8992 10.3718 12.2076 11.1467L7.11281 9.03515C7.1173 8.99471 7.1173 8.94979 7.1173 8.90486C7.1173 8.59935 7.04991 8.31182 6.9331 8.05124L6.93355 8.04989ZM3.78862 8.90486C3.78862 8.23095 4.33224 7.68732 5.00615 7.68732C5.65041 7.68732 6.2192 8.20084 6.2192 8.90486C6.2192 9.58506 5.66839 10.1179 5.00615 10.1179C4.33224 10.1179 3.78862 9.57428 3.78862 8.90486ZM5.00615 21.9608C4.33224 21.9608 3.78862 21.4127 3.78862 20.7433C3.78862 20.0738 4.33224 19.5257 5.00615 19.5257C5.56999 19.5257 6.04084 19.917 6.17427 20.4198C6.39531 21.1467 5.83147 21.9608 5.00615 21.9608ZM6.37644 19.1394C6.11586 18.9147 5.80137 18.753 5.45543 18.6766H5.45363V10.967H5.45543C6.06644 10.8322 6.57862 10.4369 6.86615 9.90225L11.6689 11.897C11.3169 12.5052 11.118 13.1897 11.0893 13.8918C11.0669 14.4175 11.1343 14.9341 11.287 15.4194L6.37644 19.1394ZM22.6133 29.5306H8.3847V24.2925C8.3847 22.2753 10.0246 20.6354 12.0418 20.6354H13.4525L15.1418 22.8099C15.2272 22.9178 15.3575 22.9807 15.4967 22.9807C15.636 22.9807 15.7663 22.9178 15.8517 22.8099L17.5454 20.6354H18.9562C20.9734 20.6354 22.6133 22.2753 22.6133 24.2925V29.5311V29.5306ZM22.7211 21.7272C21.8989 20.5276 20.5196 19.7369 18.9562 19.7369H17.3253C17.186 19.7369 17.0557 19.7998 16.9704 19.9121L15.4967 21.8036L14.0276 19.9121C13.9861 19.8574 13.9324 19.813 13.8708 19.7826C13.8092 19.7522 13.7414 19.7365 13.6727 19.7369H12.0418C10.4199 19.7369 8.99123 20.5905 8.18253 21.8754L7.05934 21.2271C7.16447 20.8165 7.13347 20.3165 6.92007 19.8582L11.6554 16.2685C12.3967 17.5664 13.7423 18.4304 15.2991 18.5014C15.3664 18.5059 15.4383 18.5059 15.5057 18.5059C16.2604 18.5056 17.0024 18.3117 17.6608 17.9428C18.3192 17.5739 18.8719 17.0423 19.2662 16.3988L23.6646 19.6515V19.656C23.5747 19.8851 23.5253 20.1323 23.5253 20.3973C23.5253 20.6714 23.5792 20.9365 23.6735 21.1746L22.7211 21.7272Z" fill="#172F5D" stroke="#172F5D" stroke-width="0.2"/>
</g>
<defs>
<clipPath id="clip0_2763_9870">
<rect width="31" height="31" fill="white"/>
</clipPath>
</defs>
</svg>
