<svg width="32" height="32" viewBox="0 0 32 32" fill="none" xmlns="http://www.w3.org/2000/svg">
<path d="M31.3043 3.94093H28.0573L28.0575 0.695856C28.0575 0.414417 27.8882 0.160872 27.6283 0.0531273C27.3682 -0.0545987 27.0698 0.00435999 26.8701 0.204039L23.8669 3.20675C21.3875 1.64838 18.5372 0.827575 15.5862 0.827575C6.9925 0.827332 0 7.81945 0 16.4138C0 25.0081 6.99188 32 15.5862 32C24.1806 32 31.1724 25.0081 31.1724 16.4138C31.1724 13.4625 30.3511 10.6117 28.7923 8.13187L31.7962 5.12866C31.9952 4.92971 32.0546 4.63032 31.9471 4.37047C31.8389 4.11038 31.5854 3.94102 31.304 3.94102L31.3043 3.94093ZM29.7813 16.4135C29.7813 24.2408 23.413 30.6084 15.5864 30.6084C7.75971 30.6084 1.39144 24.2408 1.39144 16.4135C1.39144 8.58623 7.75909 2.21858 15.5864 2.21858C18.1664 2.21858 20.661 2.90932 22.8534 4.21974L20.8394 6.23377C20.7088 6.3643 20.6356 6.54117 20.6356 6.72556V8.22232C19.1253 7.29189 17.3786 6.78308 15.5869 6.78308H15.5861C10.2756 6.78308 5.95576 11.1035 5.95576 16.4134C5.95576 21.7234 10.2762 26.0438 15.5861 26.0438C20.8956 26.0438 25.2152 21.7234 25.2152 16.4134C25.2152 14.6212 24.706 12.8728 23.7753 11.3621H25.2727C25.4571 11.3621 25.6342 11.289 25.7645 11.1585L27.779 9.14447C29.0897 11.3377 29.7809 13.8329 29.7809 16.4134L29.7813 16.4135ZM20.6354 10.3797L17.6439 13.3717C17.0565 12.9731 16.3478 12.7394 15.5862 12.7394C13.56 12.7394 11.9122 14.3878 11.9122 16.4134C11.9122 18.4391 13.56 20.0875 15.5862 20.0875C17.6116 20.0875 19.2599 18.4391 19.2599 16.4134C19.2599 15.6513 19.0265 14.9429 18.6276 14.3553L21.6207 11.3622H22.0851C23.2047 12.8027 23.8242 14.5813 23.8242 16.4136C23.8242 20.957 20.1288 24.6527 15.5863 24.6527C11.043 24.6527 7.34727 20.9568 7.34727 16.4136C7.34678 11.8703 11.0431 8.17394 15.5863 8.17394H15.5871C17.4186 8.17394 19.1959 8.79336 20.6358 9.91231V10.3798L20.6354 10.3797ZM17.8683 16.4135C17.8683 17.6723 16.8447 18.6963 15.5859 18.6963C14.3272 18.6963 13.3031 17.6723 13.3031 16.4135C13.3031 15.1548 14.3272 14.1307 15.5859 14.1307C15.962 14.1307 16.3165 14.2238 16.6295 14.3857L15.0934 15.9219C14.8217 16.1937 14.8217 16.634 15.0934 16.9055C15.2296 17.0416 15.4072 17.1093 15.5852 17.1093C15.7633 17.1093 15.9412 17.0414 16.077 16.9055L17.6131 15.3695C17.7751 15.6827 17.8683 16.0369 17.8683 16.4135ZM27.4117 7.544C27.4054 7.55031 27.3996 7.55589 27.3935 7.5622L24.9845 9.97044H22.0267V7.01363L24.4311 4.60924C24.4405 4.60051 24.4495 4.59104 24.4585 4.58182L26.6659 2.37495V4.63617C26.6659 5.02024 26.9776 5.33176 27.3615 5.33176H29.6244L27.4117 7.544Z" fill="#172F5D"/>
</svg>
