<svg width="35" height="28" viewBox="0 0 35 28" fill="none" xmlns="http://www.w3.org/2000/svg">
<path d="M35 9.55707C35.001 9.24113 34.832 8.9487 34.5577 8.79196L27.0226 0.294882C26.8532 0.109233 26.6141 0.00245776 26.3629 0H8.66699C8.41571 0.00244911 8.17667 0.109232 8.00671 0.294882L0.465277 8.79196C0.184603 8.94528 0.00778197 9.23721 0.00141186 9.55707C-0.0123039 9.79856 0.0743965 10.0347 0.240442 10.2105L16.7852 27.4148C16.9145 27.5809 17.0987 27.6955 17.3044 27.7376H17.6277C17.732 27.7146 17.8314 27.6739 17.9225 27.6181C18.0083 27.5637 18.0842 27.4946 18.1474 27.4148L34.6846 10.2105C34.8555 10.0371 34.9447 9.80002 34.9305 9.55707H35ZM25.9838 1.76246L32.1213 8.6793H24.909L22.1004 1.76246H25.9838ZM17.5573 24.5068L11.9394 10.4348H23.0835L17.5573 24.5068ZM9.13083 1.76246H13.0353L11.8063 4.74701C11.6226 5.1952 11.8357 5.70707 12.2834 5.89174C12.3897 5.93827 12.5043 5.96227 12.6204 5.96178C12.9432 5.92455 13.2204 5.7149 13.3439 5.41415L14.8398 1.7625H20.1417L22.9503 8.67934H2.92335L9.13083 1.76246ZM2.90167 10.4348H10.0575L15.0572 23.0747L2.90167 10.4348ZM24.9726 10.4348H32.1284L19.9728 23.0747L24.9726 10.4348Z" fill="#172F5D"/>
<path d="M35 9.55707C35.001 9.24113 34.832 8.9487 34.5577 8.79196L27.0226 0.294882C26.8532 0.109233 26.6141 0.00245776 26.3629 0H8.66699C8.41571 0.00244911 8.17667 0.109232 8.00671 0.294882L0.465277 8.79196C0.184603 8.94528 0.00778197 9.23721 0.00141186 9.55707C-0.0123039 9.79856 0.0743965 10.0347 0.240442 10.2105L16.7852 27.4148C16.9145 27.5809 17.0987 27.6955 17.3044 27.7376H17.6277C17.732 27.7146 17.8314 27.6739 17.9225 27.6181C18.0083 27.5637 18.0842 27.4946 18.1474 27.4148L34.6846 10.2105C34.8555 10.0371 34.9447 9.80002 34.9305 9.55707H35ZM25.9838 1.76246L32.1213 8.6793H24.909L22.1004 1.76246H25.9838ZM17.5573 24.5068L11.9394 10.4348H23.0835L17.5573 24.5068ZM9.13083 1.76246H13.0353L11.8063 4.74701C11.6226 5.1952 11.8357 5.70707 12.2834 5.89174C12.3897 5.93827 12.5043 5.96227 12.6204 5.96178C12.9432 5.92455 13.2204 5.7149 13.3439 5.41415L14.8398 1.7625H20.1417L22.9503 8.67934H2.92335L9.13083 1.76246ZM2.90167 10.4348H10.0575L15.0572 23.0747L2.90167 10.4348ZM24.9726 10.4348H32.1284L19.9728 23.0747L24.9726 10.4348Z" stroke="#FBFBFC"/>
</svg>
