<svg width="40" height="28" viewBox="0 0 40 28" fill="none" xmlns="http://www.w3.org/2000/svg">
<path d="M11.2198 3.45576e-05C9.50663 3.45576e-05 8.03845 1.2859 7.53071 3.05965C7.30682 3.00418 7.06999 2.96777 6.82943 2.96777C5.21866 2.96777 3.90248 4.28866 3.90248 5.90526C3.90248 7.52187 5.21857 8.84275 6.82943 8.84275C7.63483 8.84275 8.37217 8.51848 8.90265 7.98598C9.54982 8.54264 10.3515 8.87342 11.2199 8.87342C13.3522 8.87342 15.0916 6.88261 15.0916 4.43675C15.0916 1.99089 13.3522 3.45576e-05 11.2198 3.45576e-05ZM28.7805 3.45576e-05C26.6481 3.45576e-05 24.9087 1.99085 24.9087 4.43671C24.9087 6.88257 26.6481 8.87339 28.7805 8.87339C29.6488 8.87339 30.4505 8.54265 31.0977 7.98595C31.6281 8.51812 32.3655 8.84272 33.1709 8.84272C34.7817 8.84272 36.0979 7.52184 36.0979 5.90523C36.0979 4.28862 34.7818 2.96774 33.1709 2.96774C32.9303 2.96774 32.6939 3.00381 32.4696 3.05961C31.962 1.28586 30.494 3.45576e-05 28.7805 3.45576e-05ZM20.0002 0.0303183C17.3118 0.0303183 15.1222 2.22801 15.1222 4.92596C15.1222 7.6239 17.3118 9.80627 20.0002 9.80627C22.6885 9.80627 24.8781 7.62382 24.8781 4.92596C24.8781 2.2281 22.6885 0.0303183 20.0002 0.0303183ZM20.0002 0.994238C22.1612 0.994238 23.9026 2.7571 23.9026 4.92596C23.9026 7.09473 22.1612 8.84235 20.0002 8.84235C17.8391 8.84235 16.0977 7.09482 16.0977 4.92596C16.0977 2.75718 17.8391 0.994238 20.0002 0.994238ZM11.2198 1.04017C12.8592 1.04017 14.177 2.55635 14.177 4.43662C14.177 6.3169 12.8588 7.83308 11.2198 7.83308C9.58049 7.83308 8.26266 6.3169 8.26266 4.43662C8.26266 2.55635 9.58084 1.04017 11.2198 1.04017ZM28.7805 1.04017C30.4198 1.04017 31.7377 2.55635 31.7377 4.43662C31.7377 6.3169 30.4195 7.83308 28.7805 7.83308C27.1411 7.83308 25.8233 6.3169 25.8233 4.43662C25.8233 2.55635 27.1415 1.04017 28.7805 1.04017ZM6.82968 3.947C7.01648 3.947 7.19274 3.99055 7.3632 4.03887C7.35333 4.16851 7.34789 4.30427 7.34789 4.43663C7.34789 5.51457 7.68679 6.49722 8.24718 7.26689C7.89263 7.63879 7.387 7.86371 6.82969 7.86371C5.74627 7.86371 4.87869 6.99265 4.87869 5.90556C4.88651 4.70584 5.91412 3.97493 6.82969 3.94741L6.82968 3.947ZM33.1706 3.947C34.2541 3.947 35.1217 4.81806 35.1217 5.90515C35.1217 6.99259 34.254 7.8633 33.1706 7.8633C32.6133 7.8633 32.1073 7.63873 31.7532 7.26648C32.3136 6.49682 32.6524 5.51416 32.6524 4.43622C32.6524 4.30353 32.6473 4.1681 32.6371 4.03846C32.8202 3.97687 33.0141 3.96939 33.1707 3.94659L33.1706 3.947ZM8.70421 8.82731C7.56198 9.13762 6.53778 9.39894 5.65548 9.79123C5.3928 9.5442 5.14373 9.5112 4.96952 9.54624C3.38897 9.96918 2.09736 10.2598 1.2195 11.3666C0.341644 12.4741 1.23506e-05 14.2145 1.23506e-05 17.3637C-0.00134877 17.5471 0.109914 17.7271 0.274258 17.8074L1.96639 18.6335C1.95992 18.9646 1.95107 19.2865 1.95107 19.6435C1.94971 19.8269 2.06098 20.0065 2.22532 20.0872L4.61874 21.2804C4.88278 21.4067 5.24175 21.2304 5.30471 20.9439C5.67933 19.2634 5.86376 18.2954 6.00598 17.6546C6.1523 18.4328 6.35203 19.7264 6.75285 21.7241C6.78721 21.9208 6.95326 22.0875 7.14925 22.1219C7.67189 22.2087 8.23503 22.2709 8.81072 22.3206C8.79575 22.863 8.7801 23.4169 8.7801 24.0188C8.78452 24.1971 8.89442 24.3693 9.05434 24.4472L11.9813 25.9157C12.2413 26.0423 12.5968 25.8756 12.6673 25.5945C13.017 24.1273 13.2841 22.5203 13.6274 21.0966C14.0405 23.0085 14.3478 25.0385 14.6489 26.5584C14.6887 26.7497 14.8534 26.9086 15.0453 26.9409C18.0414 27.4418 21.9577 27.4418 24.9537 26.9409C25.1456 26.9086 25.3103 26.7497 25.3501 26.5584C25.7914 24.7972 25.9319 22.7989 26.3716 21.0966C26.7588 22.7581 27.0473 24.3042 27.3318 25.5945C27.394 25.8565 27.7016 26.0294 27.9568 25.9464L30.8838 24.9671C31.0753 24.9038 31.2165 24.7106 31.2193 24.5081C31.2193 23.7265 31.1965 23.0062 31.1737 22.3202C31.7548 22.2702 32.3234 22.209 32.8505 22.1215C33.0464 22.0875 33.2125 21.9205 33.2469 21.7238C33.6477 19.7261 33.8474 18.4328 33.9937 17.6543C34.136 18.295 34.3204 19.263 34.695 20.9436C34.7573 21.2052 35.0649 21.3784 35.3201 21.2954L37.7135 20.4999C37.9051 20.4366 38.0463 20.2433 38.049 20.0409C38.049 19.5509 38.0296 19.0922 38.0184 18.6486L39.6645 18.113C39.8561 18.0497 39.9973 17.8564 40 17.654C40 14.365 39.6557 12.5569 38.7805 11.4123C37.9054 10.2673 36.611 9.96894 35.0305 9.54595C34.746 9.49662 34.5504 9.66232 34.3292 9.80625C33.4496 9.40781 32.432 9.13594 31.2958 8.827C31.1543 8.79434 30.9984 8.827 30.8841 8.91887C30.1485 9.46873 29.4577 9.7144 28.7807 9.7144C28.1035 9.7144 27.4128 9.46873 26.6772 8.91887C26.518 8.7923 26.3737 8.79025 26.2658 8.827C24.0756 9.42211 22.3263 9.84066 21.1592 11.3361C21.0497 11.4766 20.9517 11.6365 20.8544 11.7951C20.2473 11.9629 19.6438 11.8839 19.086 11.7801C19.005 11.6498 18.9309 11.5158 18.842 11.3977C17.6777 9.8505 15.9257 9.42246 13.7354 8.82735C13.5939 8.79469 13.438 8.82735 13.3237 8.91922C12.5881 9.46908 11.8973 9.71475 11.2203 9.71475C10.5432 9.71475 9.85244 9.46908 9.11682 8.91922C8.96132 8.78856 8.80174 8.78687 8.70511 8.82769L8.70421 8.82731ZM8.76511 9.83722C9.55655 10.3755 10.3817 10.694 11.2194 10.694C12.0571 10.694 12.8823 10.3755 13.6737 9.83722C14.9177 10.1754 15.9228 10.4527 16.7225 10.8774C14.1593 11.5766 12.1344 12.1095 10.7774 13.8608C9.63278 15.3378 9.04011 17.5954 8.85666 21.3267C8.44087 21.29 8.03834 21.2454 7.6525 21.1889C7.32007 19.489 7.10639 18.2137 6.96654 17.4712C6.84064 16.7196 6.70794 16.2143 6.03659 15.972C5.35845 16.0813 5.24209 16.6634 5.10664 17.196C4.97802 17.7509 4.77148 18.8398 4.4969 20.1181L2.94188 19.3532C2.97046 15.2612 3.47336 13.1033 4.37469 11.9485C5.27197 10.7988 6.68606 10.402 8.76468 9.8372L8.76511 9.83722ZM26.3258 9.83722C27.1172 10.3755 27.9424 10.694 28.7801 10.694C29.6178 10.694 30.4429 10.3755 31.2344 9.83722C33.3126 10.4021 34.7247 10.7988 35.6244 11.9945C36.5254 13.1915 37.0102 15.4512 37.0418 19.7052L35.5328 20.2101C35.2412 18.8606 35.0251 17.7691 34.8924 17.196C34.758 16.5274 34.5985 16.1409 33.9625 15.9721C33.2241 16.1382 33.1547 16.9051 33.0325 17.4713C32.8927 18.2137 32.679 19.489 32.3466 21.189C31.9607 21.2455 31.5582 21.2901 31.1424 21.3268C30.942 17.6513 30.3432 15.4022 29.237 13.9221C27.8797 12.1057 25.8337 11.5791 23.2613 10.8774C24.0636 10.4576 25.0725 10.1779 26.3254 9.8373L26.3258 9.83722ZM35.8987 10.8165C36.8528 11.1023 37.535 11.3983 38.0022 12.0097C38.6102 12.8053 38.9593 14.3841 38.993 17.3032L38.0315 17.622C37.6807 15.6284 37.5731 13.0074 36.4016 11.398C36.2451 11.1802 36.0522 10.986 35.8987 10.8168L35.8987 10.8165ZM4.03959 10.8314C3.88171 10.9832 3.7388 11.1554 3.59759 11.3364C2.24544 13.1633 2.1471 15.4597 1.95146 17.5784L0.991285 17.0735C1.02055 14.2477 1.37271 12.7481 1.98212 11.9792C2.43875 11.4031 3.1091 11.1118 4.04001 10.8318L4.03959 10.8314ZM17.0123 11.8107C17.9804 12.4854 18.9828 12.8815 20.0002 12.8815C21.0176 12.8815 22.0197 12.4851 22.988 11.8107C25.5559 12.513 27.3124 13.0027 28.4451 14.5185C29.5819 16.0394 30.1995 18.8224 30.2287 24.1568L28.1708 24.8451C27.7945 23.0996 27.5284 21.7406 27.3631 21.0203C27.213 20.2816 27.05 19.7896 26.3416 19.6127C25.4933 19.7804 25.4396 20.7195 25.3201 21.3568C25.1472 22.283 24.8873 23.8516 24.4664 26.0078C21.7446 26.4213 18.2552 26.4213 15.5336 26.0078C15.1127 23.8516 14.8531 22.283 14.6799 21.3568C14.5332 20.5092 14.4523 19.864 13.6584 19.6127C12.9047 19.697 12.7744 20.464 12.6369 21.0203C12.4746 21.726 12.2065 23.0826 11.8441 24.7686L9.77088 23.7131C9.79708 18.5912 10.4024 15.9239 11.5392 14.4572C12.6696 12.9988 14.4427 12.5133 17.0116 11.8103L17.0123 11.8107Z" fill="#172F5D"/>
</svg>
