<svg width="32" height="28" viewBox="0 0 32 28" fill="none" xmlns="http://www.w3.org/2000/svg">
<path d="M28.497 4.14334H25.8022C25.4317 4.14334 25.1286 4.44644 25.1286 4.81696V8.21901H21.4232C21.7263 7.51152 21.8948 6.73684 21.8948 5.89474C21.8948 2.66093 19.2338 0 16 0C12.7662 0.000235008 10.1053 2.66141 10.1053 5.89498C10.1053 6.70346 10.2737 7.51176 10.5768 8.21925H6.87146V4.8172C6.87146 4.44667 6.56836 4.14358 6.19784 4.14358H3.50304C1.58292 4.14358 0 5.72674 0 7.64662V23.7814C0 25.7015 1.58316 27.2844 3.50304 27.2844H28.4967C30.4169 27.2844 31.9998 25.7012 31.9998 23.7814L32 7.64662C32 5.7265 30.4169 4.14334 28.497 4.14334ZM16.0001 1.34773C18.5265 1.34773 20.5476 3.40247 20.5476 5.89522C20.5476 8.38773 18.5265 10.476 16.0001 10.476C13.4738 10.476 11.4527 8.4213 11.4527 5.89498C11.4527 3.36866 13.4738 1.34773 16.0001 1.34773ZM1.34751 7.64668C1.34751 6.46761 2.32424 5.49089 3.5033 5.49089H5.52448V20.3119H3.5033C2.69482 20.3119 1.92015 20.5814 1.34751 21.053V7.64668ZM28.497 25.9372H3.5033C2.32424 25.9372 1.34751 24.9605 1.34751 23.7814C1.34751 22.6024 2.32424 21.6256 3.5033 21.6256H6.1981C6.56864 21.6256 6.87173 21.3225 6.87173 20.952V9.56674H11.3854C12.4634 10.9479 14.1476 11.8236 16 11.8236C17.8527 11.8236 19.5369 10.9479 20.6147 9.56674H25.1283V20.952C25.1283 21.3225 25.4314 21.6256 25.802 21.6256H28.4968C29.6758 21.6256 30.6525 22.6024 30.6525 23.7814C30.653 24.9605 29.7099 25.9372 28.4972 25.9372H28.497ZM30.6528 21.0194C30.0466 20.5479 29.3055 20.2784 28.497 20.2784H26.4758V5.45732H28.497C29.6761 5.45732 30.6528 6.43405 30.6528 7.61311V21.0194Z" fill="#172F5D"/>
<path d="M14.7877 7.84858C14.9223 7.98322 15.0908 8.05065 15.2592 8.05065C15.4277 8.05065 15.5962 7.98322 15.7308 7.84858L18.3582 5.22121C18.6277 4.95171 18.6277 4.54759 18.3582 4.27806C18.0887 4.00855 17.6846 4.00855 17.415 4.27806L15.2257 6.46741L14.3836 5.6253C14.1141 5.3558 13.7099 5.3558 13.4404 5.6253C13.1709 5.89481 13.1709 6.29893 13.4404 6.56846L14.7877 7.84858Z" fill="#172F5D"/>
<path d="M21.7268 13.9795H10.2742C9.90367 13.9795 9.60059 14.2826 9.60059 14.6531C9.60059 15.0237 9.90369 15.3267 10.2742 15.3267H21.7268C22.0974 15.3267 22.4005 15.0236 22.4005 14.6531C22.4005 14.2826 22.0974 13.9795 21.7268 13.9795Z" fill="#172F5D"/>
<path d="M21.7268 17.8193H10.2742C9.90367 17.8193 9.60059 18.1224 9.60059 18.493C9.60059 18.8635 9.90369 19.1666 10.2742 19.1666H21.7268C22.0974 19.1666 22.4005 18.8635 22.4005 18.493C22.4005 18.1224 22.0974 17.8193 21.7268 17.8193Z" fill="#172F5D"/>
<path d="M21.7268 21.6592H10.2742C9.90367 21.6592 9.60059 21.9623 9.60059 22.3328C9.60059 22.7033 9.90369 23.0064 10.2742 23.0064H21.7268C22.0974 23.0064 22.4005 22.7033 22.4005 22.3328C22.4005 21.9623 22.0974 21.6592 21.7268 21.6592Z" fill="#172F5D"/>
</svg>
