<svg width="36" height="36" viewBox="0 0 36 36" fill="none" xmlns="http://www.w3.org/2000/svg">
<path d="M35.0888 21.822C34.0344 20.8116 33.4635 19.4057 33.4635 17.956C33.4635 16.5063 34.0346 15.1445 35.0888 14.0901C35.2644 13.9145 35.4403 13.7824 35.66 13.6068C35.9677 13.3871 36.0553 12.9918 35.9677 12.6403C35.6162 11.3665 35.0891 10.1361 34.4741 8.99411C34.2985 8.68645 33.947 8.51087 33.5956 8.55469C33.2879 8.59851 33.0685 8.59851 32.8488 8.59851C29.8175 8.59851 27.3575 6.13848 27.3575 3.15106C27.3575 2.93134 27.3575 2.66781 27.4013 2.40428C27.4451 2.0528 27.2695 1.70133 26.9619 1.52575C25.8198 0.910743 24.5898 0.383641 23.3157 0.0321978C22.9642 -0.0557492 22.5689 0.0760177 22.3492 0.33986C22.1736 0.559574 21.9977 0.779289 21.8659 0.911049C20.8115 1.92137 19.4497 2.49254 18 2.49254C16.5503 2.49254 15.1447 1.92135 14.134 0.911049C13.9584 0.735461 13.8264 0.559567 13.6508 0.33986C13.4311 0.032198 13.0358 -0.0554433 12.6843 0.0321978C11.4105 0.427501 10.1801 0.910727 9.0381 1.52575C8.73043 1.70134 8.55484 2.05282 8.59867 2.40428C8.64248 2.71194 8.64249 2.93135 8.64249 3.15106C8.64249 6.18233 6.18246 8.59851 3.15119 8.59851C2.93147 8.59851 2.66794 8.59851 2.40441 8.55469C2.05293 8.51087 1.70145 8.68645 1.52588 8.99411C0.91087 10.1362 0.383769 11.3662 0.0323256 12.6403C-0.0556215 12.9918 0.0323254 13.3871 0.339987 13.6068C0.603522 13.7824 0.779417 13.9583 0.911177 14.0901C3.06384 16.1986 3.06384 19.6693 0.911177 21.8217C0.735588 21.9973 0.559694 22.1294 0.339987 22.305C0.0323254 22.5247 -0.0553155 22.92 0.0323256 23.2714C0.427628 24.5453 0.910854 25.7756 1.52588 26.9177C1.70147 27.2253 2.05295 27.4009 2.40441 27.3571C2.71207 27.3133 2.93148 27.3133 3.15119 27.3133C6.18246 27.3133 8.64249 29.7733 8.64249 32.7607C8.64249 32.9804 8.64248 33.244 8.59867 33.5075C8.55485 33.859 8.73043 34.2105 9.0381 34.386C10.1802 35.001 11.4102 35.5281 12.6843 35.8796C13.0358 35.9675 13.4311 35.8796 13.6508 35.5719C13.8264 35.3522 14.0023 35.1325 14.134 35.0007C15.1884 33.9904 16.5503 33.4192 18 33.4192C19.4497 33.4192 20.8553 33.9904 21.8659 35.0007C22.0415 35.1763 22.1736 35.3522 22.3492 35.5719C22.5248 35.7916 22.7886 35.9234 23.0521 35.9234C23.1401 35.9234 23.2277 35.9234 23.3157 35.8796C24.5895 35.4843 25.8199 35.0011 26.9619 34.386C27.2696 34.2104 27.4452 33.859 27.4013 33.5075C27.3575 33.1998 27.3575 32.9804 27.3575 32.7607C27.3575 29.7294 29.8175 27.3133 32.8488 27.3133C33.0685 27.3133 33.3321 27.3133 33.5956 27.3571C33.9471 27.4009 34.2985 27.2253 34.4741 26.9177C35.0891 25.7756 35.6162 24.5456 35.9677 23.2714C36.0556 22.92 35.9677 22.5247 35.66 22.305C35.4403 22.1294 35.2206 21.9976 35.0888 21.822L35.0888 21.822ZM33.2 25.5559H32.8046C28.8069 25.5559 25.5563 28.8068 25.5563 32.7605V33.1558C24.8533 33.5073 24.1066 33.8146 23.3159 34.0785C23.228 33.9905 23.1403 33.9029 23.0524 33.8149C21.6906 32.4532 19.8894 31.7064 17.9564 31.7064C16.0234 31.7064 14.2221 32.4531 12.8604 33.8149C12.7724 33.9029 12.6848 33.9905 12.5968 34.0785C11.8501 33.8149 11.1033 33.5073 10.3565 33.1558V32.7605C10.3565 28.7627 7.10554 25.5559 3.10811 25.5559H2.71281C2.36133 24.8529 2.05398 24.1062 1.79012 23.3155L2.05365 23.052C4.86519 20.2404 4.86519 15.6718 2.05365 12.8162C1.9657 12.7283 1.87806 12.6406 1.79012 12.5527C2.05365 11.8059 2.3613 11.0591 2.71281 10.3123H3.10811C7.10586 10.3123 10.3565 7.06137 10.3565 3.10771V2.71241C11.0594 2.36092 11.8062 2.05358 12.5968 1.78971L12.8604 2.05325C14.2221 3.41501 16.0234 4.16183 17.9564 4.16183C19.8894 4.16183 21.6906 3.41505 23.0524 2.05325L23.3159 1.78971C24.0627 2.05325 24.8095 2.3609 25.5563 2.71241V3.10771C25.5563 7.10545 28.8072 10.3123 32.8046 10.3123H33.2C33.5514 11.0153 33.8588 11.762 34.1226 12.5527C34.0347 12.6406 33.9471 12.7283 33.8591 12.8162C32.4973 14.178 31.7505 15.9792 31.7505 17.9122C31.7505 19.8452 32.4973 21.6464 33.8591 23.0082C33.9471 23.0962 34.0347 23.1838 34.1226 23.2717C33.8588 24.1062 33.5511 24.8532 33.2 25.5559ZM18 7.5005C12.2452 7.5005 7.5446 12.2012 7.5446 17.9559C7.5446 23.7107 12.2453 28.4114 18 28.4114C23.7548 28.4114 28.4555 23.7107 28.4555 17.9559C28.4555 12.2012 23.7548 7.5005 18 7.5005ZM18 26.6541C13.2117 26.6541 9.30182 22.7443 9.30182 17.9559C9.30182 13.1675 13.2116 9.25771 18 9.25771C22.7884 9.25771 26.6983 13.1675 26.6983 17.9559C26.6983 22.7443 22.7884 26.6541 18 26.6541Z" fill="#172F5D"/>
</svg>
