<svg width="35" height="31" viewBox="0 0 35 31" fill="none" xmlns="http://www.w3.org/2000/svg">
<path d="M34.9037 22.0352C34.8331 21.9295 33.2818 19.6025 29.2275 20.5193C26.8299 21.0832 24.891 21.6826 23.8333 22.0704C23.7275 21.1184 22.9167 20.3428 21.9296 20.3076L7.15724 17.4165V16.5703C7.15724 16.253 6.91033 16.0061 6.59308 16.0061L0.564155 16.0063C0.246906 16.0063 0 16.2533 0 16.5705V28.1345C0 28.4518 0.246913 28.6987 0.564155 28.6987H6.59308C6.91033 28.6987 7.15724 28.4518 7.15724 28.1345V26.9004C9.41363 27.817 15.8655 30.2497 19.2148 30.2497C23.2692 30.2497 34.2692 23.128 34.7275 22.8459C35.0096 22.6701 35.0802 22.3174 34.9039 22.0353L34.9037 22.0352ZM1.16357 27.5351V17.1698H6.02898V27.5351H1.16357ZM19.2147 29.1216C15.8654 29.1216 8.81415 26.3365 7.15711 25.7017V18.6152L21.8237 21.4709C22.3172 21.4709 22.7051 21.8588 22.7051 22.3523C22.7051 22.8459 22.3172 23.2337 21.8237 23.2337H13.609C13.2917 23.2337 13.0448 23.4806 13.0448 23.7979C13.0448 24.1151 13.2917 24.362 13.609 24.362H21.8589C22.564 24.362 23.1987 23.9742 23.5865 23.4101C24.221 23.1632 26.4777 22.3172 29.5449 21.6121C31.7307 21.1185 32.9999 21.753 33.5641 22.2114C31.2019 23.7273 22.4584 29.1216 19.2148 29.1216L19.2147 29.1216Z" fill="#172F5D"/>
<path d="M31.8014 6.06411C31.7309 5.85261 31.5545 5.71145 31.343 5.67628L26.2661 4.93578L26.2309 4.90061L23.9745 0.317248C23.8688 0.140917 23.6925 0 23.481 0C23.2695 0 23.0931 0.105749 22.9874 0.317248L20.6959 4.93574L15.6189 5.67625C15.4074 5.71141 15.2311 5.85258 15.1605 6.06408C15.0899 6.27558 15.1605 6.48708 15.3014 6.62823L18.9679 10.2244L18.0865 15.3014C18.0514 15.5129 18.1217 15.7244 18.298 15.8301C18.4744 15.9359 18.6859 15.971 18.8974 15.8653L23.4453 13.468L28.0643 15.9005C28.2406 16.0062 28.4873 15.9711 28.6636 15.8653C28.8399 15.7244 28.9105 15.5481 28.8751 15.3366L27.9937 10.2596L31.6602 6.66342C31.8368 6.48709 31.8719 6.27559 31.8014 6.0641L31.8014 6.06411ZM27.0066 9.66031C26.8657 9.80122 26.8303 9.97755 26.8303 10.1539L27.5708 14.42L23.7631 12.4103C23.6222 12.3397 23.4105 12.3397 23.2344 12.4103L19.4267 14.42L20.1672 10.1539C20.2024 9.97755 20.1321 9.80122 19.9909 9.66031L16.8883 6.66341L21.1544 6.02892C21.3307 5.99375 21.5071 5.888 21.5774 5.71167L23.4811 1.83337L25.3848 5.71167C25.4554 5.888 25.6317 5.99375 25.8078 6.02892L30.0739 6.66341L27.0066 9.66031Z" fill="#172F5D"/>
</svg>
