<svg width="121" height="145" viewBox="0 0 121 145" fill="none" xmlns="http://www.w3.org/2000/svg">
<path d="M110 49.9995C110 77.6139 87.6139 100 60.0002 100C32.3858 100 10 77.6139 10 49.9995C10 22.385 32.3858 -2.9929e-06 60.0002 -2.9929e-06C87.6139 -2.9929e-06 110 22.385 110 49.9995Z" fill="#04AADE" fill-opacity="0.13"/>
<path d="M101.357 49.5437C101.357 72.6141 82.6545 91.3164 59.585 91.3164C36.5145 91.3164 17.8125 72.6141 17.8125 49.5437C17.8125 26.4734 36.5145 7.7721 59.585 7.7721C82.6545 7.7721 101.357 26.4734 101.357 49.5437Z" fill="white"/>
<path d="M119.316 61.1629C118.322 92.8007 92.3798 118.147 60.5004 118.147C28.621 118.147 2.67831 92.8007 1.68415 61.1629H0C0.99553 93.7307 27.6911 119.832 60.5004 119.832C93.3098 119.832 120.005 93.7307 121 61.1629H119.316Z" fill="#CEE0E6"/>
<path d="M61.3464 118.262V144.922H59.6172V118.262H61.3464Z" fill="#CEE0E6"/>
<path d="M80.2738 56.4977H60.0861C59.8994 56.4977 59.7204 56.4236 59.5884 56.2915C59.4564 56.1595 59.3822 55.9805 59.3822 55.7938C59.3822 55.6071 59.4564 55.4281 59.5884 55.296C59.7204 55.164 59.8994 55.0899 60.0861 55.0899H80.2738C80.4605 55.0899 80.6396 55.0157 80.7716 54.8837C80.9036 54.7517 80.9777 54.5726 80.9777 54.386V37.1118C80.9777 36.9251 80.9036 36.746 80.7716 36.614C80.6396 36.482 80.4605 36.4078 80.2738 36.4078H54.3696C54.1829 36.4078 54.0038 36.482 53.8718 36.614C53.7398 36.746 53.6657 36.9251 53.6657 37.1118V40.4131C53.6657 40.5998 53.5915 40.7789 53.4595 40.9109C53.3275 41.0429 53.1484 41.1171 52.9617 41.1171C52.775 41.1171 52.596 41.0429 52.464 40.9109C52.332 40.7789 52.2578 40.5998 52.2578 40.4131V37.1118C52.2578 36.5517 52.4803 36.0146 52.8763 35.6185C53.2724 35.2225 53.8095 35 54.3696 35H80.2738C80.8339 35 81.371 35.2225 81.7671 35.6185C82.1631 36.0146 82.3856 36.5517 82.3856 37.1118V54.386C82.3856 54.946 82.1631 55.4832 81.7671 55.8792C81.371 56.2752 80.8339 56.4977 80.2738 56.4977Z" fill="#172F5D" stroke="#172F5D" stroke-width="0.5"/>
<path d="M57.9716 62.292H49.3838C49.1971 62.292 49.0181 62.2178 48.8861 62.0858C48.754 61.9538 48.6799 61.7748 48.6799 61.5881C48.6799 61.4014 48.754 61.2223 48.8861 61.0903C49.0181 60.9583 49.1971 60.8841 49.3838 60.8841H57.9716C58.345 60.8841 58.7031 60.7358 58.9671 60.4718C59.2311 60.2078 59.3795 59.8497 59.3795 59.4763V42.5266C59.3795 42.1532 59.2311 41.7951 58.9671 41.5311C58.7031 41.2671 58.345 41.1188 57.9716 41.1188H45.0969C44.7235 41.1188 44.3655 41.2671 44.1014 41.5311C43.8374 41.7951 43.6891 42.1532 43.6891 42.5266V48.0876C43.6891 48.2743 43.6149 48.4533 43.4829 48.5853C43.3509 48.7173 43.1719 48.7915 42.9852 48.7915C42.7985 48.7915 42.6194 48.7173 42.4874 48.5853C42.3554 48.4533 42.2812 48.2743 42.2812 48.0876V42.5266C42.2812 41.7799 42.5779 41.0637 43.1059 40.5356C43.634 40.0076 44.3502 39.7109 45.0969 39.7109H57.9716C58.7184 39.7109 59.4346 40.0076 59.9626 40.5356C60.4907 41.0637 60.7873 41.7799 60.7873 42.5266V59.4763C60.7873 60.2231 60.4907 60.9392 59.9626 61.4673C59.4346 61.9953 58.7184 62.292 57.9716 62.292Z" fill="#172F5D" stroke="#172F5D" stroke-width="0.5"/>
<path d="M47.596 64.2111H42.4968C41.8349 64.2102 41.2004 63.9468 40.7323 63.4788C40.2643 63.0107 40.0009 62.3762 40 61.7143V49.8885C39.9996 49.2257 40.2624 48.5899 40.7306 48.1208C41.1988 47.6517 41.834 47.3877 42.4968 47.3867H47.596C48.258 47.3877 48.8927 47.6511 49.3607 48.1193C49.8288 48.5875 50.0921 49.2222 50.0928 49.8842V61.7143C50.0919 62.3762 49.8285 63.0107 49.3605 63.4788C48.8924 63.9468 48.2579 64.2102 47.596 64.2111ZM42.4968 48.7946C42.208 48.7949 41.9311 48.9099 41.727 49.1142C41.5228 49.3185 41.408 49.5954 41.4078 49.8842V61.7143C41.4082 62.003 41.5231 62.2798 41.7272 62.4839C41.9313 62.688 42.2081 62.8029 42.4968 62.8033H47.596C47.8847 62.8029 48.1615 62.688 48.3656 62.4839C48.5697 62.2798 48.6846 62.003 48.685 61.7143V49.8885C48.6848 49.5996 48.57 49.3227 48.3659 49.1184C48.1617 48.9141 47.8848 48.7992 47.596 48.7988L42.4968 48.7946ZM52.2391 60.2783C52.1466 60.2803 52.0548 60.2625 51.9698 60.2261C51.8848 60.1897 51.8086 60.1355 51.7463 60.0671C51.6792 60.0039 51.6259 59.9275 51.5895 59.8427C51.5532 59.7579 51.5347 59.6666 51.5351 59.5744C51.5371 59.3865 51.6129 59.207 51.7463 59.0746C51.8278 58.9928 51.9284 58.9325 52.039 58.8994C52.1496 58.8662 52.2668 58.8611 52.3798 58.8845C52.4232 58.8927 52.4658 58.9042 52.5073 58.919C52.5515 58.9387 52.5939 58.9623 52.634 58.9894C52.6709 59.0154 52.7061 59.0436 52.7395 59.0739C52.803 59.1428 52.8552 59.2212 52.8944 59.3062C52.9284 59.3912 52.9451 59.4821 52.9437 59.5737C52.9454 59.6654 52.9282 59.7566 52.893 59.8414C52.8579 59.9262 52.8057 60.0028 52.7395 60.0664C52.6754 60.1346 52.5978 60.1886 52.5116 60.2251C52.4254 60.2616 52.3326 60.2797 52.2391 60.2783ZM67.3241 54.3091C67.2309 54.3087 67.1388 54.2898 67.053 54.2536C66.9672 54.2173 66.8895 54.1644 66.8243 54.0979C66.7587 54.0335 66.7061 53.957 66.6694 53.8726C66.6346 53.7854 66.6178 53.692 66.6201 53.5981C66.6192 53.5065 66.6367 53.4155 66.6718 53.3309C66.7069 53.2462 66.7588 53.1695 66.8243 53.1054C66.9234 53.008 67.0487 52.9415 67.1849 52.914C67.3211 52.8866 67.4624 52.8992 67.5916 52.9505C67.6772 52.9848 67.7541 53.0377 67.8168 53.1054C67.8833 53.1691 67.9362 53.2456 67.9725 53.3303C68.0088 53.4149 68.0276 53.506 68.028 53.5981C68.0276 53.6924 68.0085 53.7858 67.9717 53.8726C67.9376 53.9584 67.8846 54.0354 67.8168 54.0979C67.7532 54.1646 67.6768 54.2177 67.5921 54.254C67.5074 54.2903 67.4162 54.3091 67.3241 54.3091Z" fill="#172F5D" stroke="#172F5D" stroke-width="0.5"/>
<path d="M45.0477 49.6294C44.861 49.6294 44.6819 49.5552 44.5499 49.4232C44.4179 49.2912 44.3438 49.1122 44.3438 48.9255V48.0906C44.3438 47.9039 44.4179 47.7249 44.5499 47.5929C44.6819 47.4609 44.861 47.3867 45.0477 47.3867C45.2344 47.3867 45.4134 47.4609 45.5454 47.5929C45.6774 47.7249 45.7516 47.9039 45.7516 48.0906V48.9255C45.7516 49.1122 45.6774 49.2912 45.5454 49.4232C45.4134 49.5552 45.2344 49.6294 45.0477 49.6294ZM71.6601 61.7009C71.5415 61.7011 71.4248 61.6713 71.3208 61.6143C71.2168 61.5574 71.1289 61.475 71.0653 61.375C69.844 59.4554 69.7482 55.9626 69.7447 55.814C69.7405 55.6276 69.8106 55.4471 69.9394 55.3122C70.0682 55.1773 70.2453 55.0991 70.4317 55.0946H70.4486C70.6323 55.0946 70.8087 55.1663 70.9402 55.2946C71.0718 55.4228 71.1479 55.5973 71.1525 55.781C71.1525 55.814 71.2426 59.0317 72.2535 60.619C72.3212 60.7254 72.3591 60.848 72.3632 60.9741C72.3673 61.1001 72.3375 61.2249 72.2768 61.3355C72.2162 61.4461 72.127 61.5383 72.0185 61.6026C71.91 61.6669 71.7862 61.7009 71.6601 61.7009ZM62.9878 61.7009C62.8617 61.7009 62.7379 61.6669 62.6294 61.6026C62.5209 61.5383 62.4316 61.4461 62.371 61.3355C62.3104 61.2249 62.2805 61.1001 62.2846 60.9741C62.2887 60.848 62.3266 60.7254 62.3944 60.619C63.4045 59.0317 63.4946 55.8133 63.4953 55.781C63.4999 55.5973 63.5761 55.4228 63.7076 55.2946C63.8391 55.1663 64.0155 55.0946 64.1992 55.0946H64.2161C64.4026 55.0991 64.5797 55.1773 64.7085 55.3122C64.8373 55.4471 64.9073 55.6276 64.9031 55.814C64.9031 55.9619 64.8032 59.4547 63.5826 61.375C63.5189 61.475 63.431 61.5574 63.327 61.6143C63.223 61.6713 63.1063 61.7011 62.9878 61.7009Z" fill="#172F5D" stroke="#172F5D" stroke-width="0.5"/>
<path d="M72.8346 61.6969H61.8133C61.6266 61.6969 61.4476 61.6227 61.3155 61.4907C61.1835 61.3587 61.1094 61.1797 61.1094 60.993C61.1094 60.8063 61.1835 60.6272 61.3155 60.4952C61.4476 60.3632 61.6266 60.2891 61.8133 60.2891H72.8346C73.0213 60.2891 73.2003 60.3632 73.3323 60.4952C73.4643 60.6272 73.5385 60.8063 73.5385 60.993C73.5385 61.1797 73.4643 61.3587 73.3323 61.4907C73.2003 61.6227 73.0213 61.6969 72.8346 61.6969Z" fill="#172F5D" stroke="#172F5D" stroke-width="0.5"/>
</svg>
