<svg width="121" height="145" viewBox="0 0 121 145" fill="none" xmlns="http://www.w3.org/2000/svg">
<path d="M110 49.9995C110 77.6139 87.6139 100 60.0002 100C32.3858 100 10 77.6139 10 49.9995C10 22.385 32.3858 -2.9929e-06 60.0002 -2.9929e-06C87.6139 -2.9929e-06 110 22.385 110 49.9995Z" fill="#04AADE" fill-opacity="0.13"/>
<path d="M101.357 49.5437C101.357 72.6141 82.6545 91.3164 59.585 91.3164C36.5145 91.3164 17.8125 72.6141 17.8125 49.5437C17.8125 26.4734 36.5145 7.7721 59.585 7.7721C82.6545 7.7721 101.357 26.4734 101.357 49.5437Z" fill="white"/>
<path d="M119.316 61.1629C118.322 92.8007 92.3798 118.147 60.5004 118.147C28.621 118.147 2.67831 92.8007 1.68415 61.1629H0C0.99553 93.7307 27.6911 119.832 60.5004 119.832C93.3098 119.832 120.005 93.7307 121 61.1629H119.316Z" fill="#CEE0E6"/>
<path d="M61.3464 118.262V144.922H59.6172V118.262H61.3464Z" fill="#CEE0E6"/>
<path fill-rule="evenodd" clip-rule="evenodd" d="M59.9996 33C52.3765 33 46.1875 39.1894 46.1875 46.8121C46.1875 54.4349 52.3769 60.6243 59.9996 60.6243C67.6224 60.6243 73.8118 54.4349 73.8118 46.8121C73.8118 39.1894 67.6224 33 59.9996 33ZM59.9996 34.4167C66.8414 34.4167 72.3951 39.9707 72.3951 46.8121C72.3951 53.6535 66.841 59.2076 59.9996 59.2076C53.1582 59.2076 47.6042 53.6535 47.6042 46.8121C47.6042 39.9707 53.1582 34.4167 59.9996 34.4167Z" fill="#172F5D"/>
<path fill-rule="evenodd" clip-rule="evenodd" d="M48.0851 53.0463L43.1091 60.9578C42.9617 61.1909 42.9639 61.4885 43.1141 61.7199C43.2643 61.9514 43.535 62.0747 43.8082 62.0358L48.2777 61.3996L50.8654 66.6081C50.9944 66.8668 51.267 67.0217 51.5554 66.9989C51.8437 66.9762 52.0895 66.7807 52.1758 66.5053L54.6401 58.6583C54.7571 58.2851 54.5493 57.887 54.1762 57.77C53.8036 57.653 53.4055 57.8607 53.2885 58.2332L51.3513 64.4014L49.319 60.3108C49.183 60.0373 48.8877 59.8817 48.5851 59.9247L45.1212 60.4177L49.2839 53.8005C49.4923 53.4697 49.3924 53.032 49.0616 52.8237C48.7309 52.6153 48.2932 52.7152 48.0848 53.046L48.0851 53.0463Z" fill="#172F5D"/>
<path fill-rule="evenodd" clip-rule="evenodd" d="M70.7169 53.8001L74.8796 60.4173L71.4157 59.9243C71.1134 59.881 70.8178 60.0369 70.6818 60.3104L68.6495 64.401L66.7123 58.2329C66.5953 57.8604 66.1975 57.6526 65.8246 57.7696C65.4515 57.8866 65.2437 58.2844 65.3607 58.6579L67.825 66.5049C67.9113 66.7804 68.1574 66.9761 68.4454 66.9986C68.7338 67.0213 69.0064 66.8661 69.1354 66.6077L71.7231 61.3992L76.1926 62.0355C76.4661 62.0744 76.7365 61.951 76.8867 61.7196C77.0369 61.4881 77.0391 61.1905 76.8917 60.9575L71.9156 53.046C71.7073 52.7152 71.2696 52.6153 70.9389 52.8237C70.6081 53.0321 70.5082 53.4697 70.7166 53.8005L70.7169 53.8001Z" fill="#172F5D"/>
<path fill-rule="evenodd" clip-rule="evenodd" d="M60.6547 38.3923C60.5434 38.1307 60.2863 37.9609 60.0023 37.9609C59.7184 37.9609 59.4613 38.1311 59.35 38.3923L57.3346 43.1432L52.1935 43.5922C51.9102 43.6169 51.6692 43.8089 51.5816 44.0789C51.4937 44.3496 51.5759 44.6462 51.7906 44.8325L55.6858 48.2176L54.524 53.2461C54.4601 53.5231 54.568 53.8115 54.7982 53.9785C55.0277 54.1458 55.3357 54.159 55.5795 54.0126L60.0026 51.3541L64.4256 54.0126C64.6694 54.1594 64.9774 54.1458 65.2069 53.9785C65.4371 53.8112 65.5447 53.5231 65.4811 53.2461L64.3193 48.2176L68.2145 44.8325C68.4292 44.6462 68.5114 44.3493 68.4235 44.0789C68.3356 43.8092 68.0949 43.6172 67.8116 43.5922L62.6705 43.1432L60.6551 38.3923H60.6547ZM60.0023 40.4825L61.5322 44.0887C61.6349 44.3296 61.8617 44.4947 62.1229 44.5171L66.0244 44.8577L63.0683 47.4276C62.87 47.599 62.7837 47.8662 62.8422 48.1217L63.7242 51.9382L60.3665 49.9201C60.142 49.7847 59.8615 49.7847 59.637 49.9201L56.2793 51.9382L57.1613 48.1217C57.2201 47.8659 57.1338 47.599 56.9352 47.4276L53.9791 44.8577L57.8807 44.5171C58.1422 44.4944 58.3686 44.3293 58.4714 44.0887L60.0012 40.4825H60.0023Z" fill="#172F5D"/>
</svg>
