<svg width="121" height="145" viewBox="0 0 121 145" fill="none" xmlns="http://www.w3.org/2000/svg">
<path d="M110 49.9995C110 77.6139 87.6139 100 60.0002 100C32.3858 100 10 77.6139 10 49.9995C10 22.385 32.3858 -2.9929e-06 60.0002 -2.9929e-06C87.6139 -2.9929e-06 110 22.385 110 49.9995Z" fill="#04AADE" fill-opacity="0.13"/>
<path d="M101.357 49.5437C101.357 72.6141 82.6545 91.3164 59.585 91.3164C36.5145 91.3164 17.8125 72.6141 17.8125 49.5437C17.8125 26.4734 36.5145 7.7721 59.585 7.7721C82.6545 7.7721 101.357 26.4734 101.357 49.5437Z" fill="white"/>
<path d="M119.316 61.1629C118.322 92.8007 92.3798 118.147 60.5004 118.147C28.621 118.147 2.67831 92.8007 1.68415 61.1629H0C0.99553 93.7307 27.6911 119.832 60.5004 119.832C93.3098 119.832 120.005 93.7307 121 61.1629H119.316Z" fill="#CEE0E6"/>
<path d="M61.3464 118.262V144.922H59.6172V118.262H61.3464Z" fill="#CEE0E6"/>
<path d="M78.3671 42.3998H76.4681V31.6333C76.4681 31.4654 76.4014 31.3042 76.2828 31.1855C76.1641 31.0667 76.003 31 75.8352 31H66.4043C66.1661 31.0008 65.9483 31.1354 65.8409 31.3483C65.7324 31.5629 65.7544 31.8205 65.898 32.0133L67.512 34.1666L65.898 36.3199C65.7668 36.5054 65.7451 36.7471 65.8409 36.9532C65.9392 37.1786 66.1588 37.3267 66.4043 37.3332H75.2022V42.3998H72.6703C72.4162 42.4001 72.1871 42.5522 72.0879 42.786L67.3911 53.952L60.4601 46.9855C60.3106 46.837 60.097 46.7728 59.8904 46.8144C59.6827 46.8557 59.5092 46.9982 59.4284 47.1944L53.4595 61.5516L47.8005 55.8517C47.655 55.7061 47.4479 55.6408 47.2453 55.6761C47.0424 55.7112 46.8697 55.843 46.7816 56.029L41.0848 68.0621C40.9717 68.258 40.9717 68.4995 41.0848 68.6954C41.2049 68.8933 41.4233 69.0098 41.6545 68.9994H78.367C78.5349 68.9994 78.6959 68.9326 78.8146 68.8139C78.9333 68.6951 79 68.534 79 68.366V43.0332C79 42.8652 78.9333 42.7041 78.8146 42.5853C78.6959 42.4666 78.5349 42.3998 78.3671 42.3998ZM67.6703 36.0666L68.8096 34.5466C68.9783 34.3215 68.9783 34.0117 68.8096 33.7866L67.6703 32.2666H75.2022V36.0666H67.6703ZM73.0879 43.6664H77.7341V54.4329H75.8352C75.6671 54.432 75.5051 54.4979 75.3859 54.6167L73.0439 56.9662H70.3978L68.3534 54.9206L73.0879 43.6664ZM42.6545 67.7326L47.5411 57.4157L57.8525 67.7326H42.6545ZM54.4278 62.5204L60.2322 48.5874L69.6893 58.0872C69.8144 58.1918 69.9755 58.2441 70.1385 58.2328H73.3034C73.4716 58.2336 73.6335 58.1678 73.7527 58.049L76.0947 55.6995H77.7342V64.566H75.4618L71.2208 60.3165C71.0809 60.1777 70.8843 60.1121 70.6893 60.139C70.4957 60.1655 70.325 60.2801 70.2273 60.4494L65.9798 67.7323H59.6501L54.4278 62.5204ZM77.7343 67.7326H67.4425L70.9049 61.7922L74.7533 65.6492C74.8726 65.7679 75.0345 65.8335 75.2026 65.8327H77.7345L77.7343 67.7326Z" fill="#172F5D" stroke="#172F5D" stroke-width="0.5"/>
</svg>
