<svg width="121" height="145" viewBox="0 0 121 145" fill="none" xmlns="http://www.w3.org/2000/svg">
<path d="M110 49.9995C110 77.6139 87.6139 100 60.0002 100C32.3858 100 10 77.6139 10 49.9995C10 22.385 32.3858 -2.9929e-06 60.0002 -2.9929e-06C87.6139 -2.9929e-06 110 22.385 110 49.9995Z" fill="#04AADE" fill-opacity="0.13"/>
<path d="M101.357 49.5437C101.357 72.6141 82.6545 91.3164 59.585 91.3164C36.5145 91.3164 17.8125 72.6141 17.8125 49.5437C17.8125 26.4734 36.5145 7.7721 59.585 7.7721C82.6545 7.7721 101.357 26.4734 101.357 49.5437Z" fill="white"/>
<path d="M119.316 61.1629C118.322 92.8007 92.3798 118.147 60.5004 118.147C28.621 118.147 2.67831 92.8007 1.68415 61.1629H0C0.99553 93.7307 27.6911 119.832 60.5004 119.832C93.3098 119.832 120.005 93.7307 121 61.1629H119.316Z" fill="#CEE0E6"/>
<path d="M61.3464 118.262V144.922H59.6172V118.262H61.3464Z" fill="#CEE0E6"/>
<path d="M53.4812 54.1906C52.068 52.5956 51.2831 50.5392 51.2732 48.4059C51.2763 46.923 51.6598 45.4657 52.3871 44.1745C52.3762 44.1272 52.3685 44.0792 52.3641 44.0308V39.9593L48.6861 38.4841C48.4146 38.3751 48.1982 38.1617 48.0854 37.8911C47.9725 37.6206 47.9725 37.3163 48.0854 37.0457C48.1982 36.7755 48.4146 36.5618 48.6861 36.4528L59.5949 32.0777C59.8554 31.9741 60.1453 31.9741 60.4058 32.0777L71.3146 36.4528C71.586 36.5618 71.8025 36.7755 71.9153 37.0457C72.0282 37.3163 72.0282 37.6206 71.9153 37.8911C71.8025 38.1617 71.586 38.3751 71.3146 38.4841L67.6366 39.9593V44.0308C67.6322 44.0792 67.6245 44.1272 67.6136 44.1745C68.3409 45.4656 68.7244 46.923 68.7274 48.4059C68.7176 50.5392 67.9327 52.5956 66.5194 54.1906C68.1001 54.6586 69.4876 55.626 70.4752 56.9488C71.4628 58.2715 71.9975 59.8788 72 61.5312V65.9063C72 66.1963 71.8852 66.4746 71.6806 66.6797C71.4759 66.8846 71.1984 67 70.9091 67H49.0909C48.8016 67 48.5241 66.8846 48.3194 66.6797C48.1148 66.4746 48 66.1963 48 65.9063V61.5312C48.0025 59.8788 48.5372 58.2716 49.5248 56.9488C50.5123 55.626 51.8999 54.6587 53.4806 54.1906H53.4812ZM60.0006 34.2716L52.0282 37.4684L60.0006 40.6654L67.9731 37.4684L60.0006 34.2716ZM60.4061 42.8596V42.8594C60.1458 42.9635 59.8554 42.9635 59.5952 42.8594L54.5461 40.8345V43.2431L60.0006 45.0657L65.4552 43.2431V40.8345L60.4061 42.8596ZM65.8228 45.4258L60.3458 47.2564C60.1217 47.3311 59.8795 47.3311 59.6554 47.2564L54.1784 45.4258V45.4255C53.4401 46.8606 53.2593 48.5196 53.6713 50.0807C54.0833 51.6419 55.0588 52.9938 56.4085 53.8749H63.5927C64.9424 52.9938 65.9179 51.6419 66.33 50.0807C66.742 48.5196 66.5612 46.8606 65.8229 45.4255L65.8228 45.4258ZM50.1823 64.8125H69.8188V61.5311C69.8172 60.0812 69.2419 58.6911 68.2192 57.6661C67.1969 56.6408 65.8104 56.064 64.3642 56.0623H55.6365C54.1903 56.064 52.8038 56.6408 51.7815 57.6661C50.7588 58.6911 50.1836 60.0812 50.1819 61.5311L50.1823 64.8125Z" fill="#172F5D" stroke="white" stroke-width="0.5"/>
</svg>
