<svg width="142" height="162" viewBox="0 0 142 162" fill="none" xmlns="http://www.w3.org/2000/svg">
<path d="M71.21 131.665V161.881H69.1953V131.665H71.21Z" fill="#B8BBD2"/>
<path d="M139.076 64.2495C137.917 101.127 107.679 130.671 70.52 130.671C33.3613 130.671 3.12266 101.127 1.964 64.2495H0C1.16 102.211 32.2773 132.635 70.52 132.635C108.761 132.635 139.879 102.211 141.04 64.2495H139.076Z" fill="#B8BBD2"/>
<path d="M132.142 62.0592C132.142 96.3338 104.358 124.119 70.0835 124.119C35.8088 124.119 8.02344 96.3338 8.02344 62.0592C8.02344 27.7845 35.8088 0.000463127 70.0835 0.000463127C104.358 0.000463127 132.142 27.7845 132.142 62.0592Z" fill="#D6DAE4" fill-opacity="0.6"/>
<path d="M121.826 62.0588C121.826 90.6361 98.6599 113.803 70.0839 113.803C41.5065 113.803 18.3398 90.6361 18.3398 62.0588C18.3398 33.4814 41.5065 10.3161 70.0839 10.3161C98.6599 10.3161 121.826 33.4814 121.826 62.0588Z" fill="white"/>
<path fill-rule="evenodd" clip-rule="evenodd" d="M69 42C56.8577 42 47 51.8577 47 64C47 76.1423 56.8577 86 69 86C81.1423 86 91 76.1423 91 64C91 51.8577 81.1423 42 69 42ZM69 43.4667C73.8884 43.4667 78.3733 45.174 81.8974 48.0212C78.6934 48.8292 77.1677 51.4986 77.0662 53.7333C77.0662 54.9398 78.0598 55.9333 79.2662 55.9333H87.8886C88.0932 56.4123 88.2759 56.903 88.4441 57.4H79.9986C76.7674 57.4 74.132 60.0354 74.132 63.2667C74.132 65.283 75.7823 66.9333 77.7986 66.9333H79.887C80.913 66.9333 81.7995 67.6251 82.0484 68.6207L84.3129 77.6813C80.5542 81.8865 75.0888 84.5334 68.9984 84.5334C57.6498 84.5334 48.4651 75.3487 48.4651 64.0001C48.4651 62.0807 48.7342 60.2257 49.2256 58.4644L54.4578 63.6966C54.9538 64.1926 55.6858 64.2869 56.2496 64.0531C56.8136 63.8197 57.2651 63.235 57.2651 62.5334V60.6355C57.2651 60.4597 57.3918 60.3334 57.5673 60.3334H59.8962C60.7536 60.3334 61.576 59.9929 62.1823 59.3866L68.2654 53.3035C68.7348 52.834 68.9987 52.197 68.9987 51.533C68.9987 49.5167 67.3484 47.8664 65.332 47.8664H56.2974C59.7915 45.1128 64.1997 43.4664 68.9987 43.4664L69 43.4667ZM83.3582 49.3219C84.8888 50.8189 86.1842 52.5535 87.1883 54.4667H79.266C78.8591 54.4667 78.55 54.1543 78.5399 53.7507C78.7268 51.2125 80.8404 49.2882 83.3579 49.3219H83.3582ZM54.6292 49.3333H65.3325C66.5563 49.3333 67.5325 50.3095 67.5325 51.5333C67.5325 51.8086 67.4235 52.0719 67.229 52.2666L61.1459 58.3497C60.8143 58.6813 60.3658 58.8666 59.897 58.8666H57.568C56.5996 58.8666 55.7992 59.6671 55.7992 60.6354V62.5333C55.7992 62.6436 55.7593 62.6688 55.6889 62.698C55.6185 62.7271 55.5737 62.7373 55.4954 62.6593L49.7277 56.8916C50.789 54.0116 52.4796 51.4397 54.6288 49.333L54.6292 49.3333ZM79.9992 58.8666H88.8863C89.3077 60.5071 89.5322 62.2272 89.5322 64C89.5322 68.601 88.023 72.8461 85.4718 76.268L83.4708 68.2659C83.0606 66.6247 81.5789 65.4671 79.8873 65.4671H77.7989C76.5751 65.4671 75.5989 64.4909 75.5989 63.2671C75.5989 60.8284 77.5602 58.8671 79.9989 58.8671L79.9992 58.8666ZM60.4095 64C59.2149 64.0141 58.0671 64.7356 57.6065 65.9335L56.6755 68.3541C56.3654 69.1605 56.5668 70.0798 57.1852 70.6831L58.4155 71.882C58.9456 72.3989 59.2435 73.1067 59.2435 73.8473V77.4108C59.2435 78.0545 59.4668 78.6778 59.875 79.1755L61.3259 80.9443C62.1368 81.9323 63.7495 81.7784 64.3594 80.6548L69.4456 71.2891C70.0667 70.1453 69.6447 68.6943 68.5074 68.0608L61.8988 64.3784C61.4667 64.1384 60.992 64.0061 60.4093 64.0002L60.4095 64ZM61.1857 65.6602L67.7943 69.3412C68.2441 69.5917 68.4022 70.1365 68.1567 70.5889L63.0705 79.9563C62.933 80.2094 62.6429 80.2362 62.4602 80.0136L61.0093 78.2461C60.8162 78.0107 60.7101 77.7157 60.7101 77.4109V73.8473C60.7101 72.712 60.2511 71.6234 59.4382 70.8309L58.2092 69.632C58.0076 69.4352 57.9434 69.1429 58.0446 68.88L58.9756 66.461C59.1478 66.0131 59.4906 65.6952 59.8952 65.5485C60.3608 65.377 60.7975 65.4592 61.1857 65.6602Z" fill="#172F5D" stroke="#172F5D" stroke-width="0.3"/>
</svg>
