<svg width="142" height="162" viewBox="0 0 142 162" fill="none" xmlns="http://www.w3.org/2000/svg">
<path d="M71.21 131.665V161.881H69.1953V131.665H71.21Z" fill="#B8BBD2"/>
<path d="M139.076 64.2495C137.917 101.127 107.679 130.671 70.52 130.671C33.3613 130.671 3.12266 101.127 1.964 64.2495H0C1.16 102.211 32.2773 132.635 70.52 132.635C108.761 132.635 139.879 102.211 141.04 64.2495H139.076Z" fill="#B8BBD2"/>
<path d="M132.142 62.0592C132.142 96.3338 104.358 124.119 70.0835 124.119C35.8088 124.119 8.02344 96.3338 8.02344 62.0592C8.02344 27.7845 35.8088 0.000463127 70.0835 0.000463127C104.358 0.000463127 132.142 27.7845 132.142 62.0592Z" fill="#D6DAE4" fill-opacity="0.6"/>
<path d="M121.826 62.0588C121.826 90.6361 98.6599 113.803 70.0839 113.803C41.5065 113.803 18.3398 90.6361 18.3398 62.0588C18.3398 33.4814 41.5065 10.3161 70.0839 10.3161C98.6599 10.3161 121.826 33.4814 121.826 62.0588Z" fill="white"/>
<path d="M74.9565 48.9633C76.5237 48.9766 78.022 49.6085 79.1254 50.7211C80.2287 51.8342 80.8478 53.3378 80.8478 54.9049C80.8478 55.3052 81.0069 55.6895 81.29 55.9729C81.5734 56.2564 81.9577 56.4155 82.3581 56.4155C82.763 56.4295 83.1553 56.275 83.442 55.9887C83.7282 55.7021 83.8831 55.3095 83.8687 54.9048C83.8687 52.5366 82.9313 50.2646 81.2616 48.585C79.5916 46.9058 77.3248 45.9558 74.9565 45.9424C74.5561 45.9424 74.1719 46.1015 73.8884 46.3846C73.6053 46.668 73.4462 47.0522 73.4462 47.453C73.4318 47.8576 73.5864 48.2503 73.873 48.5365C74.1592 48.8231 74.5519 48.9777 74.9565 48.9633Z" fill="#172F5D" stroke="white"/>
<path d="M89.862 54.7029C89.862 50.8037 88.313 47.0642 85.5556 44.3072C82.7985 41.5502 79.0587 40.0009 75.1599 40.0009C74.755 39.9868 74.3627 40.1414 74.0761 40.4276C73.7898 40.7142 73.6353 41.1069 73.6493 41.5115C73.6493 41.9122 73.8084 42.2965 74.0919 42.5796C74.3749 42.863 74.7592 43.0221 75.1599 43.0221C78.258 43.0221 81.2294 44.2528 83.4199 46.4434C85.6104 48.6343 86.8412 51.6052 86.8412 54.7033C86.8412 55.1041 87.0003 55.4883 87.2837 55.7718C87.5671 56.0549 87.9514 56.214 88.3518 56.214C88.7483 56.2013 89.1255 56.0384 89.4062 55.7577C89.6864 55.4771 89.8498 55.1002 89.8624 54.7033L89.862 54.7029Z" fill="#172F5D" stroke="white"/>
<path d="M51.2427 82.2954C51.5086 82.7355 51.9869 83.0034 52.5015 83.0003H64.9381C65.9131 83.0024 66.8561 82.6508 67.592 82.0105C68.3274 81.3702 68.8058 80.4848 68.9382 79.5186C69.0707 78.5524 68.848 77.5711 68.3117 76.7566L67.2039 75.1452V75.1455C68.0384 75.2625 68.8789 75.3296 69.7215 75.3468C71.6774 75.3454 73.6141 74.958 75.42 74.206C77.226 73.4543 78.8655 72.3533 80.2447 70.9663C80.511 70.6794 80.6553 70.3001 80.6476 69.9088C80.6455 69.5193 80.5025 69.1435 80.2447 68.8516L71.8361 60.4933L75.6627 56.5659C76.0406 56.1792 76.1832 55.62 76.0375 55.0995C75.8914 54.579 75.4787 54.1758 74.9547 54.0423C74.431 53.9085 73.8757 54.0641 73.4978 54.4511L69.7215 58.3282L61.3129 49.9699C61.0372 49.6805 60.6551 49.5165 60.2553 49.5165C59.8557 49.5165 59.4735 49.6805 59.1981 49.9699C56.8022 52.3565 55.2954 55.4918 54.9291 58.8537C54.5628 62.2156 55.3583 65.6017 57.1839 68.4482L51.1419 80.8346V80.8342C50.9217 81.3059 50.9596 81.8577 51.2427 82.2946L51.2427 82.2954ZM60.3059 53.2429L76.972 69.8587C73.8988 72.1813 69.8903 72.8697 66.2176 71.7061C62.5452 70.5426 59.6652 67.671 58.4904 64.0021C57.3156 60.3336 57.992 56.323 60.3056 53.2432L60.3059 53.2429ZM59.2483 71.0671C60.2184 72.0028 61.3008 72.8148 62.4708 73.4842L65.794 78.4185C65.9889 78.7395 66.0079 79.1378 65.8442 79.4761C65.6507 79.7904 65.3072 79.9815 64.9381 79.9794H54.9183L59.2483 71.0671Z" fill="#172F5D" stroke="white"/>
</svg>
