<svg width="142" height="162" viewBox="0 0 142 162" fill="none" xmlns="http://www.w3.org/2000/svg">
<path d="M71.21 131.665V161.881H69.1953V131.665H71.21Z" fill="#B8BBD2"/>
<path d="M139.076 64.2495C137.917 101.127 107.679 130.671 70.52 130.671C33.3613 130.671 3.12266 101.127 1.964 64.2495H0C1.16 102.211 32.2773 132.635 70.52 132.635C108.761 132.635 139.879 102.211 141.04 64.2495H139.076Z" fill="#B8BBD2"/>
<path d="M132.142 62.0592C132.142 96.3338 104.358 124.119 70.0835 124.119C35.8088 124.119 8.02344 96.3338 8.02344 62.0592C8.02344 27.7845 35.8088 0.000463127 70.0835 0.000463127C104.358 0.000463127 132.142 27.7845 132.142 62.0592Z" fill="#D6DAE4" fill-opacity="0.6"/>
<path d="M121.826 62.0588C121.826 90.6361 98.6599 113.803 70.0839 113.803C41.5065 113.803 18.3398 90.6361 18.3398 62.0588C18.3398 33.4814 41.5065 10.3161 70.0839 10.3161C98.6599 10.3161 121.826 33.4814 121.826 62.0588Z" fill="white"/>
<path d="M56.9793 49.8704H54.6876V53.0559H51.5137V55.3475H54.6876V58.5329H56.9793V55.3475H60.1647V53.0559H56.9793V49.8704ZM85.1668 49.2402C84.273 49.2402 83.5626 49.9621 83.5626 50.8444C83.5626 51.7267 84.2845 52.4486 85.1668 52.4486C86.0605 52.4486 86.771 51.7267 86.771 50.8444C86.771 49.9621 86.0491 49.2402 85.1668 49.2402ZM85.1668 55.9434C84.273 55.9434 83.5626 56.6652 83.5626 57.5475C83.5626 58.4298 84.2845 59.1517 85.1668 59.1517C86.0605 59.1517 86.771 58.4298 86.771 57.5475C86.771 56.6652 86.0491 55.9434 85.1668 55.9434ZM88.5241 52.5975C87.6303 52.5975 86.9199 53.3194 86.9199 54.2017C86.9199 55.084 87.6418 55.8059 88.5241 55.8059C89.4064 55.8059 90.1283 55.084 90.1283 54.2017C90.1283 53.3194 89.4064 52.5975 88.5241 52.5975ZM81.8095 52.5975C80.9158 52.5975 80.2053 53.3194 80.2053 54.2017C80.2053 55.084 80.9272 55.8059 81.8095 55.8059C82.6918 55.8059 83.4137 55.084 83.4137 54.2017C83.4137 53.3194 82.7033 52.5975 81.8095 52.5975Z" fill="#172F5D"/>
<path d="M85.1663 41.9414C81.9579 41.9414 78.8413 43.2247 76.5611 45.4935H64.4496C62.1579 43.2362 59.0527 41.9414 55.8444 41.9414C49.084 41.9414 43.584 47.4414 43.584 54.2018C43.584 59.5758 48.3392 81.0602 55.8444 81.0602C60.1527 81.0602 63.3038 74.2539 65.1944 68.5362C65.5628 67.4167 66.275 66.4419 67.2296 65.7507C68.1842 65.0594 69.3325 64.6869 70.5111 64.6862C72.9288 64.6862 75.06 66.2331 75.8277 68.5362C77.7184 74.2539 80.8809 81.0602 85.1777 81.0602C92.6944 81.0602 97.4382 59.5758 97.4382 54.2018C97.4267 47.4414 91.9267 41.9414 85.1663 41.9414ZM85.1663 78.7685C82.9777 78.7685 80.2277 74.5747 77.9934 67.8143C77.4758 66.2381 76.4737 64.8656 75.1302 63.8924C73.7866 62.9192 72.1701 62.395 70.5111 62.3945C67.1079 62.3945 64.0944 64.5716 63.0288 67.8143C60.7944 74.5747 58.0444 78.7685 55.8559 78.7685C50.9517 78.7685 45.8871 60.5268 45.8871 54.2018C45.8871 48.7018 50.3559 44.2331 55.8559 44.2331C58.6402 44.2331 61.2298 45.3674 63.1434 47.4185C63.3611 47.6477 63.659 47.7852 63.9798 47.7852H77.0538C77.3746 47.7852 77.6725 47.6477 77.8902 47.4185C79.8038 45.3674 82.3934 44.2331 85.1777 44.2331C90.6777 44.2331 95.1465 48.7018 95.1465 54.2018C95.135 60.5268 90.0704 78.7685 85.1663 78.7685Z" fill="#172F5D"/>
</svg>
