<svg width="142" height="162" viewBox="0 0 142 162" fill="none" xmlns="http://www.w3.org/2000/svg">
<path d="M71.21 131.665V161.881H69.1953V131.665H71.21Z" fill="#B8BBD2"/>
<path d="M139.076 64.2495C137.917 101.127 107.679 130.671 70.52 130.671C33.3613 130.671 3.12266 101.127 1.964 64.2495H0C1.16 102.211 32.2773 132.635 70.52 132.635C108.761 132.635 139.879 102.211 141.04 64.2495H139.076Z" fill="#B8BBD2"/>
<path d="M132.142 62.0592C132.142 96.3338 104.358 124.119 70.0835 124.119C35.8088 124.119 8.02344 96.3338 8.02344 62.0592C8.02344 27.7845 35.8088 0.000463127 70.0835 0.000463127C104.358 0.000463127 132.142 27.7845 132.142 62.0592Z" fill="#D6DAE4" fill-opacity="0.6"/>
<path d="M121.826 62.0588C121.826 90.6361 98.6599 113.803 70.0839 113.803C41.5065 113.803 18.3398 90.6361 18.3398 62.0588C18.3398 33.4814 41.5065 10.3161 70.0839 10.3161C98.6599 10.3161 121.826 33.4814 121.826 62.0588Z" fill="white"/>
<path d="M77.2002 60.9848H90.5276C92.0304 60.9848 93.2488 62.2031 93.2488 63.706C93.2488 65.2088 92.0305 66.4272 90.5276 66.4272H48.7212C47.2184 66.4272 46 65.209 46 63.706C46 62.2032 47.2182 60.9848 48.7212 60.9848H62.1345M65.6869 55.1715V37.5298C65.6869 36.6849 66.3719 36 67.2168 36H71.9494C72.7943 36 73.4792 36.685 73.4792 37.5298V55.1715" stroke="#172F5D" stroke-width="2.3" stroke-miterlimit="10" stroke-linecap="round" stroke-linejoin="round"/>
<path d="M73.479 39.6039C80.6077 40.5963 86.095 46.7165 86.095 54.1184V60.9848M53.0704 60.9847V54.1183C53.0704 46.7164 58.5579 40.5962 65.6865 39.6037M50.0195 69.1043V69.6865C50.0195 71.4776 51.4715 72.9295 53.2625 72.9295C56.1518 72.9295 57.5986 76.4228 55.5556 78.4656C54.2891 79.7321 54.2891 81.7854 55.5556 83.0519L55.9673 83.4636C57.2339 84.7302 59.2871 84.7302 60.5536 83.4636C62.5966 81.4207 66.0897 82.8676 66.0897 85.7567C66.0897 87.5478 67.5417 88.9997 69.3327 88.9997H69.915C71.706 88.9997 73.158 87.5478 73.158 85.7567C73.158 82.8675 76.6512 81.4207 78.6941 83.4636C79.9606 84.7302 82.0138 84.7302 83.2803 83.4636L83.6921 83.0519C84.9586 81.7854 84.9586 79.7321 83.6921 78.4656C81.6491 76.4226 83.096 72.9295 85.9852 72.9295C87.7762 72.9295 89.2282 71.4776 89.2282 69.6865V69.1043" stroke="#172F5D" stroke-width="2.3" stroke-miterlimit="10" stroke-linecap="round" stroke-linejoin="round"/>
<path d="M74.1998 69.3945C74.1998 71.9221 72.1509 73.971 69.6233 73.971C67.0958 73.971 65.0469 71.9221 65.0469 69.3945" stroke="#172F5D" stroke-width="2.3" stroke-miterlimit="10" stroke-linecap="round" stroke-linejoin="round"/>
</svg>
