<svg width="142" height="162" viewBox="0 0 142 162" fill="none" xmlns="http://www.w3.org/2000/svg">
<path d="M71.21 131.665V161.881H69.1953V131.665H71.21Z" fill="#B8BBD2"/>
<path d="M139.076 64.2495C137.917 101.127 107.679 130.671 70.52 130.671C33.3613 130.671 3.12266 101.127 1.964 64.2495H0C1.16 102.211 32.2773 132.635 70.52 132.635C108.761 132.635 139.879 102.211 141.04 64.2495H139.076Z" fill="#B8BBD2"/>
<path d="M132.142 62.0592C132.142 96.3338 104.358 124.119 70.0835 124.119C35.8088 124.119 8.02344 96.3338 8.02344 62.0592C8.02344 27.7845 35.8088 0.000463127 70.0835 0.000463127C104.358 0.000463127 132.142 27.7845 132.142 62.0592Z" fill="#D6DAE4" fill-opacity="0.6"/>
<path d="M121.826 62.0588C121.826 90.6361 98.6599 113.803 70.0839 113.803C41.5065 113.803 18.3398 90.6361 18.3398 62.0588C18.3398 33.4814 41.5065 10.3161 70.0839 10.3161C98.6599 10.3161 121.826 33.4814 121.826 62.0588Z" fill="white"/>
<path d="M91.9548 71.5294H89.864V47.1765C89.864 46.3338 89.5336 45.5258 88.9452 44.9303C88.3571 44.3347 87.5593 44 86.7277 44H53.2727C52.441 44 51.6432 44.3347 51.0552 44.9303C50.4668 45.5259 50.1363 46.3338 50.1363 47.1765V71.5294H48.0456C47.4684 71.5294 47 72.0034 47 72.5884C47.0025 74.5535 47.7739 76.4374 49.1461 77.8268C50.5179 79.2162 52.3779 79.9979 54.3183 80H85.6817C87.622 79.9979 89.4821 79.2162 90.8539 77.8268C92.226 76.4374 92.9976 74.5536 93 72.5884C93 72.3076 92.8897 72.0382 92.6937 71.8396C92.4977 71.6411 92.232 71.5294 91.9548 71.5294ZM52.228 47.1765C52.228 46.5915 52.696 46.1176 53.2732 46.1176H86.7282C87.0054 46.1176 87.2711 46.2292 87.4675 46.4278C87.6635 46.6263 87.7734 46.8957 87.7734 47.1765V71.5294H52.2287L52.228 47.1765ZM85.6821 77.8825H54.3186C53.1142 77.881 51.9467 77.4591 51.0135 76.6877C50.0803 75.9159 49.4384 74.8421 49.1958 73.647H64.7736C64.7736 73.9278 64.8835 74.1972 65.0795 74.3957C65.2759 74.5943 65.5416 74.7059 65.8188 74.7059H74.1826C74.4599 74.7059 74.7256 74.5943 74.9219 74.3957C75.1179 74.1972 75.2279 73.9278 75.2279 73.647H90.8057C90.5631 74.8421 89.9211 75.9159 88.9879 76.6877C88.0547 77.4592 86.8866 77.881 85.6821 77.8825Z" fill="#172F5D"/>
</svg>
