<svg width="142" height="162" viewBox="0 0 142 162" fill="none" xmlns="http://www.w3.org/2000/svg">
<path d="M71.21 131.665V161.881H69.1953V131.665H71.21Z" fill="#B8BBD2"/>
<path d="M139.076 64.2495C137.917 101.127 107.679 130.671 70.52 130.671C33.3613 130.671 3.12266 101.127 1.964 64.2495H0C1.16 102.211 32.2773 132.635 70.52 132.635C108.761 132.635 139.879 102.211 141.04 64.2495H139.076Z" fill="#B8BBD2"/>
<path d="M132.142 62.0592C132.142 96.3338 104.358 124.119 70.0835 124.119C35.8088 124.119 8.02344 96.3338 8.02344 62.0592C8.02344 27.7845 35.8088 0.000463127 70.0835 0.000463127C104.358 0.000463127 132.142 27.7845 132.142 62.0592Z" fill="#D6DAE4" fill-opacity="0.6"/>
<path d="M121.826 62.0588C121.826 90.6361 98.6599 113.803 70.0839 113.803C41.5065 113.803 18.3398 90.6361 18.3398 62.0588C18.3398 33.4814 41.5065 10.3161 70.0839 10.3161C98.6599 10.3161 121.826 33.4814 121.826 62.0588Z" fill="white"/>
<path d="M85.8105 57.9992V58.1992H86.0105H87.3374L87.3375 58.2H87.5078C89.0411 58.2 90.4581 59.0196 91.2249 60.3498C91.9917 61.6805 91.9917 63.3198 91.2249 64.6501L91.3982 64.75L91.2249 64.6501C90.4581 65.9806 89.0413 66.7998 87.5081 66.7999C87.508 66.7999 87.5079 66.7999 87.5078 66.7999H86.0107H85.8107V66.9999V77.5002C85.8107 77.8449 85.6737 78.1758 85.4304 78.4195C85.1871 78.6632 84.857 78.8003 84.5132 78.8003H84.5126C84.3601 78.8008 84.2087 78.7736 84.0656 78.7203L84.0311 78.7064L63.6254 70.5012L63.3508 70.3907V70.6867V80.4999C63.3508 80.8449 63.2139 81.1755 62.9706 81.4192L62.9705 81.4193C62.7273 81.6632 62.3973 81.8 62.0534 81.8H56.064C55.7201 81.8 55.39 81.6632 55.1468 81.4193L55.1468 81.4192C54.9036 81.1757 54.767 80.8452 54.7669 80.5002C54.7669 80.5001 54.7669 80.5 54.7669 80.4999V70V69.8H54.5669H54.492C53.3538 69.8 52.262 69.3469 51.4572 68.5407C50.6522 67.7341 50.2 66.6405 50.2 65.5V59.4999C50.2 58.3594 50.6521 57.2654 51.4572 56.4593L51.4572 56.4592C52.262 55.6528 53.3538 55.1999 54.492 55.1999H61.8394H61.8781L61.914 55.1855L84.0305 46.2933C84.4304 46.1328 84.8833 46.1815 85.2396 46.4232L85.2398 46.4233C85.5964 46.6648 85.8103 47.0682 85.8105 47.4999V57.9992ZM84.1704 78.9607C84.2825 78.9873 84.3976 79.0006 84.5132 79.0003L84.1704 78.9607ZM83.9563 78.8918L83.8149 78.7507L83.8146 78.751L83.7548 78.8109L63.7508 70.7671V70.6867H63.5508L63.4762 70.8723L63.5508 70.9023V80.4999C63.5508 80.8979 63.3929 81.2793 63.1121 81.5605C62.8314 81.8421 62.4504 82 62.0534 82H56.064C55.667 82 55.286 81.8421 55.0052 81.5605C54.7245 81.2794 54.567 80.8981 54.5669 80.5002L83.9563 78.8918ZM60.8306 57.9992V57.7992H60.6306H54.4914C54.0409 57.7992 53.6093 57.9786 53.2911 58.2974C52.9729 58.6161 52.794 59.0486 52.794 59.4993V65.4994C52.794 65.95 52.9729 66.3826 53.2911 66.7013C53.6094 67.0202 54.041 67.1992 54.4914 67.1992H60.6306H60.8306V66.9992V57.9992ZM60.5554 79.1993H60.7554V78.9993V69.9994V69.7994H60.5554H57.5609H57.3609V69.9994V78.9993V79.1993H57.5609H60.5554ZM82.9407 75.4665L83.2153 75.577L83.2153 75.281L83.2157 49.718L83.2157 49.422L82.9411 49.5324L63.5509 57.328L63.4255 57.3784L63.4255 57.5136L63.4252 67.4811L63.4252 67.6162L63.5506 67.6666L82.9407 75.4665ZM85.8102 63.9997V64.1997H86.0102H87.5073C88.1142 64.1997 88.6743 63.8754 88.9775 63.3497L88.9776 63.3496C89.2804 62.8236 89.2804 62.1759 88.9776 61.6499L88.9775 61.6498C88.6743 61.1238 88.1143 60.7999 87.5076 60.7998C87.5075 60.7998 87.5074 60.7998 87.5073 60.7998H86.0102H85.8102V60.9998V63.9997Z" fill="#172F5D" stroke="white" stroke-width="0.4"/>
</svg>
