<svg width="142" height="162" viewBox="0 0 142 162" fill="none" xmlns="http://www.w3.org/2000/svg">
<path d="M71.21 131.665V161.881H69.1953V131.665H71.21Z" fill="#B8BBD2"/>
<path d="M139.076 64.2495C137.917 101.127 107.679 130.671 70.52 130.671C33.3613 130.671 3.12266 101.127 1.964 64.2495H0C1.16 102.211 32.2773 132.635 70.52 132.635C108.761 132.635 139.879 102.211 141.04 64.2495H139.076Z" fill="#B8BBD2"/>
<path d="M132.142 62.0592C132.142 96.3338 104.358 124.119 70.0835 124.119C35.8088 124.119 8.02344 96.3338 8.02344 62.0592C8.02344 27.7845 35.8088 0.000463127 70.0835 0.000463127C104.358 0.000463127 132.142 27.7845 132.142 62.0592Z" fill="#D6DAE4" fill-opacity="0.6"/>
<path d="M121.826 62.0588C121.826 90.6361 98.6599 113.803 70.0839 113.803C41.5065 113.803 18.3398 90.6361 18.3398 62.0588C18.3398 33.4814 41.5065 10.3161 70.0839 10.3161C98.6599 10.3161 121.826 33.4814 121.826 62.0588Z" fill="white"/>
<path d="M62 84.5H53C51.5087 84.4982 50.079 83.9051 49.0245 82.8505C47.9699 81.796 47.3768 80.3663 47.375 78.875V77.75C47.3777 75.3639 48.3268 73.0763 50.0141 71.3891C51.7013 69.7018 53.9889 68.7527 56.375 68.75H58.625C61.0111 68.7527 63.2987 69.7018 64.9859 71.3891C66.6732 73.0763 67.6223 75.3639 67.625 77.75V78.875C67.6232 80.3663 67.0301 81.796 65.9755 82.8505C64.921 83.9051 63.4913 84.4982 62 84.5ZM56.375 71C54.5854 71.002 52.8696 71.7137 51.6042 72.9792C50.3387 74.2446 49.627 75.9604 49.625 77.75V78.875C49.626 79.7698 49.9819 80.6277 50.6146 81.2604C51.2473 81.8931 52.1052 82.249 53 82.25H62C62.8948 82.249 63.7527 81.8931 64.3854 81.2604C65.0181 80.6277 65.374 79.7698 65.375 78.875V77.75C65.373 75.9604 64.6613 74.2446 63.3958 72.9792C62.1304 71.7137 60.4146 71.002 58.625 71H56.375Z" fill="#172F5D"/>
<path d="M57.5 71C55.9425 71 54.4199 70.5381 53.1249 69.6728C51.8299 68.8075 50.8205 67.5776 50.2245 66.1386C49.6284 64.6997 49.4725 63.1163 49.7763 61.5887C50.0802 60.0611 50.8302 58.6579 51.9315 57.5565C53.0329 56.4552 54.4361 55.7052 55.9637 55.4013C57.4913 55.0975 59.0747 55.2534 60.5136 55.8494C61.9526 56.4455 63.1825 57.4548 64.0478 58.7499C64.9131 60.0449 65.375 61.5675 65.375 63.125C65.3726 65.2128 64.5421 67.2145 63.0658 68.6908C61.5895 70.1671 59.5878 70.9976 57.5 71ZM57.5 57.5C56.3875 57.5 55.2999 57.8299 54.3749 58.448C53.4499 59.0661 52.7289 59.9446 52.3032 60.9724C51.8774 62.0002 51.766 63.1312 51.9831 64.2224C52.2001 65.3135 52.7359 66.3158 53.5225 67.1025C54.3092 67.8891 55.3115 68.4249 56.4026 68.6419C57.4938 68.859 58.6248 68.7476 59.6526 68.3218C60.6804 67.8961 61.5589 67.1751 62.177 66.2501C62.7951 65.3251 63.125 64.2375 63.125 63.125C63.1233 61.6337 62.5301 60.204 61.4755 59.1495C60.421 58.0949 58.9913 57.5018 57.5 57.5ZM72.4601 59.3265C72.0836 59.3263 71.718 59.2005 71.4211 58.9691C71.1242 58.7376 70.913 58.4138 70.821 58.0488L70.3343 56.102C70.2738 55.8585 70.1335 55.6422 69.9357 55.4878C69.738 55.3334 69.4942 55.2497 69.2433 55.25H67.625C66.7302 55.249 65.8723 54.8931 65.2396 54.2604C64.6069 53.6277 64.251 52.7698 64.25 51.875V42.875C64.251 41.9802 64.6069 41.1223 65.2396 40.4896C65.8723 39.8569 66.7302 39.501 67.625 39.5H87.875C88.7698 39.501 89.6277 39.8569 90.2604 40.4896C90.8931 41.1223 91.249 41.9802 91.25 42.875V51.875C91.249 52.7698 90.8931 53.6277 90.2604 54.2604C89.6277 54.8931 88.7698 55.249 87.875 55.25H78.5388C78.2836 55.2504 78.0361 55.3373 77.8368 55.4966L73.5126 58.9558C73.2143 59.1957 72.8429 59.3265 72.4601 59.3265ZM67.625 41.75C67.3267 41.7503 67.0408 41.8689 66.8298 42.0798C66.6189 42.2907 66.5003 42.5767 66.5 42.875V51.875C66.5003 52.1733 66.6189 52.4593 66.8298 52.6702C67.0408 52.8811 67.3267 52.9997 67.625 53H69.2433C69.9962 52.9991 70.7276 53.2504 71.321 53.7138C71.9144 54.1772 72.3355 54.8259 72.5172 55.5565L72.7908 56.6513L76.4305 53.7399C77.0293 53.2618 77.7726 53.0009 78.5388 53H87.875C88.1733 52.9997 88.4593 52.8811 88.6702 52.6702C88.8811 52.4593 88.9997 52.1733 89 51.875V42.875C88.9997 42.5767 88.8811 42.2907 88.6702 42.0798C88.4593 41.8689 88.1733 41.7503 87.875 41.75H67.625ZM86.4149 84.0765C86.0321 84.0763 85.6608 83.9455 85.3624 83.7057L81.0382 80.2466C80.8389 80.0873 80.5914 80.0004 80.3362 80H73.25C72.3552 79.999 71.4973 79.6431 70.8646 79.0104C70.2319 78.3777 69.876 77.5198 69.875 76.625V67.625C69.876 66.7302 70.2319 65.8723 70.8646 65.2396C71.4973 64.6069 72.3552 64.251 73.25 64.25H91.25C92.1448 64.251 93.0027 64.6069 93.6354 65.2396C94.2681 65.8723 94.624 66.7302 94.625 67.625V76.625C94.624 77.5198 94.2681 78.3777 93.6354 79.0104C93.0027 79.6431 92.1448 79.999 91.25 80H89.6317C89.3806 79.9998 89.1367 80.0836 88.9388 80.2381C88.7409 80.3926 88.6004 80.6089 88.5397 80.8525L88.0552 82.7971C87.9632 83.1625 87.7519 83.4868 87.4548 83.7185C87.1577 83.9503 86.7917 84.0762 86.4149 84.0765ZM73.25 66.5C72.9517 66.5003 72.6658 66.6189 72.4548 66.8298C72.2439 67.0407 72.1253 67.3267 72.125 67.625V76.625C72.1253 76.9233 72.2439 77.2093 72.4548 77.4202C72.6658 77.6311 72.9517 77.7497 73.25 77.75H80.3362C81.1024 77.7509 81.8457 78.0118 82.4444 78.4899L86.0842 81.4013L86.3567 80.3071C86.5386 79.5763 86.9599 78.9275 87.5535 78.4641C88.1471 78.0007 88.8787 77.7493 89.6317 77.75H91.25C91.5483 77.7497 91.8343 77.6311 92.0452 77.4202C92.2561 77.2093 92.3747 76.9233 92.375 76.625V67.625C92.3747 67.3267 92.2561 67.0407 92.0452 66.8298C91.8343 66.6189 91.5483 66.5003 91.25 66.5H73.25Z" fill="#172F5D"/>
<path d="M82.25 48.5H73.25C72.9516 48.5 72.6655 48.3815 72.4545 48.1705C72.2435 47.9595 72.125 47.6734 72.125 47.375C72.125 47.0766 72.2435 46.7905 72.4545 46.5795C72.6655 46.3685 72.9516 46.25 73.25 46.25H82.25C82.5484 46.25 82.8345 46.3685 83.0455 46.5795C83.2565 46.7905 83.375 47.0766 83.375 47.375C83.375 47.6734 83.2565 47.9595 83.0455 48.1705C82.8345 48.3815 82.5484 48.5 82.25 48.5ZM86.75 73.25H77.75C77.4516 73.25 77.1655 73.1315 76.9545 72.9205C76.7435 72.7095 76.625 72.4234 76.625 72.125C76.625 71.8266 76.7435 71.5405 76.9545 71.3295C77.1655 71.1185 77.4516 71 77.75 71H86.75C87.0484 71 87.3345 71.1185 87.5455 71.3295C87.7565 71.5405 87.875 71.8266 87.875 72.125C87.875 72.4234 87.7565 72.7095 87.5455 72.9205C87.3345 73.1315 87.0484 73.25 86.75 73.25Z" fill="#172F5D"/>
</svg>
