<svg width="142" height="162" viewBox="0 0 142 162" fill="none" xmlns="http://www.w3.org/2000/svg">
<path d="M71.21 131.665V161.881H69.1953V131.665H71.21Z" fill="#B8BBD2"/>
<path d="M139.076 64.2495C137.917 101.127 107.679 130.671 70.52 130.671C33.3613 130.671 3.12266 101.127 1.964 64.2495H0C1.16 102.211 32.2773 132.635 70.52 132.635C108.761 132.635 139.879 102.211 141.04 64.2495H139.076Z" fill="#B8BBD2"/>
<path d="M132.142 62.0592C132.142 96.3338 104.358 124.119 70.0835 124.119C35.8088 124.119 8.02344 96.3338 8.02344 62.0592C8.02344 27.7845 35.8088 0.000463127 70.0835 0.000463127C104.358 0.000463127 132.142 27.7845 132.142 62.0592Z" fill="#D6DAE4" fill-opacity="0.6"/>
<path d="M121.826 62.0588C121.826 90.6361 98.6599 113.803 70.0839 113.803C41.5065 113.803 18.3398 90.6361 18.3398 62.0588C18.3398 33.4814 41.5065 10.3161 70.0839 10.3161C98.6599 10.3161 121.826 33.4814 121.826 62.0588Z" fill="white"/>
<g clip-path="url(#clip0_734_2)">
<path d="M60.6423 37.6318C57.3923 37.6318 54.75 40.2708 54.75 43.5208V82.1081C54.75 85.3581 57.3923 88.0003 60.6423 88.0003H79.736C82.986 88.0003 85.625 85.3581 85.625 82.1081V43.5241C85.625 40.2741 82.9828 37.6351 79.7328 37.6351H60.6455L60.6423 37.6318ZM60.6423 39.2568H79.736C82.0857 39.2568 84 41.1678 84 43.5208V76.6318H56.375V43.5208C56.375 41.1646 58.2893 39.2568 60.6423 39.2568ZM66.8855 44.2001V45.8251H73.4375V44.2001H66.8855ZM56.375 78.2568H84V82.1146C84 84.4676 82.089 86.3818 79.736 86.3818H60.639C59.5081 86.3801 58.424 85.9299 57.6246 85.1299C56.8253 84.3299 56.3759 83.2455 56.375 82.1146V78.2568Z" fill="#172F5D" stroke="#172F5D"/>
</g>
<defs>
<clipPath id="clip0_734_2">
<rect width="52" height="52" fill="white" transform="translate(45 36)"/>
</clipPath>
</defs>
</svg>
