<svg width="142" height="162" viewBox="0 0 142 162" fill="none" xmlns="http://www.w3.org/2000/svg">
<path d="M71.21 131.665V161.881H69.1953V131.665H71.21Z" fill="#B8BBD2"/>
<path d="M139.076 64.2495C137.917 101.127 107.679 130.671 70.52 130.671C33.3613 130.671 3.12266 101.127 1.964 64.2495H0C1.16 102.211 32.2773 132.635 70.52 132.635C108.761 132.635 139.879 102.211 141.04 64.2495H139.076Z" fill="#B8BBD2"/>
<path d="M132.142 62.0592C132.142 96.3338 104.358 124.119 70.0835 124.119C35.8088 124.119 8.02344 96.3338 8.02344 62.0592C8.02344 27.7845 35.8088 0.000463127 70.0835 0.000463127C104.358 0.000463127 132.142 27.7845 132.142 62.0592Z" fill="#D6DAE4" fill-opacity="0.6"/>
<path d="M121.826 62.0588C121.826 90.6361 98.6599 113.803 70.0839 113.803C41.5065 113.803 18.3398 90.6361 18.3398 62.0588C18.3398 33.4814 41.5065 10.3161 70.0839 10.3161C98.6599 10.3161 121.826 33.4814 121.826 62.0588Z" fill="white"/>
<path d="M48.4097 61.2659C48.6912 61.4517 49.0173 61.5589 49.3541 61.5763C49.691 61.5937 50.0264 61.5208 50.3255 61.3651C51.4537 60.7794 53.0941 60.4471 54.8236 60.4471C57.4582 60.4471 59.3997 61.1962 60.1552 61.9388C60.5558 62.3384 61.0985 62.5627 61.6643 62.5627C62.2301 62.5627 62.7728 62.3384 63.1734 61.9388C63.9289 61.1962 65.8704 60.4471 68.505 60.4471C71.1396 60.4471 73.0811 61.1962 73.8366 61.9388C74.2372 62.3384 74.7799 62.5627 75.3457 62.5627C75.9115 62.5627 76.4542 62.3384 76.8548 61.9388C77.6103 61.1962 79.5518 60.4471 82.1864 60.4471C83.9177 60.4471 85.5572 60.7831 86.6844 61.3651C86.9824 61.5202 87.3164 61.593 87.652 61.5759C87.9875 61.5588 88.3124 61.4525 88.5931 61.2679C88.8738 61.0833 89.1001 60.8271 89.2487 60.5258C89.3973 60.2245 89.4628 59.889 89.4384 59.5539C89.0572 54.478 86.8448 49.7135 83.2128 46.1472C79.5808 42.5809 74.7767 40.4558 69.6947 40.1673V39.1934C69.6947 38.8769 69.569 38.5733 69.3452 38.3495C69.1214 38.1257 68.8178 38 68.5013 38C68.1848 38 67.8813 38.1257 67.6575 38.3495C67.4337 38.5733 67.308 38.8769 67.308 39.1934V40.1673C62.2271 40.4575 57.4247 42.5835 53.7942 46.1499C50.1637 49.7162 47.9524 54.48 47.5716 59.5548C47.5467 59.8888 47.6112 60.2233 47.7585 60.5241C47.9058 60.8248 48.1306 61.0809 48.4097 61.2659ZM68.5013 58.053C66.2762 58.053 64.2043 58.5258 62.7337 59.3327C62.6181 54.898 63.5847 50.7634 65.6152 47.0181C66.413 45.5365 67.3816 44.1535 68.5013 42.8974C69.6214 44.1549 70.59 45.5395 71.3874 47.0227C73.418 50.7671 74.3846 54.9016 74.2689 59.3373C72.7983 58.5295 70.7265 58.0567 68.5013 58.0567V58.053ZM86.9727 58.8792C85.6123 58.344 83.9434 58.053 82.1818 58.053C80.0705 58.053 78.1069 58.4771 76.6547 59.2069C76.763 53.2438 75.0189 48.676 73.4299 45.7825C72.8532 44.7269 72.2006 43.7144 71.4774 42.7532C75.4589 43.3995 79.1228 45.3217 81.9174 48.2304C84.712 51.1391 86.4861 54.8768 86.9727 58.881V58.8792ZM55.8141 47.5166C58.5059 44.9999 61.887 43.343 65.5253 42.7578C64.802 43.719 64.1494 44.7315 63.5727 45.7871C61.9837 48.676 60.2396 53.2438 60.3479 59.2106C58.8966 58.4762 56.9276 58.0567 54.8208 58.0567C53.0565 58.0567 51.3904 58.3459 50.03 58.8829C50.5529 54.5292 52.6023 50.502 55.8141 47.5166ZM68.5013 63.6168C68.1848 63.6168 67.8813 63.7426 67.6575 63.9664C67.4337 64.1902 67.308 64.4937 67.308 64.8102V78.9469C67.308 80.5514 67.9454 82.0902 69.0799 83.2248C70.2145 84.3594 71.7533 84.9968 73.3578 84.9968C74.9624 84.9968 76.5012 84.3594 77.6357 83.2248C78.7703 82.0902 79.4077 80.5514 79.4077 78.9469V78.4053C79.4077 78.0888 79.282 77.7853 79.0582 77.5615C78.8344 77.3377 78.5308 77.212 78.2143 77.212C77.8978 77.212 77.5943 77.3377 77.3705 77.5615C77.1467 77.7853 77.021 78.0888 77.021 78.4053V78.9469C77.021 79.9184 76.6351 80.8502 75.9481 81.5372C75.2611 82.2241 74.3294 82.6101 73.3578 82.6101C72.3863 82.6101 71.4546 82.2241 70.7676 81.5372C70.0806 80.8502 69.6947 79.9184 69.6947 78.9469V64.8102C69.6947 64.4937 69.569 64.1902 69.3452 63.9664C69.1214 63.7426 68.8178 63.6168 68.5013 63.6168Z" fill="#172F5D"/>
</svg>
