<svg width="56" height="104" viewBox="0 0 56 104" fill="none" xmlns="http://www.w3.org/2000/svg">
<path fill-rule="evenodd" clip-rule="evenodd" d="M18.4243 54.7715C18.4243 54.7715 15.7193 56.3455 20.3514 56.8772C25.9647 57.5182 28.8319 57.426 35.0157 56.2562C35.0157 56.2562 36.6437 57.2756 38.9163 58.1575C25.0499 64.0992 7.5344 57.8137 18.4243 54.7715ZM16.7293 47.0178C16.7293 47.0178 13.6947 49.264 18.3309 49.7434C24.3273 50.3626 29.0604 50.4132 37.2559 48.8362C37.2559 48.8362 38.3875 49.9849 40.1683 50.6124C23.4054 55.5153 4.73597 50.9984 16.7293 47.0178Z" fill="#3174B9"/>
<path fill-rule="evenodd" clip-rule="evenodd" d="M31.0131 33.8636C34.4314 37.7983 30.1171 41.337 30.1171 41.337C30.1171 41.337 38.7927 36.8595 34.808 31.2503C31.0877 26.0218 28.2341 23.4243 43.6809 14.4668C43.6809 14.4668 19.4334 20.5202 31.0131 33.8636Z" fill="#CA3132"/>
<path fill-rule="evenodd" clip-rule="evenodd" d="M49.3585 60.5078C49.3585 60.5078 51.3608 62.1587 47.1529 63.4355C39.1513 65.859 13.8433 66.5899 6.81345 63.5318C4.28823 62.4319 9.0261 60.9073 10.5167 60.5853C12.0713 60.2493 12.9585 60.3104 12.9585 60.3104C10.1483 58.3316 -5.20572 64.1969 5.16072 65.8796C33.4281 70.4629 56.6897 63.8162 49.3585 60.5078ZM19.7333 38.9841C19.7333 38.9841 6.86163 42.0422 15.1758 43.1538C18.6875 43.6232 25.6827 43.5151 32.2037 42.9681C37.5315 42.521 42.8792 41.5645 42.8792 41.5645C42.8792 41.5645 41.002 42.37 39.6419 43.2972C26.5687 46.736 1.31766 45.1344 8.5878 41.6192C14.7346 38.6457 19.7333 38.9841 19.7333 38.9841ZM42.8257 51.8904C56.114 44.9869 49.9701 38.3513 45.6805 39.2455C44.6318 39.4647 44.1612 39.6539 44.1612 39.6539C44.1612 39.6539 44.5525 39.0417 45.2963 38.7784C53.7809 35.7967 60.3048 47.575 42.5607 52.2394C42.5602 52.2394 42.7646 52.0549 42.8257 51.8904Z" fill="#3174B9"/>
<path fill-rule="evenodd" clip-rule="evenodd" d="M34.8126 0C34.8126 0 42.1703 7.36238 27.8321 18.68C16.3335 27.7621 25.2106 32.9389 27.8286 38.8559C21.1155 32.8002 16.1913 27.4684 19.4944 22.5072C24.3439 15.2248 37.7814 11.6931 34.8126 0Z" fill="#CA3132"/>
<path fill-rule="evenodd" clip-rule="evenodd" d="M21.0407 70.6048C33.7937 71.4203 53.3814 70.1518 53.8462 64.1161C53.8462 64.1161 52.9543 66.4039 43.3053 68.2188C32.4188 70.2682 18.9896 70.0296 11.0273 68.7153C11.0273 68.7153 12.6589 70.0655 21.0407 70.6048Z" fill="#3174B9"/>
<path fill-rule="evenodd" clip-rule="evenodd" d="M53.2536 81.4272H52.8659V81.2098H53.9123V81.4272H53.5245V82.513H53.2536V81.4272ZM55.3417 81.4813H55.337L54.9516 82.5124H54.7747L54.3917 81.4813H54.387V82.5124H54.1296V81.2093H54.5074L54.8623 82.1311L55.2172 81.2093H55.5914V82.5124H55.3423L55.3417 81.4813ZM18.9476 93.6626C17.7449 94.7049 16.4734 95.2912 15.3319 95.2912C13.7056 95.2912 12.8231 94.3142 12.8231 92.7508C12.8231 91.0581 13.7679 89.8196 17.5492 89.8196H18.947L18.9476 93.6626ZM22.2671 97.4075V85.8143C22.2671 82.8514 20.5774 80.8961 16.504 80.8961C14.1274 80.8961 12.044 81.483 10.3502 82.231L10.8378 84.2844C12.1721 83.7944 13.8971 83.3402 15.5904 83.3402C17.937 83.3402 18.947 84.2844 18.947 86.2391V87.705H17.7743C12.074 87.705 9.50178 89.9165 9.50178 93.2413C9.50178 96.1062 11.1968 97.7348 14.3877 97.7348C16.4388 97.7348 17.9711 96.8882 19.4017 95.6491L19.662 97.4075H22.2671ZM33.3462 97.4075H29.2071L24.223 81.191H27.8387L30.9321 91.1562L31.6206 94.1503C33.1811 89.8196 34.2886 85.423 34.8427 81.191H38.3585C37.4173 86.5305 35.7216 92.3929 33.3462 97.4075ZM49.2314 93.6626C48.0252 94.7049 46.7537 95.2912 45.6145 95.2912C43.9882 95.2912 43.1069 94.3142 43.1069 92.7508C43.1069 91.0581 44.0523 89.8196 47.8313 89.8196H49.2314V93.6626ZM52.5521 97.4075V85.8143C52.5521 82.8514 50.8571 80.8961 46.7878 80.8961C44.4089 80.8961 42.3261 81.483 40.6322 82.231L41.1199 84.2844C42.4542 83.7944 44.1827 83.3402 45.8766 83.3402C48.2196 83.3402 49.2308 84.2844 49.2308 86.2391V87.705H48.0581C42.3572 87.705 39.7868 89.9165 39.7868 93.2413C39.7868 96.1062 41.4783 97.7348 44.6698 97.7348C46.7226 97.7348 48.2525 96.8882 49.6867 95.6491L49.9482 97.4075H52.5521ZM5.86201 100.163C4.91608 101.546 3.38615 102.64 1.71344 103.258L0.0742188 101.327C1.34858 100.673 2.44021 99.6173 2.94843 98.6349C3.38614 97.7595 3.56887 96.6338 3.56887 93.9393V75.4232H7.09701V93.6838C7.09701 97.2877 6.80912 98.7442 5.86201 100.163Z" fill="#CA3132"/>
</svg>
