<svg width="73" height="33" viewBox="0 0 73 33" fill="none" xmlns="http://www.w3.org/2000/svg">
<path d="M13.3251 18.4999C8.50229 18.4999 4.57634 14.574 4.57634 9.75119C4.57634 4.92839 8.50229 1.00244 13.3251 1.00244C18.1479 1.00244 22.0738 4.92839 22.0738 9.75119C22.0738 14.574 18.1479 18.4999 13.3251 18.4999ZM13.3251 2.78426C9.48229 2.78426 6.35816 5.90839 6.35816 9.75119C6.35816 13.594 9.48229 16.7181 13.3251 16.7181C17.1679 16.7181 20.292 13.594 20.292 9.75119C20.292 5.90839 17.1679 2.78426 13.3251 2.78426ZM22.7569 32.2497H3.89925C2.10555 32.2497 0.650391 30.7945 0.650391 29.0008V25.3421C0.650391 23.8513 1.66009 22.5506 3.1093 22.1883L8.90023 20.7391C9.15562 20.6738 9.4229 20.6441 9.69017 20.6441H16.9659C17.2332 20.6441 17.5005 20.6797 17.7559 20.7391L23.5468 22.1883C24.996 22.5506 26.0057 23.8454 26.0057 25.3421V29.0008C26.0057 30.7945 24.5506 32.2497 22.7569 32.2497ZM9.69017 22.4259C9.57138 22.4259 9.45259 22.4378 9.3338 22.4675L3.54288 23.9167C2.88955 24.083 2.43221 24.665 2.43221 25.3421V29.0008C2.43221 29.8086 3.09149 30.4678 3.89925 30.4678H22.7569C23.5646 30.4678 24.2239 29.8086 24.2239 29.0008V25.3421C24.2239 24.665 23.7666 24.083 23.1132 23.9167L17.3223 22.4675C17.2035 22.4378 17.0847 22.4259 16.9659 22.4259H9.69017Z" fill="#172F5D" stroke="#172F5D" stroke-width="0.440506"/>
<path d="M60.0187 18.4999C55.1959 18.4999 51.2699 14.574 51.2699 9.75119C51.2699 4.92839 55.1959 1.00244 60.0187 1.00244C64.8415 1.00244 68.7674 4.92839 68.7674 9.75119C68.7674 14.574 64.8415 18.4999 60.0187 18.4999ZM60.0187 2.78426C56.1759 2.78426 53.0518 5.90839 53.0518 9.75119C53.0518 13.594 56.1759 16.7181 60.0187 16.7181C63.8615 16.7181 66.9856 13.594 66.9856 9.75119C66.9856 5.90839 63.8615 2.78426 60.0187 2.78426ZM69.4505 32.2497H50.5929C48.7991 32.2497 47.344 30.7945 47.344 29.0008V25.3421C47.344 23.8513 48.3537 22.5506 49.8029 22.1883L55.5938 20.7391C55.8492 20.6738 56.1165 20.6441 56.3838 20.6441H63.6595C63.9268 20.6441 64.1941 20.6797 64.4495 20.7391L70.2404 22.1883C71.6896 22.5506 72.6993 23.8454 72.6993 25.3421V29.0008C72.6993 30.7945 71.2442 32.2497 69.4505 32.2497ZM56.3838 22.4259C56.265 22.4259 56.1462 22.4378 56.0274 22.4675L50.2365 23.9167C49.5831 24.083 49.1258 24.665 49.1258 25.3421V29.0008C49.1258 29.8086 49.7851 30.4678 50.5929 30.4678H69.4505C70.2582 30.4678 70.9175 29.8086 70.9175 29.0008V25.3421C70.9175 24.665 70.4602 24.083 69.8068 23.9167L64.0159 22.4675C63.8971 22.4378 63.7783 22.4259 63.6595 22.4259H56.3838Z" fill="#172F5D" stroke="#172F5D" stroke-width="0.440506"/>
<path d="M31.8093 22.3033V20.5215H28.8396V22.3033H31.8093Z" fill="#172F5D" stroke="#172F5D" stroke-width="0.440506"/>
<path d="M37.98 22.1666V20.3848H35.0103V22.1666H37.98Z" fill="#172F5D" stroke="#172F5D" stroke-width="0.440506"/>
<path d="M44.147 22.1666V20.3848H41.1773V22.1666H44.147Z" fill="#172F5D" stroke="#172F5D" stroke-width="0.440506"/>
</svg>
