<svg width="44" height="44" viewBox="0 0 44 44" fill="none" xmlns="http://www.w3.org/2000/svg">
<path d="M33.8077 29.5669C32.8586 29.5669 31.9668 29.197 31.2962 28.526L25.9651 23.1952L27.2821 21.8776L32.6132 27.208C32.9322 27.527 33.3563 27.703 33.8074 27.703C34.2588 27.703 34.6829 27.5273 35.0019 27.208C35.3209 26.889 35.4969 26.4648 35.4969 26.0138C35.4969 25.5624 35.3212 25.1383 35.0019 24.8193L29.6711 19.4889L30.9881 18.1719L36.3192 23.503C36.9902 24.1739 37.3598 25.0658 37.3598 26.0152C37.3598 26.9643 36.9899 27.8561 36.3189 28.5267C35.6479 29.197 34.756 29.5669 33.8077 29.5669Z" fill="#172F5D"/>
<path d="M30.1021 33.2731C29.153 33.2731 28.2605 32.9039 27.5899 32.2326L22.2588 26.9012L23.5758 25.5835L28.9071 30.9156C29.2262 31.2346 29.6503 31.4102 30.102 31.4102C30.5534 31.4102 30.9775 31.2346 31.2969 30.9153C31.9549 30.2573 31.9549 29.1855 31.2959 28.5265L25.9651 23.1951L27.2828 21.8774L32.6141 27.2088C33.9993 28.594 33.9997 30.8474 32.6145 32.2325C31.9425 32.9038 31.0507 33.2731 30.1019 33.2731L30.1021 33.2731Z" fill="#172F5D"/>
<path d="M26.3955 36.9797C25.4467 36.9797 24.5549 36.6104 23.8833 35.9398L23.7668 35.8234L25.0838 34.5057L25.1999 34.6218C25.5189 34.9408 25.9437 35.1165 26.3948 35.1165C26.8465 35.1165 27.2706 34.9408 27.5897 34.6218C28.2483 33.9632 28.2476 32.8917 27.5893 32.233L22.2585 26.9016L23.5755 25.584L28.9069 30.916C30.2921 32.3012 30.2924 34.5546 28.9072 35.9397C28.2366 36.6103 27.3444 36.9796 26.3954 36.9796L26.3955 36.9797Z" fill="#172F5D"/>
<path d="M37.514 25.8606C36.5653 25.8606 35.6735 25.4913 35.0018 24.8207L29.6705 19.4893L30.9874 18.1717L36.3188 23.5028C36.6378 23.8218 37.0626 23.9974 37.5137 23.9974C37.9654 23.9974 38.3895 23.8218 38.7085 23.5028C39.3672 22.8441 39.3665 21.7727 38.7082 21.1136L23.1514 5.55682C21.3477 3.75248 18.9493 2.75919 16.3973 2.75893C13.8465 2.75893 11.4478 3.7529 9.64341 5.55682C7.83881 7.36117 6.84552 9.75984 6.84552 12.3109C6.84552 14.862 7.83881 17.2611 9.64315 19.0651L10.2589 19.6808L8.94191 20.9985L8.32617 20.3827C6.16995 18.2265 4.98267 15.36 4.98267 12.3109C4.98267 9.26183 6.17021 6.39538 8.32617 4.23984C10.4824 2.08362 13.3488 0.895996 16.3973 0.895996C19.4467 0.896329 22.3132 2.08388 24.4684 4.23984L40.0252 19.7967C41.4104 21.1818 41.4104 23.4352 40.0255 24.8197C39.3552 25.4909 38.4627 25.8602 37.5137 25.8602L37.514 25.8606Z" fill="#172F5D"/>
<path d="M39.9122 20.9981L38.5952 19.6805L38.9795 19.2963C40.7844 17.4926 41.778 15.0942 41.7773 12.5424C41.7773 9.99131 40.7841 7.5929 38.9797 5.78856C35.256 2.06482 29.1958 2.06422 25.471 5.78822L25.0868 6.17243L23.7698 4.85545L24.154 4.47124C26.3102 2.31536 29.1767 1.12842 32.2258 1.12842C35.2749 1.12842 38.1413 2.31596 40.2969 4.47192C42.4527 6.6278 43.6404 9.49434 43.6404 12.5427C43.6407 15.5921 42.4532 18.4586 40.2965 20.6145L39.9122 20.9981Z" fill="#172F5D"/>
<path d="M18.522 33.5028C17.6125 33.5028 16.7024 33.1562 16.0098 32.4639C15.3392 31.7933 14.97 30.9014 14.97 29.9524C14.97 29.0037 15.3392 28.1119 16.0098 27.4403L16.577 26.8731C17.2476 26.2024 18.1395 25.8325 19.0885 25.8325C20.0375 25.8325 20.9291 26.2018 21.6 26.8731C22.2706 27.5437 22.6406 28.4359 22.6406 29.3853C22.6406 30.334 22.2713 31.2258 21.601 31.8968L21.0332 32.4646C20.341 33.1568 19.4314 33.5028 18.522 33.5028ZM19.0885 27.696C18.6371 27.696 18.2134 27.8716 17.8943 28.1906L17.3275 28.7575C17.0085 29.0765 16.8329 29.5013 16.8329 29.9523C16.8329 30.4041 17.0085 30.8278 17.3268 31.1469C17.9858 31.8055 19.0573 31.8058 19.716 31.1472L20.2832 30.58C20.6018 30.261 20.7771 29.8369 20.7771 29.3855C20.7771 28.9337 20.6015 28.5096 20.2825 28.1906C19.9638 27.8713 19.5396 27.696 19.0885 27.696Z" fill="#172F5D"/>
<path d="M14.8101 29.7973C13.9006 29.7973 12.9905 29.4514 12.2979 28.7588C11.6273 28.0882 11.2581 27.196 11.2581 26.2466C11.2581 25.2979 11.6273 24.4061 12.2979 23.7345L12.8651 23.1673C14.2506 21.7828 16.5037 21.7828 17.8881 23.1673C18.5587 23.8382 18.9287 24.7301 18.9287 25.6795C18.9287 26.6282 18.5594 27.52 17.8891 28.191L17.322 28.7582C16.6294 29.4507 15.72 29.7973 14.8101 29.7973ZM15.3766 23.9912C14.9438 23.9912 14.5114 24.1562 14.1821 24.4852L13.6153 25.052C13.2962 25.3711 13.1206 25.7959 13.1206 26.2469C13.1206 26.6986 13.2962 27.1224 13.6146 27.4414C14.2736 28.1001 15.3457 28.1001 16.0047 27.4414L16.5715 26.8746C16.8902 26.5556 17.0655 26.1314 17.0655 25.6801C17.0655 25.2283 16.8898 24.8042 16.5708 24.4852C16.2422 24.1555 15.8094 23.9912 15.3766 23.9912Z" fill="#172F5D"/>
<path d="M22.2249 37.2123C21.2758 37.2123 20.384 36.8424 19.7127 36.1717C19.0421 35.5011 18.6729 34.6092 18.6729 33.6602C18.6729 32.7115 19.0421 31.8197 19.7124 31.1487L20.2802 30.5809C21.6654 29.1964 23.9185 29.1964 25.3029 30.5809C25.9735 31.2518 26.3434 32.1437 26.3434 33.093C26.3434 34.0418 25.9742 34.9336 25.3039 35.6046L24.7361 36.1724C24.0654 36.8427 23.1736 37.2123 22.2249 37.2123ZM22.7911 31.4045C22.3583 31.4045 21.9262 31.5695 21.5969 31.8985L21.0297 32.4657C20.711 32.7847 20.5357 33.2088 20.5357 33.6602C20.5357 34.1119 20.7114 34.5357 21.0297 34.8547C21.3487 35.1737 21.7729 35.3497 22.2242 35.3497C22.6757 35.3497 23.0994 35.1741 23.4184 34.8551L23.9856 34.2879C24.3043 33.9689 24.4796 33.5447 24.4796 33.0934C24.4796 32.6416 24.304 32.2175 23.9849 31.8985C23.6563 31.5688 23.2239 31.4045 22.7911 31.4045Z" fill="#172F5D"/>
<path d="M11.1089 26.0923C10.1994 26.0923 9.28936 25.7464 8.59676 25.0538C7.92613 24.3832 7.55688 23.491 7.55688 22.5416C7.55688 21.5929 7.92612 20.7011 8.59676 20.0295L9.16393 19.4623C10.5495 18.0771 12.8031 18.0771 14.1876 19.4619C14.8586 20.1329 15.2282 21.0257 15.2275 21.9755C15.2275 22.9232 14.8583 23.8151 14.188 24.486L13.6211 25.0535C12.9285 25.7461 12.0191 26.0923 11.1089 26.0923ZM11.6768 20.2859C11.244 20.2859 10.8109 20.4509 10.4812 20.7799L9.9144 21.3467C9.59539 21.6657 9.41975 22.0905 9.41975 22.5416C9.41975 22.9933 9.59539 23.4171 9.91374 23.7361C10.5727 24.3947 11.6448 24.3947 12.3038 23.7361L12.8706 23.1692C13.1893 22.8502 13.3646 22.4261 13.3646 21.9747C13.365 21.5226 13.1897 21.0982 12.8706 20.7792C12.5416 20.4502 12.1096 20.2859 11.6768 20.2859Z" fill="#172F5D"/>
<path d="M0.622107 43.5882C0.614089 43.5929 0.605403 43.5959 0.596717 43.5975C0.588699 43.5992 0.579678 43.6002 0.56999 43.6002C0.541259 43.6002 0.518542 43.5929 0.501837 43.5775C0.485801 43.5615 0.477783 43.5398 0.477783 43.512C0.477783 43.4853 0.485801 43.4639 0.501837 43.4479C0.518541 43.4318 0.541259 43.4238 0.56999 43.4238C0.579678 43.4238 0.588699 43.4252 0.596717 43.4278C0.605403 43.4298 0.614088 43.4328 0.622107 43.4372V43.4719C0.614089 43.4666 0.606071 43.4626 0.598053 43.4599C0.590035 43.4572 0.58135 43.4559 0.572663 43.4559C0.557295 43.4559 0.545268 43.4612 0.536582 43.4719C0.527561 43.482 0.523218 43.4953 0.523218 43.512C0.523218 43.5301 0.527561 43.5441 0.536582 43.5548C0.545267 43.5648 0.557295 43.5695 0.572663 43.5695C0.581349 43.5695 0.590035 43.5682 0.598053 43.5655C0.606072 43.5628 0.614089 43.5588 0.622107 43.5535V43.5882Z" fill="#172F5D"/>
<path d="M0.751618 43.5052C0.747943 43.5035 0.744268 43.5025 0.740927 43.5025C0.737252 43.5018 0.733577 43.5012 0.730237 43.5012C0.719546 43.5012 0.71086 43.5049 0.704846 43.5119C0.699501 43.5182 0.696828 43.5276 0.696828 43.5399V43.5987H0.656738V43.4704H0.696828V43.4918C0.702173 43.4838 0.707853 43.4781 0.7142 43.4745C0.721216 43.4701 0.729568 43.4678 0.739591 43.4678H0.743599C0.74527 43.4678 0.747943 43.4684 0.751617 43.4691L0.751618 43.5052Z" fill="#172F5D"/>
<path d="M0.898026 43.5346V43.5466H0.803144C0.803813 43.5556 0.807153 43.5627 0.812499 43.568C0.818513 43.5727 0.827199 43.5747 0.83789 43.5747C0.846576 43.5747 0.855596 43.5733 0.864616 43.5707C0.873302 43.568 0.882657 43.5647 0.892679 43.56V43.5907C0.882656 43.5944 0.872968 43.5971 0.86328 43.5987C0.853257 43.6004 0.843569 43.6014 0.83388 43.6014C0.810494 43.6014 0.792788 43.5957 0.780427 43.584C0.767732 43.5727 0.761719 43.556 0.761719 43.5346C0.761719 43.5142 0.767732 43.4982 0.780427 43.4865C0.792788 43.4741 0.810161 43.4678 0.832544 43.4678C0.851921 43.4678 0.867623 43.4741 0.879316 43.4865C0.891677 43.4982 0.898026 43.5142 0.898026 43.5346ZM0.856599 43.5212C0.856599 43.5132 0.854261 43.5072 0.849918 43.5025C0.84524 43.4972 0.839227 43.4945 0.831209 43.4945C0.823859 43.4945 0.817846 43.4968 0.8125 43.5012C0.807155 43.5059 0.803815 43.5125 0.803146 43.5212L0.856599 43.5212Z" fill="#172F5D"/>
<path d="M0.985029 43.5413C0.976009 43.5413 0.969328 43.5426 0.964984 43.5453C0.960307 43.548 0.958302 43.5526 0.958302 43.5586C0.958302 43.564 0.959973 43.568 0.963648 43.5707C0.966988 43.5733 0.972 43.5747 0.978348 43.5747C0.986366 43.5747 0.992379 43.572 0.997056 43.5667C1.0024 43.5613 1.00507 43.5543 1.00507 43.5453V43.5413L0.985029 43.5413ZM1.0465 43.5252V43.5987H1.00507V43.58C0.999728 43.588 0.993381 43.5941 0.986365 43.5974C0.980018 43.6001 0.971999 43.6014 0.962311 43.6014C0.948948 43.6014 0.938257 43.5981 0.930239 43.5907C0.922221 43.5827 0.918213 43.5727 0.918213 43.56C0.918213 43.5449 0.92289 43.5343 0.932913 43.5279C0.943604 43.5209 0.959639 43.5172 0.981021 43.5172H1.00507V43.5132C1.00507 43.5072 1.0024 43.5025 0.997057 43.4998C0.992379 43.4965 0.98503 43.4945 0.974339 43.4945C0.965319 43.4945 0.956968 43.4955 0.948949 43.4972C0.941599 43.4992 0.934918 43.5019 0.928904 43.5052V43.4745C0.937589 43.4718 0.94661 43.4701 0.95563 43.4691C0.964316 43.4684 0.973002 43.4678 0.981021 43.4678C1.00407 43.4678 1.02044 43.4725 1.03046 43.4811C1.04115 43.4902 1.0465 43.5049 1.0465 43.5252Z" fill="#172F5D"/>
<path d="M1.13105 43.4321V43.4682H1.17381V43.4976H1.13105V43.5524C1.13105 43.5577 1.13172 43.5618 1.13372 43.5644C1.1364 43.5664 1.14107 43.5671 1.14842 43.5671H1.1698V43.5965H1.13506C1.11902 43.5965 1.10733 43.5935 1.10032 43.5871C1.09397 43.5801 1.09096 43.5684 1.09096 43.5524V43.4976H1.06958V43.4682H1.09096V43.4321L1.13105 43.4321Z" fill="#172F5D"/>
<path d="M1.3282 43.5346V43.5466H1.23332C1.23399 43.5556 1.23733 43.5627 1.24267 43.568C1.24869 43.5727 1.25737 43.5747 1.26807 43.5747C1.27675 43.5747 1.28577 43.5733 1.29479 43.5707C1.30348 43.568 1.31283 43.5647 1.32285 43.56V43.5907C1.31283 43.5944 1.30314 43.5971 1.29346 43.5987C1.28343 43.6004 1.27374 43.6014 1.26406 43.6014C1.24067 43.6014 1.22296 43.5957 1.2106 43.584C1.19791 43.5727 1.19189 43.556 1.19189 43.5346C1.19189 43.5142 1.19791 43.4982 1.2106 43.4865C1.22296 43.4741 1.24034 43.4678 1.26272 43.4678C1.2821 43.4678 1.2978 43.4741 1.30949 43.4865C1.32185 43.4982 1.3282 43.5142 1.3282 43.5346ZM1.28677 43.5212C1.28677 43.5132 1.28444 43.5072 1.28009 43.5025C1.27542 43.4972 1.2694 43.4945 1.26138 43.4945C1.25403 43.4945 1.24802 43.4968 1.24268 43.5012C1.23733 43.5059 1.23399 43.5125 1.23332 43.5212L1.28677 43.5212Z" fill="#172F5D"/>
<path d="M1.44143 43.4866V43.4185H1.48286V43.5962H1.44143V43.5775C1.43508 43.5855 1.4284 43.5915 1.42138 43.5948C1.41504 43.5975 1.40735 43.5989 1.39867 43.5989C1.3833 43.5989 1.37061 43.5928 1.35991 43.5801C1.34989 43.5678 1.34521 43.5518 1.34521 43.532C1.34521 43.5127 1.34989 43.4966 1.35991 43.4839C1.37061 43.4716 1.3833 43.4652 1.39867 43.4652C1.40735 43.4652 1.41504 43.4672 1.42138 43.4706C1.4284 43.4742 1.43508 43.4796 1.44143 43.4866ZM1.4147 43.5695C1.42272 43.5695 1.42874 43.5665 1.43341 43.5601C1.43876 43.5541 1.44143 43.5447 1.44143 43.532C1.44143 43.5207 1.43876 43.5117 1.43341 43.5053C1.42874 43.4983 1.42272 43.4946 1.4147 43.4946C1.40568 43.4946 1.399 43.4983 1.39466 43.5053C1.38998 43.5117 1.38798 43.5207 1.38798 43.532C1.38798 43.5447 1.38998 43.5541 1.39466 43.5601C1.399 43.5665 1.40568 43.5695 1.4147 43.5695Z" fill="#172F5D"/>
<path d="M1.6746 43.5695C1.68262 43.5695 1.68863 43.5665 1.69331 43.5601C1.69865 43.5541 1.70132 43.5447 1.70132 43.532C1.70132 43.5207 1.69865 43.5117 1.69331 43.5053C1.68863 43.4983 1.68262 43.4946 1.6746 43.4946C1.66558 43.4946 1.65856 43.4983 1.65322 43.5053C1.64854 43.5117 1.64653 43.5207 1.64653 43.532C1.64653 43.5447 1.64854 43.5541 1.65322 43.5601C1.65856 43.5665 1.66558 43.5695 1.6746 43.5695ZM1.64654 43.4866C1.65255 43.4796 1.6589 43.4742 1.66524 43.4706C1.67226 43.4672 1.68028 43.4652 1.6893 43.4652C1.70533 43.4652 1.71803 43.4716 1.72805 43.4839C1.73774 43.4966 1.74275 43.5127 1.74275 43.532C1.74275 43.5518 1.73774 43.5678 1.72805 43.5801C1.71803 43.5928 1.70533 43.5989 1.6893 43.5989C1.68028 43.5989 1.67226 43.5975 1.66524 43.5948C1.6589 43.5915 1.65255 43.5855 1.64654 43.5775V43.5962H1.60645V43.4185H1.64654V43.4866Z" fill="#172F5D"/>
<path d="M1.75464 43.4692H1.79607L1.82947 43.5561L1.85887 43.4692H1.9003L1.84685 43.6096C1.8415 43.6236 1.83482 43.6336 1.8268 43.6389C1.81945 43.645 1.8101 43.6483 1.79874 43.6483H1.77602V43.6216H1.78805C1.79506 43.6216 1.80007 43.6202 1.80275 43.6176C1.80609 43.6156 1.80876 43.6116 1.81077 43.6055L1.8121 43.6029L1.75464 43.4692Z" fill="#172F5D"/>
<path d="M2.10227 43.4745V43.5065C2.09425 43.5022 2.08556 43.4992 2.07688 43.4972C2.06886 43.4955 2.06117 43.4945 2.05416 43.4945C2.04681 43.4945 2.04113 43.4958 2.03679 43.4985C2.03311 43.5005 2.03144 43.5032 2.03144 43.5065C2.03144 43.5102 2.03278 43.5129 2.03545 43.5145C2.03812 43.5165 2.04347 43.5179 2.05149 43.5186L2.05817 43.5199C2.07955 43.5226 2.09358 43.5272 2.10093 43.5333C2.10795 43.5386 2.11162 43.548 2.11162 43.5613C2.11162 43.5747 2.10628 43.585 2.09558 43.5921C2.08556 43.5984 2.07086 43.6014 2.05149 43.6014C2.04247 43.6014 2.03345 43.6004 2.02476 43.5987C2.01574 43.5981 2.00672 43.5961 1.99803 43.5934V43.5627C2.00605 43.5673 2.01407 43.5703 2.02209 43.572C2.03077 43.574 2.03979 43.5747 2.04881 43.5747C2.05683 43.5747 2.06251 43.574 2.06619 43.572C2.07053 43.5693 2.07287 43.566 2.07287 43.5613C2.07287 43.558 2.07153 43.5553 2.06886 43.5533C2.06619 43.5516 2.06017 43.5503 2.05149 43.5493L2.0448 43.548C2.0261 43.5463 2.01307 43.5423 2.00605 43.5359C1.9987 43.5299 1.99536 43.5206 1.99536 43.5079C1.99536 43.4945 1.9997 43.4848 2.00872 43.4785C2.01841 43.4714 2.03278 43.4678 2.05149 43.4678C2.0595 43.4678 2.06752 43.4688 2.07554 43.4704C2.08423 43.4714 2.09325 43.4728 2.10227 43.4745Z" fill="#172F5D"/>
<path d="M2.27184 43.5187V43.5962H2.23042V43.5374C2.23042 43.526 2.22975 43.5183 2.22908 43.5147C2.22908 43.5103 2.22841 43.5067 2.22774 43.504C2.22574 43.5013 2.22373 43.4996 2.22106 43.4986C2.21839 43.497 2.21505 43.496 2.21171 43.496C2.20269 43.496 2.19567 43.4996 2.19033 43.5067C2.18565 43.513 2.18364 43.522 2.18364 43.5334V43.5962H2.14355V43.4185H2.18364V43.4866C2.18966 43.4796 2.19634 43.4742 2.20369 43.4706C2.21071 43.4672 2.21839 43.4652 2.22641 43.4652C2.24144 43.4652 2.25247 43.4699 2.25981 43.4786C2.26783 43.4876 2.27184 43.501 2.27184 43.5187Z" fill="#172F5D"/>
<path d="M2.36857 43.5413C2.35955 43.5413 2.35287 43.5426 2.34853 43.5453C2.34385 43.548 2.34185 43.5526 2.34185 43.5586C2.34185 43.564 2.34352 43.568 2.34719 43.5707C2.35053 43.5733 2.35554 43.5747 2.36189 43.5747C2.36991 43.5747 2.37592 43.572 2.3806 43.5667C2.38595 43.5613 2.38862 43.5543 2.38862 43.5453V43.5413L2.36857 43.5413ZM2.43005 43.5252V43.5987H2.38862V43.58C2.38327 43.588 2.37693 43.5941 2.36991 43.5974C2.36356 43.6001 2.35554 43.6014 2.34586 43.6014C2.33249 43.6014 2.3218 43.5981 2.31378 43.5907C2.30577 43.5827 2.30176 43.5727 2.30176 43.56C2.30176 43.5449 2.30643 43.5343 2.31646 43.5279C2.32715 43.5209 2.34318 43.5172 2.36457 43.5172H2.38862V43.5132C2.38862 43.5072 2.38595 43.5025 2.3806 43.4998C2.37592 43.4965 2.36857 43.4945 2.35788 43.4945C2.34886 43.4945 2.34051 43.4955 2.33249 43.4972C2.32514 43.4992 2.31846 43.5019 2.31245 43.5052V43.4745C2.32113 43.4718 2.33015 43.4701 2.33917 43.4691C2.34786 43.4684 2.35655 43.4678 2.36457 43.4678C2.38762 43.4678 2.40399 43.4725 2.41401 43.4811C2.4247 43.4902 2.43005 43.5049 2.43005 43.5252Z" fill="#172F5D"/>
<path d="M2.56345 43.4745V43.5065C2.55543 43.5022 2.54674 43.4992 2.53806 43.4972C2.53004 43.4955 2.52236 43.4945 2.51534 43.4945C2.50799 43.4945 2.50231 43.4958 2.49797 43.4985C2.49429 43.5005 2.49262 43.5032 2.49262 43.5065C2.49262 43.5102 2.49396 43.5129 2.49663 43.5145C2.4993 43.5165 2.50465 43.5179 2.51267 43.5186L2.51935 43.5199C2.54073 43.5226 2.55476 43.5272 2.56211 43.5333C2.56913 43.5386 2.5728 43.548 2.5728 43.5613C2.5728 43.5747 2.56746 43.585 2.55677 43.5921C2.54674 43.5984 2.53204 43.6014 2.51267 43.6014C2.50365 43.6014 2.49463 43.6004 2.48594 43.5987C2.47692 43.5981 2.4679 43.5961 2.45922 43.5934V43.5627C2.46723 43.5673 2.47525 43.5703 2.48327 43.572C2.49195 43.574 2.50098 43.5747 2.51 43.5747C2.51801 43.5747 2.52369 43.574 2.52737 43.572C2.53171 43.5693 2.53405 43.566 2.53405 43.5613C2.53405 43.558 2.53271 43.5553 2.53004 43.5533C2.52737 43.5516 2.52135 43.5503 2.51267 43.5493L2.50599 43.548C2.48728 43.5463 2.47425 43.5423 2.46723 43.5359C2.45988 43.5299 2.45654 43.5206 2.45654 43.5079C2.45654 43.4945 2.46089 43.4848 2.46991 43.4785C2.47959 43.4714 2.49396 43.4678 2.51267 43.4678C2.52069 43.4678 2.5287 43.4688 2.53672 43.4704C2.54541 43.4714 2.55443 43.4728 2.56345 43.4745Z" fill="#172F5D"/>
<path d="M2.73107 43.5187V43.5962H2.68964V43.5374C2.68964 43.526 2.68898 43.5183 2.68831 43.5147C2.68831 43.5103 2.68764 43.5067 2.68697 43.504C2.68497 43.5013 2.68296 43.4996 2.68029 43.4986C2.67762 43.497 2.67428 43.496 2.67094 43.496C2.66192 43.496 2.6549 43.4996 2.64955 43.5067C2.64488 43.513 2.64287 43.522 2.64287 43.5334V43.5962H2.60278V43.4185H2.64287V43.4866C2.64889 43.4796 2.65557 43.4742 2.66292 43.4706C2.66993 43.4672 2.67762 43.4652 2.68564 43.4652C2.70067 43.4652 2.71169 43.4699 2.71904 43.4786C2.72706 43.4876 2.73107 43.501 2.73107 43.5187Z" fill="#172F5D"/>
<path d="M2.82805 43.5413C2.81903 43.5413 2.81235 43.5426 2.808 43.5453C2.80332 43.548 2.80132 43.5526 2.80132 43.5586C2.80132 43.564 2.80299 43.568 2.80667 43.5707C2.81001 43.5733 2.81502 43.5747 2.82137 43.5747C2.82938 43.5747 2.8354 43.572 2.84007 43.5667C2.84542 43.5613 2.84809 43.5543 2.84809 43.5453V43.5413L2.82805 43.5413ZM2.88952 43.5252V43.5987H2.84809V43.58C2.84275 43.588 2.8364 43.5941 2.82938 43.5974C2.82304 43.6001 2.81502 43.6014 2.80533 43.6014C2.79197 43.6014 2.78127 43.5981 2.77326 43.5907C2.76524 43.5827 2.76123 43.5727 2.76123 43.56C2.76123 43.5449 2.76591 43.5343 2.77593 43.5279C2.78662 43.5209 2.80266 43.5172 2.82404 43.5172H2.84809V43.5132C2.84809 43.5072 2.84542 43.5025 2.84007 43.4998C2.8354 43.4965 2.82805 43.4945 2.81736 43.4945C2.80834 43.4945 2.79999 43.4955 2.79197 43.4972C2.78462 43.4992 2.77794 43.5019 2.77192 43.5052V43.4745C2.78061 43.4718 2.78963 43.4701 2.79865 43.4691C2.80733 43.4684 2.81602 43.4678 2.82404 43.4678C2.84709 43.4678 2.86346 43.4725 2.87348 43.4811C2.88417 43.4902 2.88952 43.5049 2.88952 43.5252Z" fill="#172F5D"/>
<path d="M3.05456 43.5212V43.5987H3.01313V43.5386C3.01313 43.5279 3.01246 43.5209 3.01179 43.5172C3.01179 43.5129 3.01113 43.5092 3.01046 43.5065C3.00845 43.5039 3.00645 43.5022 3.00378 43.5012C3.0011 43.4995 2.99776 43.4985 2.99442 43.4985C2.9854 43.4985 2.97839 43.5022 2.97304 43.5092C2.96836 43.5155 2.96636 43.5246 2.96636 43.5359V43.5987H2.92627V43.4704H2.96636V43.4892C2.97237 43.4821 2.97905 43.4768 2.9864 43.4731C2.99342 43.4698 3.0011 43.4678 3.00912 43.4678C3.02416 43.4678 3.03518 43.4725 3.04253 43.4811C3.05055 43.4902 3.05456 43.5035 3.05456 43.5212Z" fill="#172F5D"/>
<path d="M3.09155 43.4185H3.13164V43.5147L3.17841 43.4679H3.22652L3.16371 43.5267L3.23187 43.5962H3.18242L3.13164 43.5427V43.5962H3.09155L3.09155 43.4185Z" fill="#172F5D"/>
<path d="M3.42746 43.474V43.506C3.41944 43.5017 3.41076 43.4987 3.40207 43.4967C3.39405 43.495 3.38637 43.494 3.37935 43.494C3.372 43.494 3.36632 43.4953 3.36198 43.498C3.35831 43.5 3.35664 43.5027 3.35664 43.506C3.35664 43.5097 3.35797 43.5124 3.36065 43.5141C3.36332 43.5161 3.36866 43.5174 3.37668 43.5181L3.38336 43.5194C3.40474 43.5221 3.41878 43.5268 3.42613 43.5328C3.43314 43.5381 3.43682 43.5475 3.43682 43.5608C3.43682 43.5742 3.43147 43.5845 3.42078 43.5916C3.41076 43.5979 3.39606 43.6009 3.37668 43.6009C3.36766 43.6009 3.35864 43.5999 3.34996 43.5982C3.34094 43.5976 3.33191 43.5956 3.32323 43.5929V43.5622C3.33125 43.5668 3.33926 43.5698 3.34728 43.5715C3.35597 43.5735 3.36499 43.5742 3.37401 43.5742C3.38203 43.5742 3.38771 43.5735 3.39138 43.5715C3.39572 43.5688 3.39806 43.5655 3.39806 43.5608C3.39806 43.5575 3.39673 43.5548 3.39405 43.5528C3.39138 43.5511 3.38537 43.5498 3.37668 43.5488L3.37 43.5475C3.35129 43.5458 3.33826 43.5418 3.33125 43.5354C3.3239 43.5294 3.32056 43.5201 3.32056 43.5074C3.32056 43.494 3.3249 43.4843 3.33392 43.478C3.34361 43.471 3.35797 43.4673 3.37668 43.4673C3.3847 43.4673 3.39272 43.4683 3.40074 43.47C3.40942 43.471 3.41844 43.4723 3.42746 43.474Z" fill="#172F5D"/>
<path d="M3.46655 43.4679H3.50664V43.5962H3.46655V43.4679ZM3.46655 43.4185H3.50664V43.4519H3.46655V43.4185Z" fill="#172F5D"/>
<path d="M3.67248 43.5212V43.5987H3.63105V43.5386C3.63105 43.5279 3.63038 43.5209 3.62971 43.5172C3.62971 43.5129 3.62905 43.5092 3.62838 43.5065C3.62637 43.5039 3.62437 43.5022 3.6217 43.5012C3.61902 43.4995 3.61568 43.4985 3.61234 43.4985C3.60332 43.4985 3.59631 43.5022 3.59096 43.5092C3.58628 43.5155 3.58428 43.5246 3.58428 43.5359V43.5987H3.54419V43.4704H3.58428V43.4892C3.59029 43.4821 3.59697 43.4768 3.60432 43.4731C3.61134 43.4698 3.61902 43.4678 3.62704 43.4678C3.64208 43.4678 3.6531 43.4725 3.66045 43.4811C3.66847 43.4902 3.67248 43.5035 3.67248 43.5212Z" fill="#172F5D"/>
<path d="M3.79836 43.5769C3.79202 43.5842 3.78534 43.5896 3.77832 43.5929C3.77197 43.5966 3.76429 43.5982 3.7556 43.5982C3.74023 43.5982 3.72754 43.5922 3.71685 43.5795C3.70683 43.5672 3.70215 43.5515 3.70215 43.5328C3.70215 43.5141 3.70683 43.4987 3.71685 43.486C3.72754 43.4736 3.74023 43.4673 3.7556 43.4673C3.76429 43.4673 3.77197 43.4693 3.77832 43.4726C3.78533 43.4763 3.79202 43.4817 3.79836 43.4887V43.47H3.83979V43.5849C3.83979 43.6053 3.83311 43.621 3.81975 43.6317C3.80638 43.643 3.78767 43.649 3.76362 43.649C3.7556 43.649 3.74758 43.648 3.73957 43.6464C3.73222 43.6454 3.7252 43.6437 3.71818 43.641V43.6089C3.7252 43.6133 3.73188 43.6163 3.73823 43.6183C3.74525 43.621 3.75226 43.6223 3.75961 43.6223C3.77297 43.6223 3.78266 43.619 3.78901 43.6129C3.79502 43.6066 3.79836 43.5976 3.79836 43.5849L3.79836 43.5769ZM3.77164 43.4967C3.76262 43.4967 3.75594 43.5 3.75159 43.506C3.74691 43.5124 3.74491 43.5214 3.74491 43.5328C3.74491 43.5445 3.74691 43.5535 3.75159 43.5595C3.75594 43.5658 3.76262 43.5688 3.77164 43.5688C3.77966 43.5688 3.78567 43.5658 3.79035 43.5595C3.79569 43.5535 3.79836 43.5445 3.79836 43.5328C3.79836 43.5214 3.79569 43.5124 3.79035 43.506C3.78567 43.5 3.77966 43.4967 3.77164 43.4967Z" fill="#172F5D"/>
<path d="M4.01134 43.5187V43.5962H3.96992V43.5374C3.96992 43.526 3.96925 43.5183 3.96858 43.5147C3.96858 43.5103 3.96791 43.5067 3.96725 43.504C3.96524 43.5013 3.96324 43.4996 3.96056 43.4986C3.95789 43.497 3.95455 43.496 3.95121 43.496C3.94219 43.496 3.93517 43.4996 3.92983 43.5067C3.92515 43.513 3.92315 43.522 3.92315 43.5334V43.5962H3.88306V43.4185H3.92315V43.4866C3.92916 43.4796 3.93584 43.4742 3.94319 43.4706C3.95021 43.4672 3.95789 43.4652 3.96591 43.4652C3.98094 43.4652 3.99197 43.4699 3.99932 43.4786C4.00733 43.4876 4.01134 43.501 4.01134 43.5187Z" fill="#172F5D"/>
<path d="M0.571171 43.6528V43.6796H0.548454C0.542107 43.6796 0.537764 43.6809 0.535091 43.6836C0.533086 43.6856 0.532418 43.6889 0.532418 43.6943V43.7023H0.567163V43.7317H0.532418V43.8306H0.492328V43.7317H0.470947V43.7023H0.492328V43.6943C0.492328 43.6802 0.495669 43.6699 0.503019 43.6635C0.511037 43.6565 0.523064 43.6528 0.5391 43.6528L0.571171 43.6528Z" fill="#172F5D"/>
<path d="M0.681061 43.7366C0.677386 43.735 0.673711 43.734 0.670371 43.734C0.666696 43.7333 0.663021 43.7326 0.65968 43.7326C0.648989 43.7326 0.640303 43.7363 0.634289 43.7433C0.628944 43.7497 0.626271 43.759 0.626271 43.7714V43.8302H0.586182V43.7019H0.626271V43.7233C0.631617 43.7153 0.637296 43.7096 0.643643 43.7059C0.650659 43.7016 0.659011 43.6992 0.669034 43.6992H0.673043C0.674713 43.6992 0.677386 43.6999 0.681061 43.7006L0.681061 43.7366Z" fill="#172F5D"/>
<path d="M0.760651 43.7286C0.751631 43.7286 0.744615 43.732 0.73927 43.738C0.734593 43.7443 0.732588 43.7537 0.732588 43.766C0.732588 43.7787 0.734593 43.7884 0.73927 43.7954C0.744615 43.8018 0.751631 43.8048 0.760651 43.8048C0.769337 43.8048 0.776019 43.8018 0.780696 43.7954C0.786042 43.7884 0.788714 43.7787 0.788714 43.766C0.788714 43.7537 0.786042 43.7443 0.780696 43.738C0.776019 43.732 0.769338 43.7286 0.760651 43.7286ZM0.760651 43.6992C0.7827 43.6992 0.800073 43.7056 0.812768 43.7179C0.825129 43.7296 0.831477 43.7457 0.831477 43.766C0.831477 43.7874 0.825129 43.8041 0.812768 43.8155C0.800073 43.8272 0.782701 43.8329 0.760651 43.8329C0.738267 43.8329 0.720896 43.8272 0.708534 43.8155C0.696841 43.8041 0.691162 43.7874 0.691162 43.766C0.691162 43.7457 0.696841 43.7296 0.708534 43.7179C0.720895 43.7056 0.738267 43.6992 0.760651 43.6992Z" fill="#172F5D"/>
<path d="M0.977461 43.7233C0.982806 43.7153 0.988819 43.7096 0.996169 43.7059C1.00319 43.7016 1.0112 43.6992 1.02022 43.6992C1.03425 43.6992 1.04561 43.7039 1.05363 43.7126C1.06165 43.7216 1.06566 43.735 1.06566 43.7527V43.8302H1.02423V43.7634V43.7607V43.7553C1.02423 43.7467 1.02289 43.7403 1.02022 43.7366C1.01755 43.7323 1.01287 43.73 1.00686 43.73C0.999509 43.73 0.99383 43.7333 0.989487 43.7393C0.98481 43.7457 0.982805 43.755 0.982805 43.7674V43.8302H0.941379V43.7634C0.941379 43.7493 0.940042 43.7403 0.93737 43.7366C0.935365 43.7323 0.931356 43.73 0.925343 43.73C0.917325 43.73 0.910978 43.7336 0.906635 43.7406C0.901958 43.747 0.899953 43.756 0.899953 43.7674V43.8302H0.859863V43.7019H0.899953V43.7206C0.905298 43.7136 0.910978 43.7082 0.917325 43.7046C0.924341 43.7012 0.931356 43.6992 0.938706 43.6992C0.947392 43.6992 0.955076 43.7016 0.961423 43.7059C0.968439 43.7106 0.973786 43.7163 0.977461 43.7233Z" fill="#172F5D"/>
<path d="M1.2309 43.6655V43.7016H1.27367V43.731H1.2309V43.7858C1.2309 43.7911 1.23157 43.7952 1.23358 43.7978C1.23625 43.7998 1.24093 43.8005 1.24828 43.8005H1.26966V43.8299H1.23491C1.21888 43.8299 1.20719 43.8269 1.20017 43.8205C1.19382 43.8135 1.19081 43.8018 1.19081 43.7858V43.731H1.16943V43.7016H1.19081V43.6655L1.2309 43.6655Z" fill="#172F5D"/>
<path d="M1.42858 43.7531V43.8306H1.38715V43.7718C1.38715 43.7604 1.38649 43.7527 1.38582 43.749C1.38582 43.7447 1.38515 43.741 1.38448 43.7384C1.38248 43.7357 1.38047 43.734 1.3778 43.733C1.37513 43.7313 1.37179 43.7303 1.36845 43.7303C1.35943 43.7303 1.35241 43.734 1.34706 43.741C1.34239 43.7474 1.34038 43.7564 1.34038 43.7678V43.8306H1.30029V43.6528H1.34038V43.721C1.3464 43.714 1.35308 43.7086 1.36043 43.7049C1.36744 43.7016 1.37513 43.6996 1.38315 43.6996C1.39818 43.6996 1.4092 43.7043 1.41655 43.713C1.42457 43.722 1.42858 43.7353 1.42858 43.7531Z" fill="#172F5D"/>
<path d="M1.58797 43.766V43.7781H1.49309C1.49375 43.7871 1.49709 43.7941 1.50244 43.7994C1.50845 43.8041 1.51714 43.8061 1.52783 43.8061C1.53652 43.8061 1.54554 43.8048 1.55456 43.8021C1.56324 43.7994 1.5726 43.7961 1.58262 43.7914V43.8222C1.5726 43.8258 1.56291 43.8285 1.55322 43.8302C1.5432 43.8318 1.53351 43.8329 1.52382 43.8329C1.50044 43.8329 1.48273 43.8272 1.47037 43.8155C1.45767 43.8041 1.45166 43.7874 1.45166 43.766C1.45166 43.7457 1.45767 43.7296 1.47037 43.7179C1.48273 43.7056 1.5001 43.6992 1.52249 43.6992C1.54186 43.6992 1.55756 43.7056 1.56926 43.7179C1.58162 43.7296 1.58797 43.7457 1.58797 43.766ZM1.54654 43.7527C1.54654 43.7447 1.5442 43.7386 1.53986 43.734C1.53518 43.7286 1.52917 43.7259 1.52115 43.7259C1.5138 43.7259 1.50779 43.7283 1.50244 43.7326C1.4971 43.7373 1.49376 43.744 1.49309 43.7527L1.54654 43.7527Z" fill="#172F5D"/>
<path d="M1.70288 43.6587H1.75233L1.8138 43.7763V43.6587H1.85522V43.8297H1.80712L1.74431 43.7121V43.8297H1.70288L1.70288 43.6587Z" fill="#172F5D"/>
<path d="M1.95987 43.7286C1.95085 43.7286 1.94383 43.732 1.93849 43.738C1.93381 43.7443 1.93181 43.7537 1.93181 43.766C1.93181 43.7787 1.93381 43.7884 1.93849 43.7954C1.94383 43.8018 1.95085 43.8048 1.95987 43.8048C1.96856 43.8048 1.97524 43.8018 1.97992 43.7954C1.98526 43.7884 1.98793 43.7787 1.98793 43.766C1.98793 43.7537 1.98526 43.7443 1.97992 43.738C1.97524 43.732 1.96856 43.7286 1.95987 43.7286ZM1.95987 43.6992C1.98192 43.6992 1.99929 43.7056 2.01199 43.7179C2.02435 43.7296 2.0307 43.7457 2.0307 43.766C2.0307 43.7874 2.02435 43.8041 2.01199 43.8155C1.99929 43.8272 1.98192 43.8329 1.95987 43.8329C1.93749 43.8329 1.92011 43.8272 1.90775 43.8155C1.89606 43.8041 1.89038 43.7874 1.89038 43.766C1.89038 43.7457 1.89606 43.7296 1.90775 43.7179C1.92011 43.7056 1.93749 43.6992 1.95987 43.6992Z" fill="#172F5D"/>
<path d="M2.05908 43.7815V43.7026H2.09917V43.716V43.7427V43.7628V43.7855C2.09984 43.7902 2.10118 43.7932 2.10318 43.7948C2.10485 43.7975 2.10719 43.7999 2.10986 43.8015C2.11254 43.8025 2.11554 43.8029 2.11922 43.8029C2.12724 43.8029 2.13325 43.7999 2.13793 43.7935C2.14327 43.7875 2.14594 43.7785 2.14594 43.7668V43.7026H2.18737V43.8309H2.14594V43.8122C2.1396 43.8202 2.13291 43.8262 2.1259 43.8296C2.11955 43.8323 2.11254 43.8336 2.10452 43.8336C2.08915 43.8336 2.07779 43.8293 2.06977 43.8202C2.06242 43.8115 2.05908 43.7985 2.05908 43.7815Z" fill="#172F5D"/>
<path d="M2.35265 43.7527V43.8302H2.31123V43.77C2.31123 43.7594 2.31056 43.7523 2.30989 43.7487C2.30989 43.7443 2.30922 43.7406 2.30855 43.738C2.30655 43.7353 2.30455 43.7336 2.30187 43.7326C2.2992 43.731 2.29586 43.73 2.29252 43.73C2.2835 43.73 2.27648 43.7336 2.27114 43.7406C2.26646 43.747 2.26446 43.756 2.26446 43.7674V43.8302H2.22437V43.7019H2.26446V43.7206C2.27047 43.7136 2.27715 43.7082 2.2845 43.7046C2.29152 43.7012 2.2992 43.6992 2.30722 43.6992C2.32225 43.6992 2.33328 43.7039 2.34063 43.7126C2.34864 43.7216 2.35265 43.735 2.35265 43.7527Z" fill="#172F5D"/>
<path d="M2.47046 43.6587H2.54396C2.56534 43.6587 2.58171 43.6637 2.5934 43.6734C2.60476 43.6834 2.61077 43.6971 2.61077 43.7148C2.61077 43.7329 2.60476 43.7466 2.5934 43.7562C2.58171 43.7663 2.56534 43.7709 2.54396 43.7709H2.51456V43.8297H2.47046L2.47046 43.6587ZM2.51456 43.6908V43.7389H2.53861C2.5473 43.7389 2.55398 43.7372 2.55866 43.7335C2.563 43.7292 2.56534 43.7228 2.56534 43.7148C2.56534 43.7068 2.563 43.7011 2.55866 43.6974C2.55398 43.6931 2.5473 43.6908 2.53861 43.6908L2.51456 43.6908Z" fill="#172F5D"/>
<path d="M2.7338 43.7366C2.73012 43.735 2.72645 43.734 2.7231 43.734C2.71943 43.7333 2.71576 43.7326 2.71241 43.7326C2.70172 43.7326 2.69304 43.7363 2.68702 43.7433C2.68168 43.7497 2.67901 43.759 2.67901 43.7714V43.8302H2.63892V43.7019H2.67901V43.7233C2.68435 43.7153 2.69003 43.7096 2.69638 43.7059C2.70339 43.7016 2.71175 43.6992 2.72177 43.6992H2.72578C2.72745 43.6992 2.73012 43.6999 2.7338 43.7006L2.7338 43.7366Z" fill="#172F5D"/>
<path d="M2.8168 43.7286C2.80778 43.7286 2.80077 43.732 2.79542 43.738C2.79075 43.7443 2.78874 43.7537 2.78874 43.766C2.78874 43.7787 2.79075 43.7884 2.79542 43.7954C2.80077 43.8018 2.80778 43.8048 2.8168 43.8048C2.82549 43.8048 2.83217 43.8018 2.83685 43.7954C2.84219 43.7884 2.84487 43.7787 2.84487 43.766C2.84487 43.7537 2.84219 43.7443 2.83685 43.738C2.83217 43.732 2.82549 43.7286 2.8168 43.7286ZM2.8168 43.6992C2.83885 43.6992 2.85623 43.7056 2.86892 43.7179C2.88128 43.7296 2.88763 43.7457 2.88763 43.766C2.88763 43.7874 2.88128 43.8041 2.86892 43.8155C2.85623 43.8272 2.83885 43.8329 2.8168 43.8329C2.79442 43.8329 2.77705 43.8272 2.76469 43.8155C2.75299 43.8041 2.74731 43.7874 2.74731 43.766C2.74731 43.7457 2.75299 43.7296 2.76469 43.7179C2.77705 43.7056 2.79442 43.6992 2.8168 43.6992Z" fill="#172F5D"/>
<path d="M2.91295 43.7021H2.95287V43.8271C2.95287 43.8448 2.94888 43.8581 2.9409 43.8671C2.93291 43.8757 2.92094 43.8804 2.90497 43.8804H2.88501V43.8538H2.89166C2.89965 43.8538 2.90497 43.8518 2.90763 43.8484C2.91096 43.8448 2.91295 43.8378 2.91295 43.8271L2.91295 43.7021ZM2.91295 43.6528H2.95287V43.6861H2.91295V43.6528Z" fill="#172F5D"/>
<path d="M3.12288 43.766V43.7781H3.028C3.02867 43.7871 3.03201 43.7941 3.03735 43.7994C3.04337 43.8041 3.05205 43.8061 3.06274 43.8061C3.07143 43.8061 3.08045 43.8048 3.08947 43.8021C3.09816 43.7994 3.10751 43.7961 3.11753 43.7914V43.8222C3.10751 43.8258 3.09782 43.8285 3.08813 43.8302C3.07811 43.8318 3.06842 43.8329 3.05873 43.8329C3.03535 43.8329 3.01764 43.8272 3.00528 43.8155C2.99259 43.8041 2.98657 43.7874 2.98657 43.766C2.98657 43.7457 2.99259 43.7296 3.00528 43.7179C3.01764 43.7056 3.03501 43.6992 3.0574 43.6992C3.07677 43.6992 3.09248 43.7056 3.10417 43.7179C3.11653 43.7296 3.12288 43.7457 3.12288 43.766ZM3.08145 43.7527C3.08145 43.7447 3.07911 43.7386 3.07477 43.734C3.07009 43.7286 3.06408 43.7259 3.05606 43.7259C3.04871 43.7259 3.0427 43.7283 3.03735 43.7326C3.03201 43.7373 3.02867 43.744 3.028 43.7527L3.08145 43.7527Z" fill="#172F5D"/>
<path d="M3.25703 43.7059V43.7393C3.25168 43.736 3.24567 43.7333 3.23965 43.7313C3.23431 43.7296 3.2283 43.7286 3.22228 43.7286C3.21159 43.7286 3.20257 43.7323 3.19556 43.7393C3.18921 43.7457 3.1862 43.7547 3.1862 43.766C3.1862 43.7787 3.18921 43.7884 3.19556 43.7954C3.20257 43.8018 3.21159 43.8048 3.22228 43.8048C3.2293 43.8048 3.23565 43.8041 3.24099 43.8021C3.247 43.7994 3.25235 43.7964 3.25703 43.7928V43.8262C3.25068 43.8288 3.244 43.8305 3.23698 43.8315C3.23063 43.8322 3.22429 43.8329 3.21827 43.8329C3.19489 43.8329 3.17685 43.8272 3.16348 43.8155C3.15079 43.8041 3.14478 43.7874 3.14478 43.766C3.14478 43.7457 3.15079 43.7296 3.16348 43.7179C3.17685 43.7056 3.19489 43.6992 3.21827 43.6992C3.22429 43.6992 3.23063 43.7002 3.23698 43.7019C3.244 43.7029 3.25068 43.7042 3.25703 43.7059Z" fill="#172F5D"/>
<path d="M3.3354 43.6665V43.7026H3.37816V43.732H3.3354V43.7868C3.3354 43.7921 3.33606 43.7961 3.33807 43.7988C3.34074 43.8008 3.34542 43.8015 3.35277 43.8015H3.37415V43.8309H3.33941C3.32337 43.8309 3.31168 43.8279 3.30466 43.8215C3.29831 43.8145 3.29531 43.8028 3.29531 43.7868V43.732H3.27393V43.7026H3.29531V43.6665L3.3354 43.6665Z" fill="#172F5D"/>
</svg>
