<svg width="38" height="38" viewBox="0 0 38 38" fill="none" xmlns="http://www.w3.org/2000/svg">
<g clip-path="url(#clip0_2763_8264)">
<path d="M19.2211 30.2306C19.0166 30.2306 18.8204 30.1497 18.6753 30.0055L8.76638 20.0965C8.62682 19.9574 8.54586 19.7701 8.54012 19.5731C8.53439 19.3761 8.60432 19.1844 8.73554 19.0373L16.1623 10.7179C21.3534 4.6449 29.8069 0.714922 37.1782 0.839806C37.3762 0.844505 37.5649 0.925282 37.705 1.06538C37.8451 1.20547 37.9258 1.39412 37.9305 1.59219C38.1017 8.96803 34.127 17.4169 28.0385 22.6189L19.733 30.0348C19.5925 30.1612 19.4101 30.231 19.2211 30.2306ZM10.3714 19.5215L19.2504 28.4005L27.0256 21.4595C32.5852 16.7077 36.2778 9.13454 36.3918 2.38004C29.6373 2.49259 22.0657 6.18513 17.3232 11.7324L10.3714 19.5215Z" fill="#172F5D" stroke="#172F5D" stroke-width="0.440506"/>
<path d="M22.1734 35.8735C22.0985 35.8738 22.0242 35.8624 21.9529 35.8396C21.6754 35.7471 21.4472 35.5343 21.4071 35.2445L20.3494 27.864C20.3335 27.668 20.3929 27.4732 20.5155 27.3195C20.6382 27.1657 20.8149 27.0646 21.0096 27.0366C21.2043 27.0087 21.4024 27.0561 21.5633 27.1692C21.7243 27.2822 21.836 27.4525 21.8758 27.6451L22.7022 33.4113C25.4039 30.1869 26.891 26.118 26.9051 21.9112C26.9051 21.7068 26.9863 21.5107 27.1308 21.3661C27.2754 21.2216 27.4715 21.1404 27.6759 21.1404C27.8804 21.1404 28.0765 21.2216 28.221 21.3661C28.3656 21.5107 28.4468 21.7068 28.4468 21.9112C28.4468 27.0191 26.3778 32.0191 22.77 35.6253C22.6158 35.7795 22.3907 35.8735 22.1734 35.8735ZM11.0186 18.4299C10.982 18.4304 10.9454 18.4278 10.9092 18.4222L3.52871 17.3646C3.38657 17.3442 3.25296 17.2845 3.14293 17.1922C3.03289 17.1 2.95081 16.9788 2.90594 16.8424C2.86106 16.706 2.85517 16.5598 2.88893 16.4202C2.92269 16.2807 2.99476 16.1533 3.09701 16.0525C6.74974 12.4017 11.6976 10.3428 16.862 10.3248C17.0664 10.3248 17.2625 10.406 17.4071 10.5506C17.5516 10.6952 17.6328 10.8913 17.6328 11.0957C17.6328 11.3002 17.5516 11.4962 17.4071 11.6408C17.2625 11.7854 17.0664 11.8666 16.862 11.8666C12.6668 11.8666 8.55026 13.3822 5.35417 16.0679L11.1281 16.8959C11.3212 16.9234 11.4967 17.0231 11.6193 17.1749C11.7418 17.3267 11.8022 17.5193 11.7883 17.7139C11.7744 17.9085 11.6873 18.0906 11.5444 18.2235C11.4016 18.3563 11.2137 18.4301 11.0186 18.4299ZM27.3491 15.2755C26.8429 15.2764 26.3415 15.1774 25.8737 14.9839C25.4059 14.7905 24.9809 14.5066 24.6232 14.1484C23.9021 13.4246 23.4971 12.4444 23.4971 11.4226C23.4971 10.4008 23.9021 9.42059 24.6232 8.69672C25.3467 7.97479 26.327 7.56934 27.3491 7.56934C28.3711 7.56934 29.3515 7.97479 30.0749 8.69672C30.7961 9.42059 31.2011 10.4008 31.2011 11.4226C31.2011 12.4444 30.7961 13.4246 30.0749 14.1484C29.7173 14.5067 29.2923 14.7906 28.8245 14.9841C28.3567 15.1775 27.8553 15.2765 27.3491 15.2755ZM27.3491 9.11146C26.757 9.11146 26.1635 9.33656 25.7133 9.78675C25.2807 10.2213 25.0379 10.8095 25.0379 11.4226C25.0379 12.0357 25.2807 12.6238 25.7133 13.0584C26.148 13.4905 26.7361 13.7331 27.3491 13.7331C27.9621 13.7331 28.5502 13.4905 28.9849 13.0584C29.4174 12.6238 29.6602 12.0357 29.6602 11.4226C29.6602 10.8095 29.4174 10.2213 28.9849 9.78675C28.5504 9.3541 27.9622 9.11128 27.3491 9.11146ZM1.70479 37.8378C1.58472 37.8377 1.46632 37.8097 1.35902 37.7558C1.25172 37.7019 1.15849 37.6237 1.08676 37.5274C1.01503 37.4311 0.966787 37.3194 0.94587 37.2012C0.924953 37.0829 0.931943 36.9615 0.966282 36.8464C1.21913 36.003 3.484 28.5501 5.13369 26.9004C6.028 26.008 7.23982 25.5068 8.50324 25.5068C9.76665 25.5068 10.9785 26.008 11.8728 26.9004C12.7652 27.7947 13.2664 29.0065 13.2664 30.27C13.2664 31.5334 12.7652 32.7452 11.8728 33.6395C10.2231 35.2892 2.77016 37.5541 1.92681 37.8069C1.85449 37.827 1.77983 37.8373 1.70479 37.8378ZM8.50401 27.0469C7.67762 27.0469 6.85277 27.3614 6.22373 27.9889C5.33412 28.8801 3.85402 32.8594 2.87654 35.8951C5.91075 34.9176 9.8916 33.4375 10.7812 32.5479C11.3846 31.9428 11.7234 31.123 11.7234 30.2684C11.7234 29.4138 11.3846 28.5941 10.7812 27.9889C10.4824 27.6897 10.1273 27.4524 9.73656 27.2908C9.34577 27.1291 8.92691 27.0462 8.50401 27.0469Z" fill="#172F5D"/>
<path d="M29.5292 13.6042H29.5446M22.1734 35.8735C22.0985 35.8738 22.0242 35.8624 21.9529 35.8396C21.6754 35.7471 21.4472 35.5343 21.4071 35.2445L20.3494 27.864C20.3335 27.668 20.3929 27.4732 20.5155 27.3195C20.6382 27.1657 20.8149 27.0646 21.0096 27.0366C21.2043 27.0087 21.4024 27.0561 21.5633 27.1692C21.7243 27.2822 21.836 27.4525 21.8758 27.6451L22.7022 33.4113C25.4039 30.1869 26.891 26.118 26.9051 21.9112C26.9051 21.7068 26.9863 21.5107 27.1308 21.3661C27.2754 21.2216 27.4715 21.1404 27.6759 21.1404C27.8804 21.1404 28.0765 21.2216 28.221 21.3661C28.3656 21.5107 28.4468 21.7068 28.4468 21.9112C28.4468 27.0191 26.3778 32.0191 22.77 35.6253C22.6158 35.7795 22.3907 35.8735 22.1734 35.8735ZM11.0186 18.4299C10.982 18.4304 10.9454 18.4278 10.9092 18.4222L3.52871 17.3646C3.38657 17.3442 3.25296 17.2845 3.14293 17.1922C3.03289 17.1 2.95081 16.9788 2.90594 16.8424C2.86106 16.706 2.85517 16.5598 2.88893 16.4202C2.92269 16.2807 2.99476 16.1533 3.09701 16.0525C6.74974 12.4017 11.6976 10.3428 16.862 10.3248C17.0664 10.3248 17.2625 10.406 17.4071 10.5506C17.5516 10.6952 17.6328 10.8913 17.6328 11.0957C17.6328 11.3002 17.5516 11.4962 17.4071 11.6408C17.2625 11.7854 17.0664 11.8666 16.862 11.8666C12.6668 11.8666 8.55026 13.3822 5.35417 16.0679L11.1281 16.8959C11.3212 16.9234 11.4967 17.0231 11.6193 17.1749C11.7418 17.3267 11.8022 17.5193 11.7883 17.7139C11.7744 17.9085 11.6873 18.0906 11.5444 18.2235C11.4016 18.3563 11.2137 18.4301 11.0186 18.4299ZM27.3491 15.2755C26.8429 15.2764 26.3415 15.1774 25.8737 14.9839C25.4059 14.7905 24.9809 14.5066 24.6232 14.1484C23.9021 13.4246 23.4971 12.4444 23.4971 11.4226C23.4971 10.4008 23.9021 9.42059 24.6232 8.69672C25.3467 7.97479 26.327 7.56934 27.3491 7.56934C28.3711 7.56934 29.3515 7.97479 30.0749 8.69672C30.7961 9.42059 31.2011 10.4008 31.2011 11.4226C31.2011 12.4444 30.7961 13.4246 30.0749 14.1484C29.7173 14.5067 29.2923 14.7906 28.8245 14.9841C28.3567 15.1775 27.8553 15.2765 27.3491 15.2755ZM27.3491 9.11146C26.757 9.11146 26.1635 9.33655 25.7133 9.78675C25.2807 10.2213 25.0379 10.8095 25.0379 11.4226C25.0379 12.0357 25.2807 12.6238 25.7133 13.0584C26.148 13.4905 26.7361 13.7331 27.3491 13.7331C27.9621 13.7331 28.5502 13.4905 28.9849 13.0584C29.4174 12.6238 29.6602 12.0357 29.6602 11.4226C29.6602 10.8095 29.4174 10.2213 28.9849 9.78675C28.5504 9.3541 27.9622 9.11128 27.3491 9.11146ZM1.70479 37.8378C1.58472 37.8377 1.46632 37.8097 1.35902 37.7558C1.25172 37.7019 1.15849 37.6237 1.08676 37.5274C1.01503 37.4311 0.966787 37.3194 0.94587 37.2012C0.924953 37.0829 0.931943 36.9614 0.966282 36.8464C1.21913 36.003 3.484 28.5501 5.13369 26.9004C6.028 26.008 7.23982 25.5068 8.50324 25.5068C9.76665 25.5068 10.9785 26.008 11.8728 26.9004C12.7652 27.7947 13.2664 29.0065 13.2664 30.27C13.2664 31.5334 12.7652 32.7452 11.8728 33.6395C10.2231 35.2892 2.77016 37.5541 1.92681 37.8069C1.85449 37.827 1.77983 37.8373 1.70479 37.8378ZM8.50401 27.0469C7.67762 27.0469 6.85277 27.3614 6.22373 27.9889C5.33412 28.8801 3.85402 32.8594 2.87654 35.8951C5.91075 34.9176 9.8916 33.4375 10.7812 32.5479C11.3846 31.9428 11.7234 31.123 11.7234 30.2684C11.7234 29.4138 11.3846 28.5941 10.7812 27.9889C10.4824 27.6897 10.1273 27.4524 9.73656 27.2908C9.34577 27.1291 8.92691 27.0462 8.50401 27.0469Z" stroke="#172F5D" stroke-width="0.440506"/>
</g>
<defs>
<clipPath id="clip0_2763_8264">
<rect width="37.0025" height="37.0025" fill="white" transform="translate(0.934082 0.835449)"/>
</clipPath>
</defs>
</svg>
