<svg width="54" height="43" viewBox="0 0 54 43" fill="none" xmlns="http://www.w3.org/2000/svg">
<path d="M52.5509 32.5791H50.1083V3.97211C50.1083 2.98221 49.7222 2.03307 49.0348 1.33349C48.3477 0.633851 47.4157 0.240723 46.4441 0.240723H7.35866C6.387 0.240723 5.45495 0.633851 4.76797 1.33349C4.08053 2.03312 3.69447 2.98223 3.69447 3.97211V32.5791H1.25181C0.577453 32.5791 0.0302734 33.1359 0.0302734 33.823C0.0331361 36.1314 0.93446 38.3444 2.53752 39.9765C4.14024 41.6086 6.31332 42.5269 8.5802 42.5293H45.2221C47.4889 42.5268 49.6621 41.6086 51.2648 39.9765C52.8678 38.3444 53.7692 36.1315 53.772 33.823C53.772 33.4932 53.6432 33.1767 53.4142 32.9435C53.1852 32.7103 52.8748 32.5791 52.5509 32.5791ZM6.13817 3.97211C6.13817 3.28497 6.68494 2.72818 7.35929 2.72818H46.4447C46.7686 2.72818 47.079 2.85936 47.3084 3.09257C47.5374 3.32578 47.6658 3.64228 47.6658 3.97211V32.5791H6.13902L6.13817 3.97211ZM45.2225 40.0419H8.58062C7.17346 40.0402 5.80954 39.5446 4.71929 38.6385C3.62903 37.7318 2.87903 36.4704 2.59563 35.0665H20.7951C20.7951 35.3964 20.9236 35.7129 21.1526 35.9461C21.382 36.1793 21.6924 36.3105 22.0163 36.3105H31.7877C32.1116 36.3105 32.422 36.1793 32.6514 35.9461C32.8805 35.7129 33.0089 35.3964 33.0089 35.0665H51.2084C50.925 36.4704 50.175 37.7318 49.0847 38.6385C47.9945 39.5446 46.6298 40.0402 45.2225 40.0419Z" fill="#172F5D"/>
</svg>
