<svg width="54" height="50" viewBox="0 0 54 50" fill="none" xmlns="http://www.w3.org/2000/svg">
<path d="M26.9264 35.5991C22.1036 35.5991 18.1777 31.6731 18.1777 26.8503C18.1777 22.0275 22.1036 18.1016 26.9264 18.1016C31.7492 18.1016 35.6752 22.0275 35.6752 26.8503C35.6752 31.6731 31.7492 35.5991 26.9264 35.5991ZM26.9264 19.8834C23.0836 19.8834 19.9595 23.0075 19.9595 26.8503C19.9595 30.6931 23.0836 33.8172 26.9264 33.8172C30.7692 33.8172 33.8933 30.6931 33.8933 26.8503C33.8933 23.0075 30.7692 19.8834 26.9264 19.8834ZM36.3582 49.3488H17.5006C15.7069 49.3488 14.2517 47.8936 14.2517 46.0999V42.4412C14.2517 40.9505 15.2614 39.6497 16.7106 39.2874L22.5015 37.8382C22.7569 37.7729 23.0242 37.7432 23.2915 37.7432H30.5673C30.8345 37.7432 31.1018 37.7788 31.3572 37.8382L37.1481 39.2874C38.5973 39.6497 39.607 40.9445 39.607 42.4412V46.0999C39.607 47.8936 38.1519 49.3488 36.3582 49.3488ZM23.2915 39.525C23.1727 39.525 23.0539 39.5369 22.9351 39.5666L17.1442 41.0158C16.4909 41.1821 16.0335 41.7642 16.0335 42.4412V46.0999C16.0335 46.9077 16.6928 47.567 17.5006 47.567H36.3582C37.1659 47.567 37.8252 46.9077 37.8252 46.0999V42.4412C37.8252 41.7642 37.3679 41.1821 36.7145 41.0158L30.9236 39.5666C30.8048 39.5369 30.686 39.525 30.5673 39.525H23.2915Z" fill="#172F5D" stroke="#172F5D" stroke-width="0.440506"/>
<path d="M26.9262 8.09412C24.8118 8.09412 23.0894 6.37169 23.0894 4.25727C23.0894 2.14284 24.8118 0.42041 26.9262 0.42041C29.0406 0.42041 30.7631 2.14284 30.7631 4.25727C30.7631 6.37169 29.0406 8.09412 26.9262 8.09412ZM26.9262 2.20223C25.7918 2.20223 24.8712 3.12284 24.8712 4.25727C24.8712 5.39169 25.7918 6.3123 26.9262 6.3123C28.0606 6.3123 28.9812 5.39169 28.9812 4.25727C28.9812 3.12284 28.0606 2.20223 26.9262 2.20223Z" fill="#172F5D" stroke="#172F5D" stroke-width="0.440506"/>
<path d="M17.8173 16.4822L16.5574 17.7422L18.6573 19.8421L19.9172 18.5821L17.8173 16.4822Z" fill="#172F5D" stroke="#172F5D" stroke-width="0.440506"/>
<path d="M13.6706 12.3299L12.4106 13.5898L14.5105 15.6897L15.7705 14.4298L13.6706 12.3299Z" fill="#172F5D" stroke="#172F5D" stroke-width="0.440506"/>
<path d="M10.9511 14.7108C9.97111 14.7108 8.98517 14.3366 8.23681 13.5883C6.74008 12.0915 6.74008 9.65639 8.23681 8.15966C9.73354 6.66293 12.1687 6.66293 13.6654 8.15966C15.1622 9.65639 15.1622 12.0915 13.6654 13.5883C12.9171 14.3366 11.9371 14.7108 10.9511 14.7108ZM9.49596 12.3291C10.2978 13.1309 11.6044 13.1309 12.4063 12.3291C13.2081 11.5273 13.2081 10.2206 12.4063 9.41881C11.6044 8.61699 10.2978 8.61699 9.49596 9.41881C8.69414 10.2206 8.69414 11.5273 9.49596 12.3291Z" fill="#172F5D" stroke="#172F5D" stroke-width="0.440506"/>
<path d="M16.1235 25.9595H13.1538V27.7413H16.1235V25.9595Z" fill="#172F5D" stroke="#172F5D" stroke-width="0.440506"/>
<path d="M10.249 25.9595H7.2793V27.7413H10.249V25.9595Z" fill="#172F5D" stroke="#172F5D" stroke-width="0.440506"/>
<path d="M4.33295 30.6879C2.21852 30.6879 0.496094 28.9654 0.496094 26.851C0.496094 24.7366 2.21852 23.0142 4.33295 23.0142C6.44738 23.0142 8.16981 24.7366 8.16981 26.851C8.16981 28.9654 6.44738 30.6879 4.33295 30.6879ZM4.33295 24.796C3.19852 24.796 2.27792 25.7166 2.27792 26.851C2.27792 27.9854 3.19852 28.9061 4.33295 28.9061C5.46738 28.9061 6.38798 27.9854 6.38798 26.851C6.38798 25.7166 5.46738 24.796 4.33295 24.796Z" fill="#172F5D" stroke="#172F5D" stroke-width="0.440506"/>
<path d="M40.699 25.9595H37.7292V27.7413H40.699V25.9595Z" fill="#172F5D" stroke="#172F5D" stroke-width="0.440506"/>
<path d="M46.5737 25.9595H43.604V27.7413H46.5737V25.9595Z" fill="#172F5D" stroke="#172F5D" stroke-width="0.440506"/>
<path d="M49.5195 30.6879C47.405 30.6879 45.6826 28.9654 45.6826 26.851C45.6826 24.7366 47.405 23.0142 49.5195 23.0142C51.6339 23.0142 53.3563 24.7366 53.3563 26.851C53.3563 28.9654 51.6339 30.6879 49.5195 30.6879ZM49.5195 24.796C48.385 24.796 47.4644 25.7166 47.4644 26.851C47.4644 27.9854 48.385 28.9061 49.5195 28.9061C50.6539 28.9061 51.5745 27.9854 51.5745 26.851C51.5745 25.7166 50.6539 24.796 49.5195 24.796Z" fill="#172F5D" stroke="#172F5D" stroke-width="0.440506"/>
<path d="M36.0367 16.4816L33.9368 18.5815L35.1967 19.8415L37.2966 17.7416L36.0367 16.4816Z" fill="#172F5D" stroke="#172F5D" stroke-width="0.440506"/>
<path d="M40.1888 12.3269L38.0889 14.4268L39.3488 15.6867L41.4487 13.5868L40.1888 12.3269Z" fill="#172F5D" stroke="#172F5D" stroke-width="0.440506"/>
<path d="M42.9033 14.7108C41.9233 14.7108 40.9373 14.3366 40.189 13.5883C38.6922 12.0915 38.6922 9.65639 40.189 8.15966C41.6857 6.66293 44.1208 6.66293 45.6176 8.15966C47.1143 9.65639 47.1143 12.0915 45.6176 13.5883C44.8692 14.3366 43.8892 14.7108 42.9033 14.7108ZM42.9033 8.81893C42.3747 8.81893 41.852 9.02087 41.4481 9.41881C40.6463 10.2206 40.6463 11.5273 41.4481 12.3291C42.2499 13.1309 43.5566 13.1309 44.3584 12.3291C45.1602 11.5273 45.1602 10.2206 44.3584 9.41881C43.9605 9.02087 43.4319 8.81893 42.9033 8.81893Z" fill="#172F5D" stroke="#172F5D" stroke-width="0.440506"/>
</svg>
