<svg width="37" height="37" viewBox="0 0 37 37" fill="none" xmlns="http://www.w3.org/2000/svg">
<path d="M19.074 14.4523C19.0717 14.3003 19.0097 14.1554 18.9014 14.0489C18.7931 13.9423 18.6472 13.8827 18.4953 13.8828C18.3434 13.883 18.1976 13.9429 18.0895 14.0497C17.9814 14.1565 17.9197 14.3015 17.9177 14.4534L17.9214 18.2609L16.4572 19.7282C16.3492 19.8368 16.2887 19.9839 16.2891 20.137C16.2894 20.2902 16.3505 20.437 16.4589 20.5451C16.5674 20.6533 16.7143 20.7139 16.8675 20.7139C17.0206 20.7138 17.1675 20.6529 17.2758 20.5446L18.9084 18.9087C19.0164 18.7997 19.0773 18.6526 19.0779 18.4991L19.074 14.4523Z" fill="#172F5D" stroke="#172F5D" stroke-width="0.2"/>
<path d="M32.9967 11.306C31.5299 8.34716 29.1932 5.90775 26.3002 4.31505C26.1659 4.24108 26.0077 4.2235 25.8604 4.26617C25.7131 4.30884 25.5888 4.40827 25.5148 4.54259C25.4409 4.6769 25.4233 4.8351 25.466 4.98238C25.5086 5.12966 25.6081 5.25396 25.7424 5.32792C28.1459 6.65133 30.1413 8.60753 31.512 10.9844H26.1837C25.7527 9.33673 25.0939 7.75726 24.2265 6.29162C22.9142 4.14143 20.9615 2.32059 18.5 2.3125C14.2075 2.3148 10.0915 4.021 7.05625 7.05625C4.021 10.0915 2.3148 14.2075 2.3125 18.5C2.31246 18.5759 2.32738 18.6511 2.35642 18.7213C2.38546 18.7915 2.42804 18.8552 2.48173 18.9089C2.53542 18.9626 2.59917 19.0052 2.66934 19.0342C2.7395 19.0632 2.81469 19.0782 2.89063 19.0781H9.84506C9.87326 21.0236 10.1024 22.961 10.5287 24.8594H4.87952C4.34808 23.7207 3.96212 22.5196 3.73072 21.2845C3.70257 21.1337 3.61567 21.0003 3.48915 20.9136C3.36262 20.8268 3.20683 20.7939 3.05605 20.8221C2.90527 20.8502 2.77184 20.9371 2.68513 21.0637C2.59841 21.1902 2.56551 21.346 2.59366 21.4968C3.03008 23.8462 3.98385 26.069 5.38581 28.0042C6.78777 29.9393 8.60279 31.5382 10.6993 32.6849C24.7019 40.1682 39.8792 25.5699 32.9967 11.306ZM33.5116 17.9219H27.1549C27.1267 15.9764 26.8976 14.039 26.4713 12.1406H32.1105C32.9588 13.9549 33.4352 15.9206 33.5116 17.9219ZM32.1104 24.8594H26.4712C26.8976 22.961 27.1268 21.0236 27.1549 19.0781H33.5116C33.4352 21.0794 32.9587 23.0452 32.1104 24.8594ZM19.086 25.9858L19.0849 24.8588C19.0847 24.7055 19.0237 24.5585 18.9152 24.4502C18.8066 24.3419 18.6595 24.2811 18.5062 24.2812C18.3529 24.2814 18.2059 24.3425 18.0976 24.451C17.9893 24.5595 17.9285 24.7066 17.9287 24.86L17.9297 25.9868C16.144 25.8488 14.4662 25.0779 13.1983 23.8127C11.9305 22.5476 11.156 20.8715 11.0142 19.086L12.1412 19.0849C12.2926 19.0819 12.4367 19.0196 12.5427 18.9115C12.6487 18.8033 12.708 18.6579 12.7079 18.5065C12.7078 18.3551 12.6484 18.2098 12.5423 18.1017C12.4362 17.9937 12.292 17.9315 12.1406 17.9287L11.0131 17.9298C11.151 16.1439 11.9219 14.466 13.1871 13.1982C14.4522 11.9303 16.1285 11.1558 17.9141 11.0142L17.9151 12.1412C17.9153 12.2945 17.9764 12.4415 18.0849 12.5498C18.1386 12.6034 18.2024 12.646 18.2726 12.6749C18.3427 12.7039 18.4179 12.7188 18.4938 12.7187C18.5698 12.7187 18.6449 12.7036 18.715 12.6745C18.7852 12.6454 18.8488 12.6027 18.9025 12.549C18.9561 12.4953 18.9986 12.4315 19.0276 12.3613C19.0566 12.2911 19.0715 12.216 19.0714 12.14L19.0703 11.0132C20.856 11.1512 22.5339 11.9221 23.8017 13.1872C25.0695 14.4524 25.8441 16.1285 25.9858 17.914L24.8588 17.9151C24.7075 17.9181 24.5633 17.9804 24.4573 18.0885C24.3514 18.1967 24.2921 18.3421 24.2922 18.4935C24.2922 18.6449 24.3517 18.7902 24.4578 18.8983C24.5638 19.0063 24.708 19.0684 24.8594 19.0713L25.9869 19.0702C25.8491 20.856 25.0781 22.534 23.813 23.8018C22.5478 25.0697 20.8715 25.8442 19.086 25.9858ZM22.9963 6.51181C24.3121 8.65012 25.1902 11.0284 25.5796 13.5087C24.777 12.3786 23.7154 11.4571 22.4837 10.8212C21.2521 10.1853 19.886 9.85351 18.4999 9.85357C17.1137 9.85362 15.7478 10.1855 14.5161 10.8215C13.2845 11.4575 12.223 12.3791 11.4204 13.5093C11.7767 11.3443 12.4829 9.25165 13.5114 7.31351C16.1329 2.48247 20.2927 2.26934 22.9963 6.51181ZM11.2582 5.3279C12.3249 4.74123 13.4595 4.28743 14.6366 3.97666C13.7843 4.78273 13.0643 5.71811 12.5031 6.74837C11.7742 8.08834 11.2075 9.51036 10.8149 10.9844H5.4762C6.84951 8.60523 8.84949 6.64867 11.2582 5.3279ZM4.87952 12.1406H10.5289C10.1024 14.039 9.87326 15.9764 9.84506 17.9219H3.4823C3.55873 15.921 4.03375 13.9555 4.87952 12.1406ZM5.4762 26.0156H10.8148C11.2071 27.4931 11.7763 28.9178 12.5099 30.259C12.5853 30.3921 12.7104 30.4898 12.8577 30.5308C13.0051 30.5718 13.1627 30.5527 13.2961 30.4777C13.4294 30.4027 13.5275 30.2779 13.5689 30.1306C13.6104 29.9833 13.5917 29.8257 13.5171 29.6921C12.4844 27.7535 11.7761 25.6588 11.4205 23.4913C12.2231 24.6214 13.2847 25.5429 14.5163 26.1788C15.748 26.8146 17.114 27.1464 18.5002 27.1464C19.8863 27.1463 21.2523 26.8144 22.4839 26.1784C23.7155 25.5425 24.777 24.6209 25.5796 23.4907C24.9883 27.3575 22.5106 33.5031 18.4999 33.5312C15.8619 33.5245 13.2716 32.8271 10.9868 31.5086C8.70189 30.19 6.80204 28.2963 5.4762 26.0156ZM25.7418 31.6721C24.675 32.2588 23.5404 32.7126 22.3633 33.0233C23.2157 32.2173 23.9358 31.2819 24.4969 30.2516C25.2258 28.9117 25.7926 27.4896 26.1851 26.0156H31.512C30.1411 28.3926 28.1455 30.3488 25.7418 31.6721Z" fill="#172F5D" stroke="#172F5D" stroke-width="0.2"/>
</svg>
