<svg width="33" height="40" viewBox="0 0 33 40" fill="none" xmlns="http://www.w3.org/2000/svg">
<path d="M16.5027 0C12.4882 0 9.21652 3.24933 9.21652 7.23793C9.21652 7.74254 9.31716 8.26329 9.477 8.78857C3.72172 11.4797 0 17.2384 0 23.6087C0 32.6529 7.39958 39.9996 16.5028 39.9996C25.606 39.9996 33 32.6533 33 23.6087C33 17.2376 29.2784 11.4776 23.5222 8.78699C23.6817 8.26194 23.7827 7.74181 23.7827 7.23753C23.7827 3.24894 20.5171 0 16.5027 0ZM16.5027 1.38691C19.7628 1.38691 22.3864 3.99882 22.3864 7.23793C22.3864 7.58745 22.2885 8.01249 22.1178 8.48401C21.8545 8.64035 21.7242 8.949 21.7972 9.24495C21.5803 9.70777 21.3117 10.1981 21.0107 10.6957C20.8783 10.7975 20.7867 10.943 20.753 11.1062C20.2916 11.8309 19.7746 12.5596 19.2427 13.2323C17.8724 14.965 16.889 15.9331 16.5026 16.3244C16.1175 15.9344 15.127 14.9663 13.7556 13.2323C13.2272 12.5643 12.7152 11.8408 12.2563 11.121C12.2251 10.943 12.1254 10.7842 11.978 10.678C11.6851 10.1929 11.4234 9.71491 11.2106 9.26262C11.3003 8.95087 11.1604 8.61901 10.8738 8.4636C10.7077 8.00016 10.6133 7.58256 10.6133 7.23797C10.6133 3.99886 13.2425 1.38691 16.5027 1.38691ZM16.5027 3.75298C14.8905 3.75298 13.565 5.06872 13.565 6.6704C13.565 8.27209 14.8905 9.58228 16.5027 9.58228C18.1148 9.58228 19.4334 8.27217 19.4334 6.6704C19.4334 5.06864 18.1148 3.75298 16.5027 3.75298ZM16.5027 5.13989C17.3605 5.13989 18.0375 5.81818 18.0375 6.6704C18.0375 7.52263 17.3604 8.19537 16.5027 8.19537C15.6449 8.19537 14.9622 7.52266 14.9622 6.6704C14.9622 5.81815 15.6449 5.13989 16.5027 5.13989ZM9.99336 10.0795C10.1971 10.4987 10.4299 10.9178 10.6873 11.3336C8.91183 14.3074 7.90574 18.4768 7.80946 22.9179H1.42164C1.67745 17.3897 4.97536 12.4602 9.99336 10.0795ZM23.0064 10.0795C28.0242 12.4602 31.3212 17.3899 31.5772 22.9183H25.1894C25.0935 18.4768 24.0877 14.3084 22.3116 11.3341C22.569 10.918 22.8026 10.499 23.0064 10.0795ZM11.564 12.6354C11.9213 13.1316 12.29 13.6211 12.6586 14.0873C13.9265 15.6906 14.9566 16.7723 15.4981 17.3283V22.9177H9.20687C9.29941 18.983 10.164 15.2857 11.564 12.6354ZM21.4366 12.6354C22.8378 15.2851 23.7062 18.9827 23.799 22.9175H16.8943V17.9401C16.9295 17.9166 16.9622 17.8897 16.9925 17.8603C16.9925 17.8603 18.6638 16.2071 20.3405 14.0868C20.7091 13.6206 21.0792 13.1316 21.4366 12.6354ZM1.41373 24.3045H7.80713C7.89749 28.4565 8.77709 32.2142 10.2117 35.0249C10.8121 36.2013 11.5226 37.2167 12.3177 38.0262C6.22338 36.287 1.71365 30.8486 1.41373 24.3045ZM9.20431 24.3045H15.498V38.447C14.0121 38.0052 12.5897 36.6118 11.4577 34.3946C10.1491 31.8309 9.29589 28.2645 9.20431 24.3045ZM16.8939 24.3045H23.8012C23.7096 28.2646 22.8552 31.8313 21.5465 34.3948C20.2593 36.9163 18.5996 38.3912 16.8939 38.588V24.3045ZM25.192 24.3045H31.5854C31.2853 30.8502 26.7773 36.2897 20.6814 38.0269C21.4765 37.2171 22.1879 36.2014 22.7889 35.0243C24.2235 32.214 25.1019 28.4569 25.192 24.3045Z" fill="#172F5D"/>
</svg>
