<svg width="39" height="22" viewBox="0 0 39 22" fill="none" xmlns="http://www.w3.org/2000/svg">
<path d="M19.5868 5.76002H11.5469V1.16006C11.5469 0.519686 11.0277 0 10.3868 0C9.74599 0 9.22676 0.519686 9.22676 1.16006V5.76002H1.16006C0.519686 5.76002 0 6.2797 0 6.92007C0 7.56091 0.519686 8.08013 1.16006 8.08013H13.3432C12.1633 10.4598 8.94849 15.3119 1.12691 19.3482C0.64791 19.5919 0.398706 20.1324 0.524929 20.6548C0.651152 21.1773 1.11952 21.5444 1.65678 21.5421C1.84218 21.5435 2.02436 21.4977 2.18711 21.4099C4.95196 20.021 7.52732 18.2834 9.84973 16.2393L16.2792 21.4695C16.4831 21.641 16.7416 21.7354 17.0084 21.7344C17.5008 21.7368 17.9409 21.4284 18.1065 20.9646C18.272 20.5009 18.1268 19.983 17.744 19.6733L11.5466 14.5892C13.3955 12.7121 14.8751 10.5043 15.908 8.08017H19.6064C20.2473 8.08017 20.7665 7.56094 20.7665 6.92011C20.7665 6.27974 20.2473 5.76005 19.6064 5.76005L19.5868 5.76002Z" fill="#172F5D"/>
<path d="M38.9275 20.2365L31.5237 0.662772L31.4308 0.5236C31.4308 0.5236 31.4308 0.457484 31.3846 0.430666L31.3115 0.337731L31.2583 0.258207L31.1723 0.19209C31.1465 0.164348 31.1178 0.139843 31.0859 0.119038L30.9929 0.0658664L30.8801 0.0126953H30.0655L29.9526 0.0658664L29.8597 0.119038L29.7737 0.185155L29.6877 0.258207L29.6147 0.344206V0.344668C29.5888 0.374259 29.5643 0.405237 29.5416 0.437139L29.4884 0.523136V0.523598C29.4681 0.559663 29.4505 0.597576 29.4357 0.636414L21.9391 20.2362C21.7102 20.8438 22.0172 21.522 22.6247 21.7509C23.2327 21.9798 23.9105 21.6723 24.1394 21.0648L25.9093 16.3853H34.9901L36.7336 21.0648C36.9074 21.5142 37.3388 21.811 37.8206 21.8138C37.9611 21.8138 38.1007 21.7865 38.2316 21.7343C38.5224 21.6284 38.7596 21.4106 38.89 21.1295C39.0208 20.8489 39.0343 20.5271 38.9274 20.2362L38.9275 20.2365ZM26.7905 14.0654L30.4357 4.34849L34.0815 14.0654H26.7905Z" fill="#172F5D"/>
</svg>
