<svg width="16" height="31" viewBox="0 0 16 31" fill="none" xmlns="http://www.w3.org/2000/svg">
<path fill-rule="evenodd" clip-rule="evenodd" d="M5.28834 16.2698C5.28834 16.2698 4.50876 16.7234 5.84373 16.8766C7.46147 17.0614 8.28779 17.0348 10.0699 16.6976C10.0699 16.6976 10.5392 16.9914 11.1941 17.2456C7.19783 18.958 2.14987 17.1465 5.28834 16.2698ZM4.79983 14.0352C4.79983 14.0352 3.92526 14.6825 5.26141 14.8207C6.98956 14.9991 8.35365 15.0137 10.7156 14.5592C10.7156 14.5592 11.0417 14.8903 11.5549 15.0711C6.72389 16.4841 1.34337 15.1823 4.79983 14.0352Z" fill="#3174B9"/>
<path fill-rule="evenodd" clip-rule="evenodd" d="M8.91657 10.2444C9.90171 11.3784 8.65835 12.3983 8.65835 12.3983C8.65835 12.3983 11.1586 11.1078 10.0102 9.49128C8.93807 7.98444 8.11565 7.23585 12.5674 4.6543C12.5674 4.6543 5.57931 6.39887 8.91657 10.2444Z" fill="#CA3132"/>
<path fill-rule="evenodd" clip-rule="evenodd" d="M14.2036 17.9234C14.2036 17.9234 14.7806 18.3992 13.5679 18.7671C11.2619 19.4656 3.96812 19.6762 1.94213 18.7949C1.21437 18.4779 2.57982 18.0385 3.0094 17.9457C3.45744 17.8489 3.71312 17.8665 3.71312 17.8665C2.90323 17.2962 -1.52178 18.9866 1.46582 19.4715C9.61246 20.7924 16.3164 18.8768 14.2036 17.9234ZM5.66562 11.7203C5.66562 11.7203 1.95602 12.6016 4.35216 12.922C5.36422 13.0573 7.38022 13.0261 9.25958 12.8685C10.795 12.7396 12.3362 12.4639 12.3362 12.4639C12.3362 12.4639 11.7952 12.6961 11.4033 12.9633C7.63557 13.9544 0.358253 13.4928 2.4535 12.4797C4.22499 11.6227 5.66562 11.7203 5.66562 11.7203ZM12.3208 15.4399C16.1505 13.4503 14.3798 11.5379 13.1436 11.7956C12.8413 11.8588 12.7057 11.9133 12.7057 11.9133C12.7057 11.9133 12.8185 11.7369 13.0329 11.661C15.4781 10.8017 17.3583 14.1962 12.2445 15.5404C12.2443 15.5404 12.3032 15.4873 12.3208 15.4399Z" fill="#3174B9"/>
<path fill-rule="evenodd" clip-rule="evenodd" d="M10.0116 0.484863C10.0116 0.484863 12.132 2.60669 7.9998 5.86843C4.68591 8.48588 7.24427 9.97782 7.99879 11.6831C6.06406 9.93786 4.64493 8.40122 5.59689 6.97142C6.99451 4.87262 10.8672 3.8548 10.0116 0.484863Z" fill="#CA3132"/>
<path fill-rule="evenodd" clip-rule="evenodd" d="M6.0426 20.8334C9.718 21.0684 15.3632 20.7029 15.4971 18.9634C15.4971 18.9634 15.2401 19.6227 12.4592 20.1458C9.32178 20.7364 5.45148 20.6677 3.15677 20.2889C3.15677 20.2889 3.62699 20.678 6.0426 20.8334Z" fill="#3174B9"/>
<path fill-rule="evenodd" clip-rule="evenodd" d="M15.3263 23.9525H15.2145V23.8899H15.5161V23.9525H15.4043V24.2654H15.3263V23.9525ZM15.928 23.9681H15.9267L15.8156 24.2653H15.7646L15.6542 23.9681H15.6529V24.2653H15.5787V23.8897H15.6876L15.7899 24.1554L15.8921 23.8897H16V24.2653H15.9282L15.928 23.9681ZM5.43928 27.4787C5.09266 27.7791 4.72624 27.9481 4.39724 27.9481C3.92854 27.9481 3.67422 27.6665 3.67422 27.2159C3.67422 26.7281 3.94649 26.3712 5.03628 26.3712H5.43911L5.43928 27.4787ZM6.39597 28.558V25.2169C6.39597 24.363 5.90899 23.7994 4.73505 23.7994C4.05012 23.7994 3.44969 23.9686 2.96152 24.1842L3.10206 24.776C3.4866 24.6347 3.98375 24.5038 4.47174 24.5038C5.14803 24.5038 5.43911 24.776 5.43911 25.3393V25.7618H5.10113C3.45833 25.7618 2.71701 26.3991 2.71701 27.3573C2.71701 28.183 3.20552 28.6523 4.12513 28.6523C4.71625 28.6523 5.15786 28.4083 5.57017 28.0512L5.64518 28.558H6.39597ZM9.58896 28.558H8.39606L6.95966 23.8844H8.00169L8.8932 26.7564L9.09165 27.6193C9.54138 26.3712 9.86056 25.1041 10.0202 23.8844H11.0335C10.7622 25.4233 10.2735 27.1128 9.58896 28.558ZM14.167 27.4787C13.8194 27.7791 13.453 27.9481 13.1247 27.9481C12.656 27.9481 12.402 27.6665 12.402 27.2159C12.402 26.7281 12.6744 26.3712 13.7635 26.3712H14.167V27.4787ZM15.1241 28.558V25.2169C15.1241 24.363 14.6356 23.7994 13.4628 23.7994C12.7772 23.7994 12.1769 23.9686 11.6888 24.1842L11.8293 24.776C12.2139 24.6347 12.712 24.5038 13.2002 24.5038C13.8755 24.5038 14.1669 24.776 14.1669 25.3393V25.7618H13.8289C12.1859 25.7618 11.4451 26.3991 11.4451 27.3573C11.4451 28.183 11.9326 28.6523 12.8524 28.6523C13.444 28.6523 13.8849 28.4083 14.2983 28.0512L14.3736 28.558H15.1241ZM1.66804 29.3522C1.39542 29.7506 0.954494 30.0661 0.472421 30.244L0 29.6876C0.367269 29.4991 0.681878 29.1949 0.828345 28.9118C0.954493 28.6595 1.00715 28.335 1.00715 27.5585V22.2222H2.02396V27.4848C2.02396 28.5235 1.94099 28.9432 1.66804 29.3522Z" fill="#CA3132"/>
</svg>
