<svg width="29" height="26" viewBox="0 0 29 26" fill="none" xmlns="http://www.w3.org/2000/svg">
<path d="M26.4371 2.51736C24.9677 1.087 22.9734 0.281028 20.8915 0.27608H20.8561C18.4997 0.318274 16.2388 1.18832 14.4927 2.72428C12.4666 0.89673 10.5468 7.34647e-07 8.76954 7.34647e-07C6.4326 -0.000942098 4.19234 0.905661 2.54866 2.5173C0.906914 4.17963 -0.00649712 6.39471 3.47927e-05 8.69664C0.00656671 10.9986 0.932918 13.2086 2.58412 14.8621L14.4927 26L26.4368 14.8277C28.081 13.1755 29 10.9689 29 8.6725C29 6.37607 28.081 4.16949 26.4368 2.5173L26.4371 2.51736ZM25.4063 13.8622L14.4931 24.1034L3.57979 13.8622C3.40775 13.7185 3.25271 13.5565 3.11784 13.3795H7.45448L9.44515 10.4138L13.3553 17.6896L17.7991 10.6552L20.1098 12.8276L21.1052 11.8277L17.5146 8.48278L13.4622 14.8969L9.58755 7.68984L6.67251 12.0003H2.22894C1.52182 10.6187 1.27174 9.05871 1.51354 7.53403C1.75535 6.00935 2.47703 4.59432 3.57981 3.48288C4.94305 2.12632 6.81709 1.36682 8.76988 1.37955C10.2629 1.37955 12.076 2.34507 13.9954 4.13823L14.4931 4.62099L14.9908 4.13823C16.5331 2.59448 18.6404 1.70228 20.8561 1.65533H20.8916C22.5858 1.66429 24.2081 2.321 25.4063 3.48288C26.8017 4.87764 27.5799 6.74622 27.5746 8.68976C27.5819 10.6236 26.8029 12.4823 25.4063 13.8622Z" fill="#172F5D"/>
</svg>
