<svg width="30" height="25" viewBox="0 0 30 25" fill="none" xmlns="http://www.w3.org/2000/svg">
<path d="M24.8774 8.33277V8.53277H25.0774H25.9458L25.9459 8.53332H26.1157C27.1569 8.53332 28.1194 9.09065 28.6403 9.99557C29.1613 10.9008 29.1613 12.0161 28.6403 12.921L28.6403 12.921C28.1195 13.8261 27.1571 14.3832 26.1159 14.3833C26.1159 14.3833 26.1158 14.3833 26.1157 14.3833H25.0775H24.8775V14.5833V21.8751C24.8775 22.0984 24.7889 22.3127 24.6316 22.4705C24.4744 22.6282 24.2611 22.7169 24.039 22.7169L24.0384 22.7169C23.9403 22.7172 23.8429 22.6998 23.7509 22.6655L23.7276 22.6561L9.57653 16.958L9.30183 16.8474V17.1436V23.9583C9.30183 24.1818 9.21327 24.3958 9.05597 24.5536L9.05588 24.5537C8.89874 24.7115 8.68551 24.8 8.46338 24.8H4.30979C4.08768 24.8 3.87445 24.7115 3.71728 24.5537L3.7172 24.5536C3.56003 24.396 3.47162 24.182 3.47157 23.9585C3.47157 23.9584 3.47157 23.9583 3.47157 23.9583V16.6667V16.4667H3.27157H3.21963C2.44671 16.4667 1.70517 16.1585 1.15854 15.6102C0.611689 15.0616 0.304492 14.3176 0.304492 13.5417V9.37494C0.304492 8.59896 0.611683 7.85481 1.15851 7.30646L1.15856 7.30641C1.70517 6.75789 2.44668 6.44995 3.21963 6.44995H8.315H8.35375L8.3897 6.43548L23.7272 0.260328C23.7272 0.260317 23.7272 0.260307 23.7273 0.260297C23.9856 0.156539 24.2781 0.188039 24.5083 0.344389L24.5084 0.344484C24.7389 0.500719 24.8772 0.7619 24.8774 1.04162V8.33277ZM7.67668 8.33278V8.13278H7.47668H3.21923C2.8904 8.13278 2.57546 8.26393 2.34336 8.49676C2.11125 8.72959 1.98078 9.04545 1.98078 9.37451V13.5412C1.98078 13.8703 2.11126 14.1862 2.34335 14.419C2.57553 14.6519 2.8905 14.7828 3.21923 14.7828H7.47668H7.67668V14.5828V8.33278ZM7.42457 23.1162H7.62457V22.9162V16.6662V16.4662H7.42457H5.34788H5.14788V16.6662V22.9162V23.1162H5.34788H7.42457ZM22.9255 20.5195L23.2003 20.6302L23.2003 20.334L23.2005 2.58195L23.2005 2.28583L22.9258 2.39642L9.47896 7.81002L9.35366 7.86047L9.35365 7.99554L9.35343 14.9174L9.35343 15.0525L9.47871 15.1029L22.9255 20.5195ZM24.8772 12.4998V12.6998H25.0772H26.1154C26.5583 12.6998 26.967 12.4628 27.1881 12.0788L27.1882 12.0787C27.409 11.6946 27.409 11.2217 27.1882 10.8376L27.1881 10.8375C26.967 10.4533 26.5584 10.2166 26.1156 10.2165C26.1156 10.2165 26.1155 10.2165 26.1154 10.2165H25.0772H24.8772V10.4165V12.4998Z" fill="#172F5D" stroke="white" stroke-width="0.4"/>
</svg>
