<svg width="27" height="27" viewBox="0 0 27 27" fill="none" xmlns="http://www.w3.org/2000/svg">
<path fill-rule="evenodd" clip-rule="evenodd" d="M13.6629 1C6.73379 1 1.1084 6.60095 1.1084 13.5C1.1084 20.399 6.73379 26 13.6629 26C20.5921 26 26.2175 20.399 26.2175 13.5C26.2175 6.60095 20.5921 1 13.6629 1ZM13.6629 1.83333C16.4526 1.83333 19.0119 2.80338 21.023 4.42114C19.1946 4.88022 18.324 6.39695 18.266 7.66667C18.266 8.35214 18.833 8.91667 19.5215 8.91667H24.4419C24.5587 9.1888 24.6629 9.46762 24.759 9.75H19.9394C18.0955 9.75 16.5916 11.2474 16.5916 13.0833C16.5916 14.229 17.5333 15.1667 18.684 15.1667H19.8757C20.4612 15.1667 20.9671 15.5597 21.1091 16.1254L22.4014 21.2735C20.2565 23.6628 17.1376 25.1667 13.662 25.1667C7.1858 25.1667 1.94445 19.9481 1.94445 13.5C1.94445 12.4095 2.09802 11.3555 2.37845 10.3548L5.36427 13.3276C5.64731 13.6094 6.06503 13.663 6.38677 13.5302C6.70866 13.3976 6.96628 13.0653 6.96628 12.6667V11.5884C6.96628 11.4885 7.03858 11.4167 7.13872 11.4167H8.46778C8.95705 11.4167 9.42638 11.2232 9.77235 10.8787L13.2437 7.42245C13.5116 7.1557 13.6622 6.79373 13.6622 6.4165C13.6622 5.27083 12.7204 4.33316 11.5698 4.33316H6.41405C8.408 2.76864 10.9236 1.83316 13.6622 1.83316L13.6629 1.83333ZM21.8566 5.16014C22.7301 6.01076 23.4693 6.99629 24.0423 8.08333H19.5214C19.2891 8.08333 19.1128 7.90588 19.107 7.67652C19.2137 6.23438 20.4198 5.141 21.8564 5.16014H21.8566ZM5.46208 5.16665H11.57C12.2684 5.16665 12.8255 5.72132 12.8255 6.41665C12.8255 6.57309 12.7633 6.72264 12.6523 6.83332L9.18094 10.2896C8.99169 10.478 8.73574 10.5833 8.46823 10.5833H7.13917C6.58653 10.5833 6.12978 11.0381 6.12978 11.5883V12.6667C6.12978 12.7293 6.10699 12.7437 6.06682 12.7602C6.02666 12.7768 6.00106 12.7825 5.95641 12.7383L2.66497 9.46112C3.27065 7.82479 4.23541 6.36346 5.46188 5.16646L5.46208 5.16665ZM19.9397 10.5833H25.0113C25.2517 11.5154 25.3799 12.4927 25.3799 13.5C25.3799 16.1142 24.5186 18.5262 23.0627 20.4705L21.9209 15.9238C21.6868 14.9913 20.8412 14.3336 19.8759 14.3336H18.6841C17.9858 14.3336 17.4287 13.7789 17.4287 13.0836C17.4287 11.6979 18.5479 10.5836 19.9396 10.5836L19.9397 10.5833ZM8.76069 13.5C8.07897 13.508 7.42398 13.918 7.16112 14.5986L6.62982 15.9739C6.45289 16.4321 6.56779 16.9544 6.9207 17.2972L7.6228 17.9784C7.92526 18.2721 8.09527 18.6743 8.09527 19.095V21.1198C8.09527 21.4855 8.22269 21.8397 8.45566 22.1224L9.28364 23.1274C9.7464 23.6888 10.6667 23.6014 11.0147 22.963L13.9172 17.6416C14.2717 16.9916 14.0308 16.1672 13.3818 15.8073L9.61058 13.715C9.36398 13.5786 9.09309 13.5035 8.76055 13.5001L8.76069 13.5ZM9.20365 14.4433L12.9749 16.5348C13.2316 16.6771 13.3218 16.9866 13.1817 17.2437L10.2792 22.5661C10.2007 22.7099 10.0352 22.7251 9.93095 22.5986L9.10297 21.5943C8.99275 21.4606 8.93222 21.293 8.93222 21.1198V19.0951C8.93222 18.45 8.67029 17.8315 8.2064 17.3812L7.50507 16.7C7.38999 16.5882 7.35336 16.4221 7.4111 16.2727L7.9424 14.8983C8.04067 14.6438 8.23628 14.4632 8.46721 14.3798C8.73287 14.2824 8.98212 14.3291 9.20365 14.4433Z" fill="#172F5D" stroke="#172F5D" stroke-width="0.3"/>
</svg>
