<svg width="31" height="34" viewBox="0 0 31 34" fill="none" xmlns="http://www.w3.org/2000/svg">
<path d="M19.0065 7.66998C20.1778 7.67991 21.2977 8.15012 22.1225 8.97816C22.9471 9.80646 23.4098 10.9254 23.4098 12.0916C23.4098 12.3896 23.5287 12.6755 23.7403 12.8865C23.9522 13.0974 24.2394 13.2158 24.5386 13.2158C24.8413 13.2262 25.1345 13.1112 25.3488 12.8982C25.5627 12.6849 25.6785 12.3927 25.6677 12.0916C25.6677 10.3292 24.9671 8.63838 23.7191 7.38847C22.4709 6.13883 20.7766 5.43184 19.0065 5.42188C18.7072 5.42188 18.42 5.54027 18.2081 5.75095C17.9966 5.96187 17.8776 6.24782 17.8776 6.54605C17.8669 6.84716 17.9824 7.13937 18.1966 7.3524C18.4105 7.56568 18.704 7.68069 19.0065 7.66998Z" fill="#172F5D" stroke="white"/>
<path d="M30.1459 11.9417C30.1459 9.03993 28.9882 6.25709 26.9272 4.20538C24.8664 2.15361 22.0712 1.00066 19.1571 1.00066C18.8544 0.990201 18.5612 1.1052 18.347 1.31822C18.133 1.5315 18.0175 1.82372 18.028 2.12484C18.028 2.42307 18.1469 2.70901 18.3588 2.91968C18.5704 3.13061 18.8575 3.24901 19.1571 3.24901C21.4727 3.24901 23.6936 4.1649 25.3309 5.79506C26.9681 7.42549 27.888 9.63645 27.888 11.942C27.888 12.2402 28.0069 12.5262 28.2188 12.7371C28.4306 12.9478 28.7178 13.0662 29.0171 13.0662C29.3135 13.0568 29.5954 12.9355 29.8052 12.7267C30.0147 12.5178 30.1367 12.2374 30.1462 11.942L30.1459 11.9417Z" fill="#172F5D" stroke="white"/>
<path d="M1.281 32.4754C1.47972 32.8029 1.83727 33.0023 2.22185 32.9999H11.5174C12.2462 33.0015 12.951 32.7399 13.501 32.2634C14.0507 31.7869 14.4083 31.128 14.5072 30.4089C14.6062 29.6899 14.4398 28.9596 14.0389 28.3535L13.211 27.1543V27.1545C13.8347 27.2416 14.4629 27.2915 15.0927 27.3043C16.5546 27.3033 18.0021 27.015 19.352 26.4553C20.7018 25.896 21.9272 25.0766 22.9581 24.0445C23.1571 23.8309 23.265 23.5486 23.2592 23.2574C23.2576 22.9676 23.1508 22.6879 22.9581 22.4707L16.6732 16.2505L19.5333 13.3279C19.8158 13.0401 19.9224 12.6239 19.8134 12.2366C19.7042 11.8492 19.3958 11.5492 19.0041 11.4498C18.6127 11.3503 18.1977 11.4661 17.9152 11.7541L15.0927 14.6394L8.8078 8.41922C8.60173 8.20385 8.31611 8.08179 8.01735 8.08179C7.71862 8.08179 7.433 8.20385 7.22718 8.41922C5.43634 10.1953 4.31014 12.5285 4.03636 15.0304C3.76257 17.5323 4.35715 20.0522 5.72168 22.1705L1.20568 31.3883V31.388C1.04109 31.739 1.06944 32.1496 1.28102 32.4748L1.281 32.4754ZM8.05511 10.8549L20.5119 23.2202C18.2149 24.9486 15.2189 25.4609 12.4737 24.595C9.72888 23.7291 7.57628 21.5921 6.6982 18.8618C5.82012 16.1317 6.3257 13.1471 8.05491 10.8551L8.05511 10.8549ZM7.26466 24.1195C7.98972 24.8157 8.79878 25.4201 9.67323 25.9182L12.1571 29.5903C12.3028 29.8292 12.317 30.1256 12.1947 30.3773C12.05 30.6112 11.7933 30.7534 11.5174 30.7518H4.02825L7.26466 24.1195Z" fill="#172F5D" stroke="white"/>
</svg>
