<svg width="30" height="26" viewBox="0 0 30 26" fill="none" xmlns="http://www.w3.org/2000/svg">
<path d="M0 22.2773V23.3912C0 24.0804 0.273753 24.7416 0.761144 25.229C1.24857 25.7165 1.90949 25.9902 2.59896 25.9902H14.9258C15.6087 25.9902 16.2643 25.7216 16.7506 25.2422C17.237 24.7628 17.5151 24.1112 17.5247 23.4283H27.401C28.0904 23.4283 28.7514 23.1545 29.2389 22.6671C29.7263 22.1797 30 21.5185 30 20.8293V19.6784C30 17.6596 29.1981 15.7236 27.7709 14.2963C26.3433 12.8687 24.4074 12.0669 22.3888 12.0669H20.0866C17.4741 12.0677 15.0463 13.4149 13.6633 15.6314C12.5297 14.9945 11.2505 14.662 9.95043 14.6659H7.61124C5.59268 14.6659 3.65667 15.468 2.22913 16.8953C0.801853 18.3226 0 20.2588 0 22.2774V22.2773ZM20.0868 13.552H22.426C24.0444 13.5618 25.5929 14.2116 26.734 15.3595C27.8749 16.5073 28.5151 18.06 28.5151 19.6785V20.7924C28.5151 21.0876 28.3978 21.371 28.1888 21.58C27.98 21.7887 27.6967 21.9061 27.4012 21.9061H17.5249C17.4246 19.8067 16.4563 17.843 14.8519 16.4854C15.9604 14.6558 17.9478 13.5424 20.0868 13.5521L20.0868 13.552ZM7.61144 16.1512H9.95063C11.5691 16.1608 13.1179 16.8106 14.2587 17.9585C15.3996 19.1063 16.0398 20.6589 16.0398 22.2774V23.3914C16.0398 23.6866 15.9225 23.9699 15.7134 24.179C15.5047 24.3877 15.2214 24.5053 14.9258 24.5053H2.59903C2.30353 24.5053 2.02019 24.3877 1.81144 24.179C1.60243 23.97 1.4851 23.6866 1.4851 23.3914V22.2774C1.4851 20.6525 2.13051 19.0944 3.27936 17.9455C4.42824 16.7967 5.98659 16.1513 7.61125 16.1513L7.61144 16.1512Z" fill="#172F5D"/>
<path d="M14.1462 7.98251C14.1462 6.5547 13.579 5.18537 12.5692 4.17586C11.5596 3.16609 10.1903 2.59888 8.76253 2.59888C7.33446 2.59888 5.96519 3.16607 4.95562 4.17586C3.94584 5.18544 3.37863 6.5547 3.37863 7.98251C3.37863 9.41058 3.94582 10.7798 4.95562 11.7894C5.96519 12.7992 7.33446 13.3664 8.76253 13.3664C10.1903 13.3664 11.5597 12.7992 12.5692 11.7894C13.5789 10.7798 14.1462 9.41058 14.1462 7.98251ZM4.90105 7.98251C4.90105 6.94655 5.31363 5.95308 6.04734 5.22164C6.7813 4.49027 7.77609 4.08105 8.81206 4.08417C9.84829 4.08753 10.8402 4.50321 11.5695 5.23928C12.2986 5.97536 12.7047 6.97141 12.698 8.00764C12.6915 9.0436 12.2727 10.0345 11.5343 10.7612C10.7959 11.4879 9.79856 11.8909 8.7626 11.8811C7.72842 11.8811 6.73701 11.4704 6.0059 10.7392C5.27479 10.0081 4.86399 9.01668 4.86399 7.98251H4.90105Z" fill="#172F5D"/>
<path d="M26.6215 5.38363C26.6215 3.95583 26.0543 2.5865 25.0445 1.57672C24.0349 0.567145 22.6656 0 21.2376 0C19.8098 0 18.4404 0.567191 17.4309 1.57672C16.4212 2.5865 15.8539 3.95583 15.8539 5.38363C15.8539 6.81144 16.4211 8.18097 17.4309 9.19054C18.4405 10.2001 19.8098 10.7673 21.2376 10.7673C22.6656 10.7673 24.0349 10.2001 25.0445 9.19054C26.0543 8.18097 26.6215 6.81144 26.6215 5.38363ZM17.3764 5.38363C17.3764 4.34767 17.7889 3.3542 18.5227 2.62276C19.2566 1.89112 20.2514 1.48191 21.2874 1.48529C22.3236 1.48866 23.3155 1.90434 24.0449 2.6404C24.7739 3.37648 25.18 4.37253 25.1733 5.40876C25.1668 6.44473 24.748 7.4356 24.0097 8.16234C23.2713 8.88907 22.2739 9.29205 21.2376 9.28224C20.2037 9.28224 19.2121 8.87148 18.4812 8.14033C17.7501 7.40922 17.3393 6.41754 17.3393 5.38363H17.3764Z" fill="#172F5D"/>
</svg>
