<svg width="28" height="21" viewBox="0 0 28 21" fill="none" xmlns="http://www.w3.org/2000/svg">
<path d="M26.5016 16.0588H25.2691V1.85296C25.2691 1.36139 25.0743 0.890058 24.7274 0.542653C24.3807 0.195223 23.9105 0 23.4202 0H3.69787C3.20757 0 2.73727 0.195223 2.39062 0.542653C2.04374 0.890084 1.84893 1.3614 1.84893 1.85296V16.0588H0.616381C0.276104 16.0588 0 16.3353 0 16.6766C0.00144449 17.8229 0.456248 18.9218 1.26515 19.7323C2.07387 20.5428 3.17039 20.9988 4.31425 21H22.8036C23.9474 20.9988 25.044 20.5428 25.8527 19.7323C26.6616 18.9218 27.1164 17.8229 27.1178 16.6766C27.1178 16.5128 27.0528 16.3556 26.9373 16.2398C26.8217 16.124 26.6651 16.0588 26.5016 16.0588ZM3.08201 1.85296C3.08201 1.51174 3.35791 1.23524 3.69818 1.23524H23.4205C23.5839 1.23524 23.7405 1.30038 23.8563 1.41619C23.9719 1.532 24.0367 1.68917 24.0367 1.85296V16.0588H3.08244L3.08201 1.85296ZM22.8038 19.7648H4.31446C3.60441 19.7639 2.91619 19.5178 2.36605 19.0678C1.81592 18.6176 1.43747 17.9912 1.29446 17.2941H10.4778C10.4778 17.4579 10.5426 17.615 10.6582 17.7308C10.774 17.8467 10.9306 17.9118 11.094 17.9118H16.0247C16.1881 17.9118 16.3447 17.8467 16.4605 17.7308C16.576 17.615 16.6408 17.4579 16.6408 17.2941H25.8242C25.6812 17.9912 25.3028 18.6176 24.7526 19.0678C24.2025 19.5178 23.5139 19.7639 22.8038 19.7648Z" fill="#172F5D"/>
</svg>
