<svg width="191" height="224" viewBox="0 0 191 224" fill="none" xmlns="http://www.w3.org/2000/svg">
<path d="M174 78.9992C174 122.63 138.63 158 95.0002 158C51.3696 158 16 122.63 16 78.9992C16 35.3684 51.3696 -3.8965e-06 95.0002 -3.8965e-06C138.63 -3.8965e-06 174 35.3684 174 78.9992Z" fill="#04AADE" fill-opacity="0.13"/>
<path d="M161 78.9992C161 115.45 131.45 145 95.0005 145C58.5491 145 29 115.45 29 78.9992C29 42.548 58.5491 13 95.0005 13C131.45 13 161 42.548 161 78.9992Z" fill="white"/>
<path d="M187.509 91.999C185.947 141.719 145.178 181.551 95.0781 181.551C44.9787 181.551 4.20904 141.719 2.64669 91.999H0C1.5645 143.18 43.5174 184.199 95.0781 184.199C146.639 184.199 188.591 143.18 190.155 91.999H187.509Z" fill="#CEE0E6"/>
<path d="M96.405 181.737V223.633H93.6875V181.737H96.405Z" fill="#CEE0E6"/>
<path d="M71.6661 78.4856C66.8466 78.4856 62.9233 74.5623 62.9233 69.7428C62.9233 64.9233 66.8466 61 71.6661 61C76.4856 61 80.4089 64.9233 80.4089 69.7428C80.4089 74.5623 76.4856 78.4856 71.6661 78.4856ZM71.6661 62.7806C67.8259 62.7806 64.7039 65.9026 64.7039 69.7428C64.7039 73.583 67.8259 76.705 71.6661 76.705C75.5063 76.705 78.6283 73.583 78.6283 69.7428C78.6283 65.9026 75.5063 62.7806 71.6661 62.7806ZM81.0914 92.226H62.2466C60.4542 92.226 59 90.7718 59 88.9793V85.3231C59 83.8334 60.009 82.5335 61.4572 82.1715L67.2442 80.7232C67.4994 80.6579 67.7665 80.6283 68.0336 80.6283H75.3045C75.5715 80.6283 75.8386 80.6639 76.0939 80.7232L81.8808 82.1715C83.3291 82.5335 84.3381 83.8274 84.3381 85.3231V88.9793C84.3381 90.7718 82.8839 92.226 81.0914 92.226ZM68.0336 82.4089C67.9149 82.4089 67.7962 82.4207 67.6775 82.4504L61.8905 83.8986C61.2376 84.0648 60.7806 84.6465 60.7806 85.3231V88.9793C60.7806 89.7865 61.4394 90.4454 62.2466 90.4454H81.0914C81.8986 90.4454 82.5575 89.7865 82.5575 88.9793V85.3231C82.5575 84.6465 82.1005 84.0648 81.4476 83.8986L75.6606 82.4504C75.5419 82.4207 75.4232 82.4089 75.3045 82.4089H68.0336Z" fill="#172F5D" stroke="#172F5D" stroke-width="0.5"/>
<path d="M118.33 78.4856C113.511 78.4856 109.587 74.5623 109.587 69.7428C109.587 64.9233 113.511 61 118.33 61C123.15 61 127.073 64.9233 127.073 69.7428C127.073 74.5623 123.15 78.4856 118.33 78.4856ZM118.33 62.7806C114.49 62.7806 111.368 65.9026 111.368 69.7428C111.368 73.583 114.49 76.705 118.33 76.705C122.17 76.705 125.292 73.583 125.292 69.7428C125.292 65.9026 122.17 62.7806 118.33 62.7806ZM127.755 92.226H108.911C107.118 92.226 105.664 90.7718 105.664 88.9793V85.3231C105.664 83.8334 106.673 82.5335 108.121 82.1715L113.908 80.7232C114.164 80.6579 114.431 80.6283 114.698 80.6283H121.969C122.236 80.6283 122.503 80.6639 122.758 80.7232L128.545 82.1715C129.993 82.5335 131.002 83.8274 131.002 85.3231V88.9793C131.002 90.7718 129.548 92.226 127.755 92.226ZM114.698 82.4089C114.579 82.4089 114.46 82.4207 114.342 82.4504L108.555 83.8986C107.902 84.0648 107.445 84.6465 107.445 85.3231V88.9793C107.445 89.7865 108.103 90.4454 108.911 90.4454H127.755C128.563 90.4454 129.222 89.7865 129.222 88.9793V85.3231C129.222 84.6465 128.765 84.0648 128.112 83.8986L122.325 82.4504C122.206 82.4207 122.087 82.4089 121.969 82.4089H114.698Z" fill="#172F5D" stroke="#172F5D" stroke-width="0.5"/>
<path d="M90.1367 82.2845V80.5039H87.169V82.2845H90.1367Z" fill="#172F5D" stroke="#172F5D" stroke-width="0.5"/>
<path d="M96.3047 82.1478V80.3672H93.337V82.1478H96.3047Z" fill="#172F5D" stroke="#172F5D" stroke-width="0.5"/>
<path d="M102.469 82.1478V80.3672H99.5011V82.1478H102.469Z" fill="#172F5D" stroke="#172F5D" stroke-width="0.5"/>
</svg>
