<svg width="191" height="224" viewBox="0 0 191 224" fill="none" xmlns="http://www.w3.org/2000/svg">
<path d="M174 78.9992C174 122.63 138.63 158 95.0002 158C51.3696 158 16 122.63 16 78.9992C16 35.3684 51.3696 -3.8965e-06 95.0002 -3.8965e-06C138.63 -3.8965e-06 174 35.3684 174 78.9992Z" fill="#04AADE" fill-opacity="0.13"/>
<path d="M161 78.9992C161 115.45 131.45 145 95.0005 145C58.5491 145 29 115.45 29 78.9992C29 42.548 58.5491 13 95.0005 13C131.45 13 161 42.548 161 78.9992Z" fill="white"/>
<path d="M187.509 91.999C185.947 141.719 145.178 181.551 95.0781 181.551C44.9787 181.551 4.20904 141.719 2.64669 91.999H0C1.5645 143.18 43.5174 184.199 95.0781 184.199C146.639 184.199 188.591 143.18 190.155 91.999H187.509Z" fill="#CEE0E6"/>
<path d="M96.405 181.737V223.633H93.6875V181.737H96.405Z" fill="#CEE0E6"/>
<path d="M70.5208 68.429C70.7716 68.5551 71.0372 68.6145 71.2993 68.6145C71.9324 68.6145 72.5418 68.2653 72.8465 67.6629C74.8686 63.6564 78.0123 60.2436 81.8224 57.8798L81.447 60.0303C81.2837 60.9721 81.9139 61.8684 82.8556 62.033C82.9565 62.0508 83.0564 62.0592 83.1549 62.0592C83.9804 62.0592 84.7114 61.4667 84.8583 60.6243L85.8847 54.7369C85.9638 54.2838 85.8599 53.8199 85.5953 53.4435C85.3307 53.0681 84.9291 52.8133 84.4765 52.7342L78.5891 51.7093C77.6473 51.5461 76.751 52.1762 76.5864 53.118C76.4232 54.0598 77.0533 54.956 77.9951 55.1207L79.3439 55.3561C75.2915 58.0305 71.9454 61.7614 69.7562 66.1031C69.3254 66.9563 69.6691 67.9975 70.5219 68.4283L70.5208 68.429Z" fill="#172F5D" stroke="white"/>
<path d="M83.6634 100.404C79.6372 98.3733 76.2124 95.2088 73.8482 91.3769L76.1541 91.7786C77.0973 91.9433 77.9921 91.3116 78.1567 90.3699C78.3199 89.4281 77.6898 88.531 76.748 88.3672L70.4828 87.2761C69.5396 87.1114 68.6439 87.743 68.4801 88.6848L67.389 94.95C67.2258 95.8918 67.8559 96.789 68.7977 96.9527C68.8986 96.9705 68.9985 96.9789 69.0969 96.9789C69.9224 96.9789 70.6535 96.3863 70.8004 95.544L71.1426 93.5789C73.8308 97.7792 77.6449 101.246 82.1043 103.495C82.3551 103.621 82.6207 103.68 82.8828 103.68C83.5159 103.68 84.1253 103.333 84.43 102.729C84.8608 101.875 84.5171 100.834 83.6644 100.404L83.6634 100.404Z" fill="#172F5D" stroke="white"/>
<path d="M118.728 88.8226C117.875 88.3918 116.834 88.7355 116.403 89.5883C114.364 93.6283 111.185 97.0654 107.333 99.4297L107.687 97.4048C107.85 96.463 107.22 95.5658 106.278 95.4021C105.336 95.2374 104.44 95.869 104.275 96.8108L103.284 102.501C103.12 103.443 103.75 104.34 104.692 104.504L110.383 105.496C110.484 105.513 110.584 105.522 110.682 105.522C111.507 105.522 112.239 104.929 112.385 104.087C112.549 103.145 111.919 102.248 110.977 102.084L109.9 101.897C113.955 99.223 117.303 95.4905 119.494 91.1474C119.925 90.2942 119.581 89.253 118.728 88.8223L118.728 88.8226Z" fill="#172F5D" stroke="white"/>
<path d="M105.589 56.8465C109.572 58.8562 112.967 61.9747 115.329 65.7531L112.985 65.3446C112.043 65.1813 111.147 65.8115 110.982 66.7532C110.819 67.695 111.449 68.5913 112.391 68.7559L118.769 69.8668C118.87 69.8846 118.97 69.893 119.068 69.893C119.893 69.893 120.625 69.3005 120.771 68.4581L121.882 62.0806C122.046 61.1388 121.415 60.2416 120.474 60.0779C119.532 59.9147 118.636 60.5448 118.471 61.4866L118.094 63.65C115.407 59.4591 111.599 56.0013 107.148 53.7562C106.295 53.3254 105.253 53.6691 104.823 54.5219C104.392 55.3751 104.736 56.4162 105.588 56.847L105.589 56.8465Z" fill="#172F5D" stroke="white"/>
<path d="M75.0322 78.6255C75.0322 75.0331 72.11 72.1094 68.5161 72.1094C64.9222 72.1094 62 75.0316 62 78.6255C62 82.2194 64.9222 85.1416 68.5161 85.1416C72.11 85.1416 75.0322 82.2194 75.0322 78.6255ZM65.4639 78.6255C65.4639 76.9413 66.8334 75.5717 68.5176 75.5717C70.2018 75.5717 71.5714 76.9413 71.5714 78.6255C71.5714 80.3097 70.2018 81.6792 68.5176 81.6792C66.8334 81.6792 65.4639 80.3097 65.4639 78.6255Z" fill="#172F5D" stroke="white"/>
<path d="M94.6255 98.2188C91.0331 98.2188 88.1094 101.141 88.1094 104.735C88.1094 108.329 91.0316 111.251 94.6255 111.251C98.2194 111.251 101.142 108.329 101.142 104.735C101.142 101.141 98.2194 98.2188 94.6255 98.2188ZM94.6255 107.787C92.9413 107.787 91.5717 106.418 91.5717 104.733C91.5717 103.049 92.9413 101.68 94.6255 101.68C96.3097 101.68 97.6792 103.049 97.6792 104.733C97.6792 106.418 96.3097 107.787 94.6255 107.787Z" fill="#172F5D" stroke="white"/>
<path d="M94.6255 59.0322C98.2179 59.0322 101.142 56.11 101.142 52.5161C101.142 48.9222 98.2194 46 94.6255 46C91.0316 46 88.1094 48.9222 88.1094 52.5161C88.1094 56.11 91.0316 59.0322 94.6255 59.0322ZM94.6255 49.4639C96.3097 49.4639 97.6792 50.8334 97.6792 52.5176C97.6792 54.2018 96.3097 55.5714 94.6255 55.5714C92.9413 55.5714 91.5717 54.2018 91.5717 52.5176C91.5717 50.8334 92.9413 49.4639 94.6255 49.4639Z" fill="#172F5D" stroke="white"/>
<path d="M120.735 72.1094C117.142 72.1094 114.219 75.0316 114.219 78.6255C114.219 82.2194 117.141 85.1416 120.735 85.1416C124.329 85.1416 127.251 82.2194 127.251 78.6255C127.251 75.0316 124.329 72.1094 120.735 72.1094ZM120.735 81.6777C119.051 81.6777 117.681 80.3081 117.681 78.6239C117.681 76.9398 119.051 75.5702 120.735 75.5702C122.419 75.5702 123.789 76.9398 123.789 78.6239C123.789 80.3081 122.419 81.6777 120.735 81.6777Z" fill="#172F5D" stroke="white"/>
<path d="M107.096 90.536C108.185 90.2452 109.093 89.5473 109.657 88.5709L110.755 86.6695C111.318 85.6946 111.468 84.5574 111.176 83.4689C110.883 82.3802 110.187 81.4717 109.21 80.9082L107.936 80.1727C107.996 79.6588 108.025 79.1424 108.025 78.6255C108.025 78.1091 107.994 77.5908 107.936 77.0783L109.21 76.3428C111.224 75.1795 111.916 72.5951 110.753 70.5815L109.655 68.6802C108.492 66.6666 105.907 65.9741 103.895 67.136L102.621 67.8715C101.789 67.2498 100.893 66.7319 99.9399 66.3219V64.8539C99.9399 62.5287 98.048 60.6367 95.7227 60.6367H93.5276C91.2024 60.6367 89.3105 62.5286 89.3105 64.8539V66.3219C88.3578 66.732 87.463 67.2498 86.6291 67.8715L85.355 67.136C83.3415 65.9727 80.7571 66.6651 79.5953 68.6802L78.4972 70.5815C77.3339 72.5951 78.0263 75.1794 80.04 76.3428L81.314 77.0783C81.2547 77.5922 81.2255 78.1086 81.2255 78.6255C81.2255 79.1419 81.2562 79.6603 81.314 80.1727L80.04 80.9082C79.0651 81.4721 78.3672 82.3802 78.0748 83.4689C77.784 84.5575 77.9333 85.6931 78.4957 86.6695L79.5938 88.5709C80.1576 89.5457 81.0657 90.2437 82.1544 90.536C83.2416 90.8283 84.3787 90.6785 85.3537 90.1151L86.6277 89.3796C87.4602 90.0013 88.3559 90.5192 89.3091 90.9292V92.3973C89.3091 94.7224 91.2009 96.6144 93.5262 96.6144H95.7213C98.0465 96.6144 99.9385 94.7225 99.9385 92.3973V90.9292C100.89 90.5192 101.786 90.0013 102.62 89.3796L103.894 90.1151C104.869 90.679 106.006 90.8283 107.095 90.536H107.096ZM101.29 85.9974C100.237 86.949 99.0227 87.6509 97.6792 88.0846C96.9645 88.3161 96.4798 88.9809 96.4798 89.7327V92.3988C96.4798 92.8142 96.1405 93.1535 95.725 93.1535H93.5299C93.1144 93.1535 92.7751 92.8157 92.7751 92.3988V89.7327C92.7751 88.9809 92.2904 88.3161 91.5757 88.0846C90.2323 87.6513 89.0175 86.949 87.9649 85.9974C87.638 85.7026 87.2225 85.5503 86.8031 85.5503C86.5068 85.5503 86.2075 85.6264 85.9375 85.7817L83.6261 87.1152C83.3907 87.2507 83.1661 87.2205 83.0544 87.1899C82.9421 87.1592 82.7319 87.0736 82.5958 86.8382L81.4978 84.9369C81.3623 84.7014 81.3924 84.4769 81.4231 84.3651C81.4538 84.2528 81.5393 84.0426 81.7748 83.9066L84.0836 82.5731C84.733 82.1977 85.0684 81.4459 84.9106 80.7119C84.7652 80.0293 84.6905 79.3255 84.6905 78.6247C84.6905 77.9238 84.7652 77.2204 84.9106 76.5374C85.0669 75.8034 84.7335 75.0517 84.0836 74.6762L81.7748 73.3438C81.4147 73.136 81.29 72.6736 81.4993 72.3135L82.5973 70.4121C82.8051 70.0521 83.2675 69.9274 83.6276 70.1352L85.9374 71.4686C86.5884 71.844 87.4069 71.758 87.9649 71.2525C89.0175 70.3008 90.2322 69.5989 91.5757 69.1652C92.2904 68.9338 92.7751 68.269 92.7751 67.5171V64.8511C92.7751 64.4356 93.1144 64.0963 93.5299 64.0963H95.725C96.1405 64.0963 96.4798 64.4341 96.4798 64.8511V67.5171C96.4798 68.2689 96.9645 68.9338 97.6792 69.1652C99.0226 69.5985 100.237 70.3009 101.29 71.2525C101.847 71.7565 102.666 71.844 103.317 71.4686L105.627 70.1352C105.987 69.9274 106.45 70.0506 106.658 70.4121L107.756 72.3135C107.963 72.6736 107.84 73.136 107.48 73.3438L105.171 74.6772C104.522 75.0526 104.187 75.8045 104.344 76.5384C104.49 77.221 104.564 77.9248 104.564 78.6257C104.564 79.3265 104.49 80.0299 104.344 80.7129C104.188 81.4469 104.521 82.1987 105.171 82.5741L107.48 83.9076C107.716 84.0431 107.802 84.2523 107.832 84.3661C107.862 84.4784 107.893 84.7024 107.757 84.9394L106.659 86.8407C106.524 87.0761 106.313 87.1622 106.201 87.1924C106.088 87.223 105.864 87.2532 105.627 87.1177L103.317 85.7842C102.667 85.4088 101.848 85.4964 101.292 85.9989L101.29 85.9974Z" fill="#172F5D" stroke="white"/>
<path d="M94.6267 71.6758C90.7944 71.6758 87.6758 74.7949 87.6758 78.6267C87.6758 82.459 90.7949 85.5776 94.6267 85.5776C98.459 85.5776 101.578 82.4585 101.578 78.6267C101.578 74.7944 98.4585 71.6758 94.6267 71.6758ZM94.6267 82.1151C92.7032 82.1151 91.1381 80.5502 91.1381 78.6266C91.1381 76.7029 92.703 75.138 94.6267 75.138C96.5503 75.138 98.1152 76.7029 98.1152 78.6266C98.1152 80.5502 96.5503 82.1151 94.6267 82.1151Z" fill="#172F5D" stroke="white"/>
</svg>
