<svg width="191" height="224" viewBox="0 0 191 224" fill="none" xmlns="http://www.w3.org/2000/svg">
<path d="M174 78.9992C174 122.63 138.63 158 95.0002 158C51.3696 158 16 122.63 16 78.9992C16 35.3684 51.3696 -3.8965e-06 95.0002 -3.8965e-06C138.63 -3.8965e-06 174 35.3684 174 78.9992Z" fill="#04AADE" fill-opacity="0.13"/>
<path d="M161 78.9992C161 115.45 131.45 145 95.0005 145C58.5491 145 29 115.45 29 78.9992C29 42.548 58.5491 13 95.0005 13C131.45 13 161 42.548 161 78.9992Z" fill="white"/>
<path d="M187.509 91.999C185.947 141.719 145.178 181.551 95.0781 181.551C44.9787 181.551 4.20904 141.719 2.64669 91.999H0C1.5645 143.18 43.5174 184.199 95.0781 184.199C146.639 184.199 188.591 143.18 190.155 91.999H187.509Z" fill="#CEE0E6"/>
<path d="M96.405 181.737V223.633H93.6875V181.737H96.405Z" fill="#CEE0E6"/>
<path d="M82.0574 64.2276H80.7751C79.7981 64.2276 79.0048 63.3729 79.0656 62.3351C79.1265 61.4803 79.9812 60.8087 80.8359 60.8087H82.3622C82.9116 60.8087 83.4001 61.2363 83.5223 61.7244C83.5832 61.8466 83.7055 61.9684 83.8277 61.9684H85.5372C85.7203 61.9684 85.9034 61.7853 85.9034 61.6021C85.7203 59.8927 84.3162 58.5495 82.6068 58.4273V56.7178C82.6068 56.5347 82.4846 56.3516 82.2405 56.3516H80.5311C80.3479 56.3516 80.1648 56.4738 80.1648 56.7178V58.4273C78.0278 58.7326 76.4406 60.6252 76.6238 62.884C76.8069 65.0211 78.7608 66.5474 80.8365 66.5474H81.9352C82.9122 66.5474 83.7055 67.4021 83.6447 68.4399C83.5838 69.2946 82.7291 69.9662 81.8744 69.9662H80.3481C79.7987 69.9662 79.3102 69.5387 79.188 69.0506C79.1271 68.9284 79.0048 68.8066 78.8826 68.8066H77.1731C76.99 68.8066 76.8069 68.9897 76.8069 69.1728C76.99 70.8823 78.3942 72.2255 80.1035 72.3477V74.0572C80.1035 74.2403 80.2257 74.4234 80.4698 74.4234H82.1792C82.3624 74.4234 82.5455 74.3012 82.5455 74.0572V72.2869C84.3772 71.9815 85.9035 70.5774 86.0865 68.6849C86.3919 66.3034 84.4385 64.2277 82.0574 64.2277V64.2276Z" fill="#172F5D"/>
<path d="M105.074 68.1306C105.38 68.4359 105.746 68.5582 106.173 68.5582C106.539 68.5582 106.967 68.4359 107.272 68.1306C107.882 67.5199 107.882 66.5433 107.272 65.9935L105.684 64.4063C110.141 64.7725 113.682 68.4358 113.682 73.0148C113.682 73.8695 114.354 74.5411 115.209 74.5411C116.063 74.5411 116.735 73.8695 116.735 73.0148C116.735 66.7873 111.79 61.659 105.623 61.3537L107.272 59.7052C107.883 59.0945 107.883 58.1179 107.272 57.5681C106.661 57.0188 105.685 56.9574 105.135 57.5681L100.861 61.8417C100.556 62.1471 100.434 62.5133 100.434 62.9405C100.434 63.368 100.617 63.7343 100.861 64.0392L105.074 68.1306Z" fill="#172F5D"/>
<path d="M84.9283 89.8676C84.3176 89.2569 83.3411 89.2569 82.7913 89.8676C82.1806 90.4783 82.1806 91.4548 82.7913 92.0046L84.3785 93.5919C79.9218 93.2256 76.3808 89.5623 76.3808 84.9833C76.3808 84.1286 75.7092 83.457 74.8544 83.457C73.9997 83.457 73.3281 84.1286 73.3281 84.9833C73.3281 91.2108 78.2733 96.3391 84.4397 96.6444L82.7912 98.3539C82.1805 98.9646 82.1805 99.9411 82.7912 100.491C83.0965 100.796 83.4628 100.919 83.8899 100.919C84.2562 100.919 84.6837 100.796 84.9886 100.491L89.2622 96.2174C89.5676 95.912 89.6898 95.5458 89.6898 95.1186C89.6898 94.6911 89.5067 94.3248 89.2622 94.0199L84.9283 89.8676Z" fill="#172F5D"/>
<path d="M108.553 77.168C100.067 77.168 93.168 84.067 93.168 92.5532C93.168 101.04 100.067 108 108.614 108C117.161 108 124.061 101.1 124.061 92.5532C124.061 84.0061 117.101 77.168 108.553 77.168ZM108.553 104.947C101.776 104.947 96.2206 99.391 96.2206 92.5532C96.2206 85.7154 101.777 80.2206 108.553 80.2206C115.33 80.2206 120.947 85.7765 120.947 92.6143C120.947 99.4525 115.391 104.947 108.553 104.947Z" fill="#172F5D"/>
<path d="M81.4463 50C72.8992 50 66 56.8991 66 65.4463C66 73.9326 72.8991 80.8316 81.4463 80.8316C89.9326 80.8316 96.8316 73.9325 96.8316 65.4463C96.8316 56.8992 89.9325 50 81.4463 50ZM81.4463 77.779C74.6085 77.779 69.0526 72.2231 69.0526 65.4463C69.0526 58.6085 74.6085 53.0526 81.4463 53.0526C88.2232 53.0526 93.779 58.6085 93.779 65.4463C93.779 72.2232 88.2231 77.779 81.4463 77.779Z" fill="#172F5D"/>
<path d="M114.781 91.0261H110.08V84.9208C110.08 84.0661 109.408 83.3945 108.554 83.3945C107.699 83.3945 107.027 84.0661 107.027 84.9208V92.5524C107.027 93.4071 107.699 94.0787 108.554 94.0787H114.781C115.636 94.0787 116.307 93.4071 116.307 92.5524C116.307 91.6977 115.636 91.0261 114.781 91.0261Z" fill="#172F5D"/>
</svg>
