<svg width="31" height="56" viewBox="0 0 31 56" fill="none" xmlns="http://www.w3.org/2000/svg">
<path fill-rule="evenodd" clip-rule="evenodd" d="M9.95055 29.704C9.95055 29.704 8.48356 30.5577 10.9957 30.846C14.0399 31.1937 15.5948 31.1436 18.9485 30.5092C18.9485 30.5092 19.8314 31.0621 21.0639 31.5403C13.5438 34.7627 4.04467 31.3539 9.95055 29.704ZM9.03129 25.499C9.03129 25.499 7.38555 26.7172 9.89989 26.9772C13.1519 27.313 15.7188 27.3404 20.1634 26.4852C20.1634 26.4852 20.7771 27.1081 21.7429 27.4484C12.6519 30.1074 2.52701 27.6578 9.03129 25.499Z" fill="#3174B9"/>
<path fill-rule="evenodd" clip-rule="evenodd" d="M16.7792 18.3651C18.633 20.499 16.2933 22.4181 16.2933 22.4181C16.2933 22.4181 20.9982 19.9898 18.8372 16.9478C16.8196 14.1123 15.272 12.7036 23.6493 7.8457C23.6493 7.8457 10.4992 11.1286 16.7792 18.3651Z" fill="#CA3132"/>
<path fill-rule="evenodd" clip-rule="evenodd" d="M26.7272 32.8157C26.7272 32.8157 27.8131 33.711 25.531 34.4034C21.1916 35.7178 7.46639 36.1142 3.65393 34.4557C2.28444 33.8592 4.85391 33.0324 5.66229 32.8577C6.50539 32.6755 6.98653 32.7086 6.98653 32.7086C5.4625 31.6355 -2.86437 34.8164 2.75762 35.729C18.0877 38.2146 30.7031 34.6099 26.7272 32.8157ZM10.6607 21.1428C10.6607 21.1428 3.68006 22.8013 8.18906 23.4042C10.0935 23.6588 13.8872 23.6001 17.4237 23.3035C20.3131 23.061 23.2133 22.5423 23.2133 22.5423C23.2133 22.5423 22.1953 22.9791 21.4576 23.4819C14.3677 25.3469 0.67343 24.4783 4.61621 22.5719C7.94976 20.9593 10.6607 21.1428 10.6607 21.1428ZM23.1843 28.1423C30.3909 24.3983 27.0589 20.7997 24.7325 21.2846C24.1638 21.4035 23.9086 21.5061 23.9086 21.5061C23.9086 21.5061 24.1208 21.1741 24.5242 21.0313C29.1256 19.4142 32.6637 25.8019 23.0406 28.3315C23.0403 28.3315 23.1512 28.2315 23.1843 28.1423Z" fill="#3174B9"/>
<path fill-rule="evenodd" clip-rule="evenodd" d="M18.84 0C18.84 0 22.8302 3.99281 15.0543 10.1307C8.81831 15.0561 13.6326 17.8636 15.0524 21.0726C11.4117 17.7884 8.7412 14.8968 10.5326 12.2062C13.1626 8.25677 20.45 6.34146 18.84 0Z" fill="#CA3132"/>
<path fill-rule="evenodd" clip-rule="evenodd" d="M11.3699 38.2915C18.2862 38.7337 28.9092 38.0458 29.1612 34.7725C29.1612 34.7725 28.6775 36.0132 23.4446 36.9975C17.5406 38.1089 10.2576 37.9795 5.93945 37.2667C5.93945 37.2667 6.8243 37.999 11.3699 38.2915Z" fill="#3174B9"/>
<path fill-rule="evenodd" clip-rule="evenodd" d="M28.8405 44.1604H28.6302V44.0425H29.1977V44.1604H28.9874V44.7493H28.8405V44.1604ZM29.973 44.1897H29.9704L29.7614 44.7489H29.6655L29.4577 44.1897H29.4552V44.7489H29.3156V44.0422H29.5205L29.713 44.5421L29.9054 44.0422H30.1084V44.7489H29.9733L29.973 44.1897ZM10.2355 50.796C9.58324 51.3612 8.89372 51.6792 8.27461 51.6792C7.39263 51.6792 6.91405 51.1493 6.91405 50.3015C6.91405 49.3835 7.42641 48.7118 9.47714 48.7118H10.2352L10.2355 50.796ZM12.0358 52.827V46.5397C12.0358 44.9328 11.1194 43.8724 8.91029 43.8724C7.62141 43.8724 6.49154 44.1907 5.57291 44.5963L5.83738 45.7099C6.561 45.4442 7.49651 45.1979 8.41481 45.1979C9.68744 45.1979 10.2352 45.7099 10.2352 46.77V47.565H9.59918C6.50779 47.565 5.11281 48.7644 5.11281 50.5675C5.11281 52.1212 6.03207 53.0044 7.76257 53.0044C8.87492 53.0044 9.70592 52.5453 10.4818 51.8733L10.6229 52.827H12.0358ZM18.0443 52.827H15.7995L13.0965 44.0323H15.0574L16.735 49.4367L17.1084 51.0604C17.9547 48.7118 18.5553 46.3275 18.8558 44.0323H20.7625C20.2521 46.9281 19.3325 50.1074 18.0443 52.827ZM26.6592 50.796C26.005 51.3612 25.3155 51.6792 24.6977 51.6792C23.8157 51.6792 23.3377 51.1493 23.3377 50.3015C23.3377 49.3835 23.8504 48.7118 25.8999 48.7118H26.6592V50.796ZM28.4601 52.827V46.5397C28.4601 44.9328 27.5408 43.8724 25.334 43.8724C24.0438 43.8724 22.9143 44.1907 21.9956 44.5963L22.2601 45.7099C22.9837 45.4442 23.9212 45.1979 24.8398 45.1979C26.1105 45.1979 26.6589 45.7099 26.6589 46.77V47.565H26.0229C22.9312 47.565 21.5371 48.7644 21.5371 50.5675C21.5371 52.1212 22.4545 53.0044 24.1853 53.0044C25.2986 53.0044 26.1283 52.5453 26.9061 51.8733L27.0479 52.827H28.4601ZM3.13887 54.3214C2.62587 55.0711 1.79614 55.6647 0.88899 55.9996L0 54.9526C0.691118 54.5979 1.28314 54.0253 1.55876 53.4926C1.79614 53.0178 1.89524 52.4073 1.89524 50.9461V40.9043H3.80864V50.8075C3.80864 52.762 3.65251 53.5518 3.13887 54.3214Z" fill="#CA3132"/>
</svg>
